<?xml version="1.0" encoding="UTF-8" standalone="no"?>
<svg
   xmlns:svg="http://www.w3.org/2000/svg"
   xmlns="http://www.w3.org/2000/svg"
   width="132"
   height="24"
   id="svg2"
   version="1.1">
  <g
     label="Layer 1"
     groupmode="layer"
     id="layer1"
     transform="translate(-2.6132465,-1.0580801)"
     style="fill:#ffffff;fill-opacity:1">
    <g
       transform="matrix(0.57531763,0,0,0.57531763,-8.2824568,-8.6208377)"
       style="font-size:40px;font-style:normal;font-weight:normal;line-height:125%;letter-spacing:0px;word-spacing:0px;fill:#ffffff;stroke:none;font-family:Sans"
       id="flowRoot2985">
      <path
         d="m 45.476562,20.401377 1.560059,-0.880127 c 0.986297,1.547068 2.266,3.760608 3.839111,6.640625 l -1.560058,0.759277 c -1.279328,-2.399875 -2.55903,-4.573131 -3.839112,-6.519775 z m 5.279542,-1.600342 1.560058,-0.878906 c 1.520146,2.346223 2.853559,4.599232 4.000244,6.759033 l -1.560058,0.800781 c -1.413611,-2.560192 -2.747024,-4.787159 -4.000244,-6.680908 z m -30.079346,4.720459 14.359131,0 0,1.760254 c -3.066421,1.760279 -5.552991,4.153668 -7.459717,7.180176 -1.906747,3.026546 -2.860115,6.112887 -2.860108,9.259033 -7e-6,3.307298 0.886629,5.820927 2.659913,7.540893 1.773262,1.719972 4.339992,2.579956 7.700195,2.579957 3.43992,-1e-6 6.166561,-1.040039 8.179932,-3.120118 2.013318,-2.080073 3.01999,-4.920239 3.020019,-8.520507 -2.9e-5,-4.879541 -1.386746,-10.012593 -4.160156,-15.39917 l 1.440429,-1.120606 c 1.359836,1.787136 3.126395,3.75389 5.299683,5.900269 2.173225,2.146423 4.299891,4.006569 6.380005,5.580444 l -1.080322,1.439209 C 51.19593,34.361762 48.329315,31.681915 45.555908,28.561777 l -0.07935,0.04028 c 1.786266,4.319681 2.679413,8.319514 2.679444,11.999512 -3.1e-5,3.946947 -1.180043,7.100427 -3.540039,9.460449 -2.360051,2.360026 -5.53998,3.540038 -9.539795,3.540039 -3.920099,-1e-6 -6.946829,-1.020101 -9.0802,-3.060302 -2.133389,-2.040199 -3.200079,-4.953607 -3.200074,-8.740235 -5e-6,-3.040351 0.840041,-6.04043 2.520142,-9.000244 1.680085,-2.959776 3.946725,-5.452856 6.799927,-7.479248 l -0.04028,-0.08057 -11.398926,0 z"
         style="fill:#ffffff;font-family:'M+ 1c light';-inkscape-font-specification:'M+ 1c light'"
         id="path4415" />
      <path
         d="m 75.116455,21.521982 c -2.933771,6.932804 -5.453707,13.066017 -7.559814,18.399658 l 0.07935,0.04028 c 2.240385,-3.253566 4.680568,-4.880355 7.320557,-4.880371 1.546205,1.6e-5 2.732727,0.726741 3.55957,2.180175 0.826801,1.453464 1.493711,3.566906 2.000733,6.340332 0.506161,2.666022 1.065853,4.632369 1.679077,5.899048 0.613174,1.266684 1.493097,1.900025 2.63977,1.900025 3.040334,0 5.573698,-3.733313 7.600098,-11.199951 l 1.719971,0.479736 c -2.212763,8.29346 -5.33247,12.440184 -9.359131,12.440185 -1.680527,-10e-7 -2.954126,-0.746664 -3.820801,-2.23999 -0.866722,-1.493324 -1.593447,-3.746333 -2.180176,-6.759033 -0.506206,-2.507314 -1.039246,-4.36095 -1.599121,-5.560913 -0.559915,-1.199937 -1.359882,-1.799912 -2.399902,-1.799927 -2.106949,1.5e-5 -4.140435,1.280125 -6.100464,3.840332 -1.960052,2.56023 -4.100146,6.82699 -6.420288,12.800293 L 60.596191,52.760996 C 64.516269,42.6015 68.783029,31.988311 73.396484,20.921396 z"
         style="fill:#ffffff;font-family:'M+ 1c light';-inkscape-font-specification:'M+ 1c light'"
         id="path4417" />
      <path
         d="m 103.71631,22.601084 0,32.600098 8.1604,0 0,1.600341 -10,0 0,-35.79956 10,0 0,1.599121 z"
         style="fill:#ffffff;font-family:'M+ 1c light';-inkscape-font-specification:'M+ 1c light'"
         id="path4419" />
      <path
         d="m 137.15991,43.401865 c -2e-5,2.586269 -0.86672,4.699507 -2.6001,6.339722 -1.73341,1.640218 -4.64031,2.460327 -8.7207,2.460327 -2.58627,0 -4.90601,-0.213623 -6.95923,-0.640869 l 0,-28.719483 c 2.13297,-0.426403 4.31966,-0.639618 6.56006,-0.639648 6.82616,3e-5 10.23924,2.306749 10.23926,6.920166 -2e-5,1.679708 -0.53326,3.099588 -1.59973,4.259643 -1.06651,1.160093 -2.54661,1.966773 -4.44031,2.420044 l 0,0.07935 c 2.37384,0.400406 4.22077,1.287246 5.54077,2.660523 1.31997,1.373303 1.97996,2.993377 1.97998,4.860229 z m -1.96045,-0.12085 c -2e-5,-1.999501 -0.87343,-3.579292 -2.62024,-4.739379 -1.74684,-1.160061 -4.39352,-1.740098 -7.94006,-1.740113 l -3.75977,0 0,13.239746 c 1.62679,0.293784 3.28003,0.440676 4.95972,0.440674 6.24022,2e-6 9.36033,-2.400305 9.36035,-7.200928 z m -14.32007,-8.159179 3.75977,0 c 3.0135,1.6e-5 5.29356,-0.500064 6.84021,-1.500244 1.54661,-1.000144 2.31993,-2.433655 2.31995,-4.300537 -2e-5,-3.599421 -2.78648,-5.399142 -8.35938,-5.39917 -1.52019,2.8e-5 -3.04037,0.146512 -4.56055,0.439453 z"
         style="fill:#ffffff;font-family:'M+ 1c light';-inkscape-font-specification:'M+ 1c light'"
         id="path4421" />
      <path
         d="m 143.03516,33.421396 c 1.62678,-1.879862 3.90685,-2.819803 6.84021,-2.819824 2.93333,2.1e-5 5.2132,0.939962 6.8396,2.819824 1.62636,1.8799 2.43955,4.539809 2.43957,7.979737 -2e-5,3.439948 -0.81321,6.100061 -2.43957,7.980346 -1.6264,1.880291 -3.90627,2.820435 -6.8396,2.820435 -2.93336,0 -5.21343,-0.940144 -6.84021,-2.820435 -1.6268,-1.880285 -2.44019,-4.540398 -2.44019,-7.980346 0,-3.439928 0.81339,-6.099837 2.44019,-7.979737 z m 1.41967,14.840088 c 1.24023,1.560061 3.04707,2.340089 5.42054,2.340088 2.37344,1e-6 4.18008,-0.780027 5.41992,-2.340088 1.23981,-1.560053 1.85972,-3.846631 1.85974,-6.859741 -2e-5,-3.013089 -0.61993,-5.299667 -1.85974,-6.859741 -1.23984,-1.56004 -3.04648,-2.340068 -5.41992,-2.340088 -2.37347,2e-5 -4.18031,0.780048 -5.42054,2.340088 -1.24023,1.560074 -1.86035,3.846652 -1.86035,6.859741 0,3.01311 0.62012,5.299688 1.86035,6.859741 z"
         style="fill:#ffffff;font-family:'M+ 1c light';-inkscape-font-specification:'M+ 1c light'"
         id="path4423" />
      <path
         d="m 169.7063,24.201426 0,7.600097 7.83935,0 0,1.600342 -7.83935,0 0,12.279053 c -1e-5,2.027185 0.28665,3.354088 0.85998,3.980713 0.57332,0.626629 1.65995,0.939942 3.25989,0.939941 1.14663,1e-6 2.23998,-0.200194 3.28003,-0.600586 l 0,1.680908 c -1.06691,0.34668 -2.25343,0.52002 -3.55957,0.52002 -2.21355,0 -3.73373,-0.460002 -4.56055,-1.380005 -0.82683,-0.920001 -1.24024,-2.59338 -1.24023,-5.020142 l 0,-12.399902 -4.71924,0 0,-1.600342 4.71924,0 0,-7.600097 z"
         style="fill:#ffffff;font-family:'M+ 1c light';-inkscape-font-specification:'M+ 1c light'"
         id="path4425" />
      <path
         d="m 189.47192,24.201426 0,7.600097 7.83936,0 0,1.600342 -7.83936,0 0,12.279053 c 0,2.027185 0.28666,3.354088 0.85999,3.980713 0.57331,0.626629 1.65994,0.939942 3.25989,0.939941 1.14663,1e-6 2.23997,-0.200194 3.28003,-0.600586 l 0,1.680908 c -1.06691,0.34668 -2.25344,0.52002 -3.55957,0.52002 -2.21356,0 -3.73374,-0.460002 -4.56055,-1.380005 -0.82683,-0.920001 -1.24024,-2.59338 -1.24024,-5.020142 l 0,-12.399902 -4.71923,0 0,-1.600342 4.71923,0 0,-7.600097 z"
         style="fill:#ffffff;font-family:'M+ 1c light';-inkscape-font-specification:'M+ 1c light'"
         id="path4427" />
      <path
         d="m 205.35693,51.801523 0,-30 2.00074,0 0,30 z"
         style="fill:#ffffff;font-family:'M+ 1c light';-inkscape-font-specification:'M+ 1c light'"
         id="path4429" />
      <path
         d="m 215.99292,41.801523 c 0.0797,5.893559 2.71972,8.840333 7.91992,8.840332 2.05321,10e-7 4.07958,-0.426837 6.0791,-1.280517 l 0,1.71997 c -2.15984,0.747071 -4.22649,1.120606 -6.19995,1.120606 -3.19988,0 -5.62643,-0.906779 -7.27966,-2.720337 -1.65324,-1.813554 -2.47986,-4.507033 -2.47986,-8.080444 0,-3.86636 0.84005,-6.632877 2.52014,-8.299561 1.68009,-1.666646 3.84012,-2.499979 6.4801,-2.5 5.4663,2.1e-5 8.19945,3.493263 8.19947,10.479736 l 0,0.720215 z m 0,-1.560058 13.35937,0 c -0.0798,-5.386539 -2.18629,-8.079815 -6.31958,-8.079834 -4.42708,1.9e-5 -6.77368,2.693295 -7.03979,8.079834 z"
         style="fill:#ffffff;font-family:'M+ 1c light';-inkscape-font-specification:'M+ 1c light'"
         id="path4431" />
      <path
         d="m 244.85156,22.601084 -8.15918,0 0,-1.599121 10,0 0,35.79956 -10,0 0,-1.600341 8.15918,0 z"
         style="fill:#ffffff;font-family:'M+ 1c light';-inkscape-font-specification:'M+ 1c light'"
         id="path4433" />
    </g>
  </g>
</svg>
