<?xml version="1.0" encoding="UTF-8" standalone="no"?>
<!-- Created with Inkscape (http://www.inkscape.org/) -->

<svg
   xmlns:dc="http://purl.org/dc/elements/1.1/"
   xmlns:cc="http://creativecommons.org/ns#"
   xmlns:rdf="http://www.w3.org/1999/02/22-rdf-syntax-ns#"
   xmlns:svg="http://www.w3.org/2000/svg"
   xmlns="http://www.w3.org/2000/svg"
   xmlns:sodipodi="http://sodipodi.sourceforge.net/DTD/sodipodi-0.dtd"
   xmlns:inkscape="http://www.inkscape.org/namespaces/inkscape"
   width="114"
   height="24"
   id="svg2"
   version="1.1"
   docname="New document 1"
   inkscape:version="0.48.4 r9939"
   sodipodi:docname="cans_mozi.svg">
  <metadata
     id="metadata3842">
    <rdf:RDF>
      <cc:Work
         rdf:about="">
        <dc:format>image/svg+xml</dc:format>
        <dc:type
           rdf:resource="http://purl.org/dc/dcmitype/StillImage" />
        <dc:title></dc:title>
      </cc:Work>
    </rdf:RDF>
  </metadata>
  <defs
     id="defs3840" />
  <sodipodi:namedview
     pagecolor="#ffffff"
     bordercolor="#666666"
     borderopacity="1"
     objecttolerance="10"
     gridtolerance="10"
     guidetolerance="10"
     inkscape:pageopacity="0"
     inkscape:pageshadow="2"
     inkscape:window-width="723"
     inkscape:window-height="480"
     id="namedview3838"
     showgrid="false"
     inkscape:zoom="2.5371828"
     inkscape:cx="102.96572"
     inkscape:cy="-14.273581"
     inkscape:window-x="185"
     inkscape:window-y="58"
     inkscape:window-maximized="0"
     inkscape:current-layer="layer1" />
  <g
     label="Layer 1"
     groupmode="layer"
     id="layer1"
     transform="translate(-2.6132465,-1.0580801)"
     style="fill:#ffffff;fill-opacity:1">
    <g
       transform="matrix(0.57531763,0,0,0.57531763,-8.5121063,-8.6208377)"
       style="font-size:40px;font-style:normal;font-weight:normal;line-height:125%;letter-spacing:0px;word-spacing:0px;fill:#ffffff;stroke:none;font-family:Sans"
       id="flowRoot2985">
      <path
         d="m 21.476318,29.92164 0,-1.71997 8.160401,0 c 0.666491,-2.693659 1.27969,-5.573702 1.839599,-8.640137 l 1.800537,0.200195 c -0.533869,3.066436 -1.107599,5.879747 -1.721191,8.439942 l 4.121094,0 c 1.172669,2.3e-5 2.072326,0.0067 2.698974,0.02014 0.626606,0.01345 1.293313,0.08018 2.000122,0.200196 0.706764,0.120059 1.213558,0.233381 1.520386,0.339966 0.306779,0.106631 0.63352,0.359926 0.980225,0.759887 0.346653,0.400006 0.566583,0.773337 0.65979,1.119995 0.09315,0.346701 0.199762,0.920024 0.319824,1.719971 0.120009,0.799986 0.180027,1.559873 0.180054,2.279663 -2.7e-5,0.719825 -2.7e-5,1.746638 0,3.080444 -2.7e-5,4.82667 -0.580064,8.559983 -1.740112,11.199952 -1.160099,2.639974 -2.566551,3.959959 -4.219361,3.959961 -2.0272,-2e-6 -4.667171,-0.77352 -7.919922,-2.320557 l 0.639649,-1.679688 c 3.013492,1.413576 5.360088,2.120363 7.039795,2.120362 0.666482,10e-7 1.306537,-0.45349 1.920166,-1.360474 0.613583,-0.906979 1.15354,-2.420446 1.619873,-4.540405 0.466284,-2.119946 0.699438,-4.646392 0.699463,-7.579346 -2.5e-5,-0.960271 -2.5e-5,-1.65363 0,-2.080078 -2.5e-5,-0.426415 -0.02668,-0.966373 -0.07996,-1.619873 -0.05333,-0.653464 -0.07998,-1.093528 -0.07996,-1.32019 -2.4e-5,-0.226625 -0.07998,-0.533224 -0.239868,-0.9198 -0.159936,-0.386536 -0.273258,-0.626607 -0.339966,-0.720215 -0.06676,-0.09357 -0.260033,-0.240254 -0.579833,-0.440064 -0.319848,-0.199766 -0.573144,-0.306374 -0.759888,-0.319824 -0.18679,-0.01341 -0.540184,-0.04677 -1.060181,-0.100097 -0.520041,-0.05328 -0.95339,-0.07993 -1.300049,-0.07996 -0.346699,2.2e-5 -0.906595,2.2e-5 -1.679687,0 l -4.840088,0 c -2.159843,8.373224 -4.933277,16.093349 -8.320313,23.160401 l -1.71997,-0.720215 c 3.360181,-7.040195 6.066884,-14.52025 8.120117,-22.440186 z m 24.840088,-4.920654 1.719971,-0.679931 c 1.332976,2.854028 2.686124,6.194275 4.059448,10.020752 1.373255,3.826511 2.473311,7.286387 3.300171,10.379638 L 53.59668,45.162119 C 51.836391,38.441755 49.409636,31.721384 46.316406,25.000986 z"
         style="fill:#ffffff;font-family:'M+ 1c light';-inkscape-font-specification:'M+ 1c light'"
         id="path3096" />
      <path
         d="m 75.116455,21.521982 c -2.933771,6.932804 -5.453707,13.066017 -7.559814,18.399658 l 0.07935,0.04028 c 2.240385,-3.253566 4.680568,-4.880355 7.320557,-4.880371 1.546205,1.6e-5 2.732727,0.726741 3.55957,2.180175 0.826801,1.453464 1.493711,3.566906 2.000733,6.340332 0.506161,2.666022 1.065853,4.632369 1.679077,5.899048 0.613174,1.266684 1.493097,1.900025 2.63977,1.900025 3.040334,0 5.573698,-3.733313 7.600098,-11.199951 l 1.719971,0.479736 c -2.212763,8.29346 -5.33247,12.440184 -9.359131,12.440185 -1.680527,-10e-7 -2.954126,-0.746664 -3.820801,-2.23999 -0.866722,-1.493324 -1.593447,-3.746333 -2.180176,-6.759033 -0.506206,-2.507314 -1.039246,-4.36095 -1.599121,-5.560913 -0.559915,-1.199937 -1.359882,-1.799912 -2.399902,-1.799927 -2.106949,1.5e-5 -4.140435,1.280125 -6.100464,3.840332 -1.960052,2.56023 -4.100146,6.82699 -6.420288,12.800293 L 60.596191,52.760996 C 64.516269,42.6015 68.783029,31.988311 73.396484,20.921396 z"
         style="fill:#ffffff;font-family:'M+ 1c light';-inkscape-font-specification:'M+ 1c light'"
         id="path3098" />
      <path
         d="m 103.71631,22.601084 0,32.600098 8.1604,0 0,1.600341 -10,0 0,-35.79956 10,0 0,1.599121 z"
         style="fill:#ffffff;font-family:'M+ 1c light';-inkscape-font-specification:'M+ 1c light'"
         id="path3100" />
      <path
         d="m 129.27905,50.481943 c 2.29328,2e-6 4.58657,-0.453286 6.87989,-1.359863 l 0,1.879883 c -2.21275,0.799967 -4.54592,1.199951 -6.99952,1.199951 -3.62631,0 -6.54623,-1.313476 -8.75976,-3.94043 -2.21355,-2.626947 -3.32032,-6.313466 -3.32031,-11.05957 -1e-5,-4.720033 1.05997,-8.400042 3.17993,-11.040039 2.11994,-2.639946 5.0065,-3.959931 8.65967,-3.959961 2.48045,3e-5 4.82745,0.400013 7.04101,1.199951 l 0,1.8396 c -2.32017,-0.879693 -4.62689,-1.319552 -6.92017,-1.31958 -3.09327,2.8e-5 -5.52002,1.173325 -7.28027,3.519897 -1.76026,2.34662 -2.64038,5.599994 -2.64038,9.760132 0,4.133311 0.91329,7.379971 2.73987,9.73999 1.82657,2.360029 4.29991,3.540041 7.42004,3.540039 z"
         style="fill:#ffffff;font-family:'M+ 1c light';-inkscape-font-specification:'M+ 1c light'"
         id="path3102" />
      <path
         d="m 155.54004,38.801035 0,-1.519775 c -2e-5,-1.839991 -0.40671,-3.133324 -1.22009,-3.880005 -0.81341,-0.746645 -2.24672,-1.119976 -4.29993,-1.119995 -2.50652,1.9e-5 -4.95972,0.49359 -7.35962,1.480713 l 0,-1.840821 c 2.31933,-0.879699 4.77253,-1.319559 7.35962,-1.31958 2.74657,2.1e-5 4.67324,0.526754 5.78003,1.5802 1.10675,1.053486 1.66014,2.886776 1.66016,5.499878 l 0,14.119873 -1.8396,0 0,-4.07959 -0.0806,0 c -0.72023,1.412764 -1.7737,2.512616 -3.1604,3.299561 -1.38673,0.786947 -2.95981,1.18042 -4.71924,1.18042 -1.84001,0 -3.30669,-0.553385 -4.40002,-1.660156 -1.09335,-1.106769 -1.64002,-2.593584 -1.64002,-4.46045 0,-0.986321 0.17985,-1.886182 0.53955,-2.699585 0.3597,-0.813385 0.94625,-1.58019 1.75965,-2.300415 0.81339,-0.720203 1.98689,-1.280302 3.5205,-1.680297 1.5336,-0.399971 3.36689,-0.599963 5.49988,-0.599976 z m 0,1.480713 -2.6001,0 c -6.26628,1.1e-5 -9.39942,1.879892 -9.39941,5.639648 -1e-5,1.413579 0.40649,2.533573 1.21948,3.359986 0.81298,0.826417 1.89981,1.239625 3.2605,1.239624 2.07925,10e-7 3.85232,-0.72652 5.31921,-2.179566 1.46686,-1.453038 2.2003,-3.326205 2.20032,-5.619507 z"
         style="fill:#ffffff;font-family:'M+ 1c light';-inkscape-font-specification:'M+ 1c light'"
         id="path3104" />
      <path
         d="m 165.31909,31.001963 0.0403,3.679199 0.0806,0 c 1.91975,-2.719707 4.30623,-4.079569 7.15943,-4.07959 2.42674,2.1e-5 4.18007,0.666728 5.26,2.000122 1.0799,1.333433 1.61986,3.600073 1.61988,6.799927 l 0,12.399902 -1.87988,0 0,-12.199707 c -2e-5,-2.88003 -0.42666,-4.833357 -1.27991,-5.859985 -0.85329,-1.026592 -2.22678,-1.539897 -4.12049,-1.539917 -1.51937,2e-5 -3.03243,0.733254 -4.53918,2.199707 -1.50676,1.466487 -2.26014,2.932957 -2.26013,4.399414 l 0,13.000488 -1.92017,0 0,-20.79956 z"
         style="fill:#ffffff;font-family:'M+ 1c light';-inkscape-font-specification:'M+ 1c light'"
         id="path3106" />
      <path
         d="m 192.23071,32.201914 c -1.7334,2e-5 -3.06682,0.326557 -4.00024,0.979614 -0.93344,0.653094 -1.40015,1.566383 -1.40015,2.739868 0,1.06691 0.37333,1.940322 1.12,2.62024 0.74665,0.679944 2.12015,1.233125 4.12048,1.659546 2.69286,0.586762 4.59268,1.360076 5.69946,2.319946 1.10676,0.959888 1.66014,2.293504 1.66016,4.000854 -2e-5,1.759444 -0.66001,3.145958 -1.97998,4.159546 -1.32,1.013591 -3.16672,1.520386 -5.54016,1.520386 -2.37346,0 -4.6401,-0.493571 -6.79993,-1.480713 l 0,-1.719971 c 2.15983,1.066897 4.37337,1.600343 6.64063,1.600342 1.83999,1e-6 3.25987,-0.360106 4.25964,-1.080322 0.99974,-0.720212 1.49962,-1.719967 1.49963,-2.999268 -1e-5,-1.066888 -0.39328,-1.98038 -1.17981,-2.740478 -0.78655,-0.760083 -2.28659,-1.380199 -4.50012,-1.860352 -2.47966,-0.53303 -4.25293,-1.259551 -5.31982,-2.179565 -1.0669,-0.919991 -1.60035,-2.140082 -1.60034,-3.660279 -1e-5,-1.67967 0.63333,-3.01288 1.90002,-3.999633 1.26668,-0.986715 3.03364,-1.480082 5.3009,-1.480103 2.29329,2.1e-5 4.50642,0.373149 6.63941,1.119385 l 0,1.719971 c -2.2396,-0.82599 -4.41286,-1.238994 -6.51978,-1.239014 z"
         style="fill:#ffffff;font-family:'M+ 1c light';-inkscape-font-specification:'M+ 1c light'"
         id="path3108" />
      <path
         d="m 213.60156,22.601084 -8.15918,0 0,-1.599121 10,0 0,35.79956 -10,0 0,-1.600341 8.15918,0 z"
         style="fill:#ffffff;font-family:'M+ 1c light';-inkscape-font-specification:'M+ 1c light'"
         id="path3110" />
    </g>
  </g>
</svg>
