<?xml version="1.0" encoding="UTF-8" standalone="no"?>
<!-- Created with Inkscape (http://www.inkscape.org/) -->

<svg
   xmlns:dc="http://purl.org/dc/elements/1.1/"
   xmlns:cc="http://creativecommons.org/ns#"
   xmlns:rdf="http://www.w3.org/1999/02/22-rdf-syntax-ns#"
   xmlns:svg="http://www.w3.org/2000/svg"
   xmlns="http://www.w3.org/2000/svg"
   xmlns:sodipodi="http://sodipodi.sourceforge.net/DTD/sodipodi-0.dtd"
   xmlns:inkscape="http://www.inkscape.org/namespaces/inkscape"
   width="222"
   height="24"
   id="svg2"
   version="1.1"
   docname="New document 1"
   inkscape:version="0.48.4 r9939"
   sodipodi:docname="cardboard_mozi.svg">
  <metadata
     id="metadata3842">
    <rdf:RDF>
      <cc:Work
         rdf:about="">
        <dc:format>image/svg+xml</dc:format>
        <dc:type
           rdf:resource="http://purl.org/dc/dcmitype/StillImage" />
        <dc:title></dc:title>
      </cc:Work>
    </rdf:RDF>
  </metadata>
  <defs
     id="defs3840" />
  <sodipodi:namedview
     pagecolor="#ffffff"
     bordercolor="#666666"
     borderopacity="1"
     objecttolerance="10"
     gridtolerance="10"
     guidetolerance="10"
     inkscape:pageopacity="0"
     inkscape:pageshadow="2"
     inkscape:window-width="1003"
     inkscape:window-height="557"
     id="namedview3838"
     showgrid="false"
     inkscape:zoom="2.5371828"
     inkscape:cx="133.78417"
     inkscape:cy="-14.273581"
     inkscape:window-x="185"
     inkscape:window-y="58"
     inkscape:window-maximized="0"
     inkscape:current-layer="layer1" />
  <g
     label="Layer 1"
     groupmode="layer"
     id="layer1"
     transform="translate(-2.6132465,-1.0580801)"
     style="fill:#ffffff;fill-opacity:1">
    <g
       transform="matrix(0.57531763,0,0,0.57531763,-6.8322238,-8.6208377)"
       style="font-size:40px;font-style:normal;font-weight:normal;line-height:125%;letter-spacing:0px;word-spacing:0px;fill:#ffffff;stroke:none;font-family:Sans"
       id="flowRoot2985">
      <path
         d="m 23.315918,24.642099 0,5.039063 10.880127,0 0,1.640625 -10.880127,0 0,6.439209 10.880127,0 0,1.640625 -10.880127,0 0,7.23999 c 3.733714,-0.666498 7.613918,-1.533196 11.640625,-2.600097 l 0.239258,1.679687 c -3.946141,1.0669 -7.906098,1.947026 -11.879883,2.640381 l 0,6.760254 -1.920166,0 0,-6.44043 c -1.333011,0.213219 -2.346193,0.36011 -3.039551,0.440674 l -0.200195,-1.680908 3.239746,-0.479737 0,-23.719482 c 4.187003,-0.747041 8.587227,-1.93397 13.200684,-3.560791 l 0.560302,1.680908 c -4.16017,1.4665 -8.107106,2.559843 -11.84082,3.280029 z m 17.440186,-2.120361 0,1.519776 c -2.4e-5,2.773462 -0.466739,5.040102 -1.400147,6.799926 -0.933452,1.759866 -2.373474,3.119932 -4.320068,4.0802 L 33.99585,33.440928 c 1.78709,-0.959454 3.053975,-2.172628 3.800659,-3.639527 0.746642,-1.466855 1.119973,-3.573583 1.119995,-6.32019 l 0,-2.679444 10.759277,0 0,10.52002 c -3.2e-5,0.373555 0.04676,0.593485 0.140381,0.65979 0.09356,0.06634 0.420296,0.09951 0.980225,0.09949 0.639614,2e-5 1.086187,2e-5 1.339721,0 0.253465,2e-5 0.54684,-0.07322 0.880127,-0.219726 0.333216,-0.146465 0.539922,-0.273011 0.620118,-0.379639 0.08012,-0.106588 0.18673,-0.406677 0.319824,-0.900268 0.133019,-0.49355 0.212975,-0.933613 0.239868,-1.320191 0.02682,-0.386533 0.08012,-1.086402 0.159912,-2.099609 l 1.719971,0.200195 c -0.07979,1.199568 -0.153034,2.086001 -0.219727,2.659302 -0.06677,0.573345 -0.19352,1.153381 -0.380249,1.740112 -0.186806,0.586771 -0.366859,0.97353 -0.540161,1.160278 -0.173377,0.186787 -0.513343,0.373554 -1.019897,0.560303 -0.506628,0.186786 -0.999792,0.28668 -1.479493,0.299683 -0.479771,0.01304 -1.213006,0.01955 -2.199707,0.01953 -0.986767,1.8e-5 -1.633535,-0.10659 -1.940307,-0.319824 -0.306834,-0.213198 -0.460236,-0.706361 -0.460205,-1.479492 l 0,-9.479981 z m -3.28003,17.479248 1.519776,-0.999756 c 1.653622,2.587087 3.600235,4.867359 5.839843,6.840821 2.613902,-2.213534 4.76071,-4.907216 6.44043,-8.081055 l -16.119385,0 0,-1.719971 18.199463,0 0,1.719971 c -1.813185,3.706879 -4.173209,6.800544 -7.080078,9.281006 2.74655,2.266441 5.839809,4.186198 9.279785,5.759277 l -0.720215,1.640625 c -3.653191,-1.626791 -6.999542,-3.69344 -10.039062,-6.199951 -3.173853,2.399903 -7.320577,4.466552 -12.440186,6.199951 L 31.63623,52.760996 c 4.693178,-1.546223 8.599831,-3.465981 11.719971,-5.759277 -2.320173,-2.080072 -4.280214,-4.413647 -5.880127,-7.000733 z"
         style="fill:#ffffff;font-family:'M+ 1c light';-inkscape-font-specification:'M+ 1c light'"
         id="path3029" />
      <path
         d="m 60.636475,26.88209 15.520019,0 0,-6.400147 1.999512,0 0,6.400147 14.720459,0 0,1.799316 -14.720459,0 0,20.400391 c -2.1e-5,1.733399 -0.246603,2.866617 -0.739746,3.399658 -0.493184,0.533039 -1.539732,0.799559 -3.139649,0.79956 -1.946629,-10e-7 -4.013278,-0.199789 -6.199951,-0.599365 l 0.279541,-1.760254 c 2.000312,0.346681 3.880193,0.52002 5.639649,0.52002 0.960268,0 1.560447,-0.13326 1.800537,-0.39978 0.240052,-0.26652 0.360088,-0.98653 0.360107,-2.160035 l 0,-20.200195 -15.520019,0 z m 25.639648,-7.440186 1.44043,-0.800781 c 0.906544,1.413606 2.079638,3.413929 3.519287,6.000976 l -1.439209,0.759278 c -1.120637,-2.08005 -2.294139,-4.066539 -3.520508,-5.959473 z m 5.119629,-0.720215 1.44043,-0.79956 c 1.440392,2.319367 2.640342,4.35916 3.599853,6.119385 l -1.439209,0.760498 C 93.823287,22.668252 92.62293,20.64148 91.395752,18.721689 z M 59.756348,47.760996 c 2.53336,-4.453117 4.84008,-8.906237 6.920166,-13.359375 l 1.799316,0.679932 c -1.866058,4.106458 -4.199226,8.613289 -6.999512,13.520507 z m 25.279541,-12.679443 1.760254,-0.799561 c 2.106901,3.812677 4.44007,8.439137 6.999511,13.879395 l -1.799316,0.760498 C 89.569548,43.748553 87.2494,39.135113 85.035889,35.081553 z"
         style="fill:#ffffff;font-family:'M+ 1c light';-inkscape-font-specification:'M+ 1c light'"
         id="path3031" />
      <path
         d="m 101.03564,38.361582 0,-1.920166 32.24122,0 0,1.920166 z"
         style="fill:#ffffff;font-family:'M+ 1c light';-inkscape-font-specification:'M+ 1c light'"
         id="path3033" />
      <path
         d="m 148.07666,22.68165 1.99951,0 0,7.719727 c -1e-5,5.1465 -0.29339,9.166475 -0.88013,12.059936 -0.58676,2.89348 -1.48011,5.07345 -2.68005,6.539917 -1.19996,1.466473 -2.97303,2.746582 -5.31921,3.840332 l -1.00098,-1.679687 c 2.13378,-1.013182 3.72721,-2.17997 4.78027,-3.500366 1.05306,-1.320389 1.83308,-3.300571 2.34009,-5.940552 0.50699,-2.639961 0.76049,-6.413151 0.7605,-11.31958 z m 12.19971,28.160401 c 3.60023,-0.373534 6.60031,-1.973671 9.00024,-4.800415 2.39987,-2.826733 3.79961,-6.466663 4.19922,-10.9198 l 1.87988,0.239258 c -0.45332,5.200206 -2.20645,9.400235 -5.2594,12.600097 -3.053,3.199871 -6.80646,4.799804 -11.26037,4.799805 l -0.55908,0 0,-30.079346 1.99951,0 z"
         style="fill:#ffffff;font-family:'M+ 1c light';-inkscape-font-specification:'M+ 1c light'"
         id="path3035" />
      <path
         d="m 183.71631,22.601084 0,32.600098 8.1604,0 0,1.600341 -10,0 0,-35.79956 10,0 0,1.599121 z"
         style="fill:#ffffff;font-family:'M+ 1c light';-inkscape-font-specification:'M+ 1c light'"
         id="path3037" />
      <path
         d="m 209.27905,50.481943 c 2.29328,2e-6 4.58657,-0.453286 6.87989,-1.359863 l 0,1.879883 c -2.21275,0.799967 -4.54592,1.199951 -6.99952,1.199951 -3.62631,0 -6.54623,-1.313476 -8.75976,-3.94043 -2.21355,-2.626947 -3.32032,-6.313466 -3.32031,-11.05957 -1e-5,-4.720033 1.05997,-8.400042 3.17993,-11.040039 2.11994,-2.639946 5.0065,-3.959931 8.65967,-3.959961 2.48045,3e-5 4.82745,0.400013 7.04101,1.199951 l 0,1.8396 c -2.32017,-0.879693 -4.62689,-1.319552 -6.92017,-1.31958 -3.09327,2.8e-5 -5.52002,1.173325 -7.28027,3.519897 -1.76026,2.34662 -2.64038,5.599994 -2.64038,9.760132 0,4.133311 0.91329,7.379971 2.73987,9.73999 1.82657,2.360029 4.29991,3.540041 7.42004,3.540039 z"
         style="fill:#ffffff;font-family:'M+ 1c light';-inkscape-font-specification:'M+ 1c light'"
         id="path3039" />
      <path
         d="m 235.54004,38.801035 0,-1.519775 c -2e-5,-1.839991 -0.40671,-3.133324 -1.22009,-3.880005 -0.81341,-0.746645 -2.24672,-1.119976 -4.29993,-1.119995 -2.50652,1.9e-5 -4.95972,0.49359 -7.35962,1.480713 l 0,-1.840821 c 2.31933,-0.879699 4.77253,-1.319559 7.35962,-1.31958 2.74657,2.1e-5 4.67324,0.526754 5.78003,1.5802 1.10675,1.053486 1.66014,2.886776 1.66016,5.499878 l 0,14.119873 -1.8396,0 0,-4.07959 -0.0806,0 c -0.72023,1.412764 -1.7737,2.512616 -3.1604,3.299561 -1.38673,0.786947 -2.95981,1.18042 -4.71924,1.18042 -1.84001,0 -3.30669,-0.553385 -4.40002,-1.660156 -1.09335,-1.106769 -1.64002,-2.593584 -1.64002,-4.46045 0,-0.986321 0.17985,-1.886182 0.53955,-2.699585 0.3597,-0.813385 0.94625,-1.58019 1.75965,-2.300415 0.81339,-0.720203 1.98689,-1.280302 3.5205,-1.680297 1.5336,-0.399971 3.36689,-0.599963 5.49988,-0.599976 z m 0,1.480713 -2.6001,0 c -6.26628,1.1e-5 -9.39942,1.879892 -9.39941,5.639648 -1e-5,1.413579 0.40649,2.533573 1.21948,3.359986 0.81298,0.826417 1.89981,1.239625 3.2605,1.239624 2.07925,10e-7 3.85232,-0.72652 5.31921,-2.179566 1.46686,-1.453038 2.2003,-3.326205 2.20032,-5.619507 z"
         style="fill:#ffffff;font-family:'M+ 1c light';-inkscape-font-specification:'M+ 1c light'"
         id="path3041" />
      <path
         d="m 245.43994,31.001963 0,5.239258 0.0794,0 c 0.79996,-1.626774 1.99991,-2.90668 3.59985,-3.839722 1.59993,-0.933004 3.45336,-1.399515 5.5603,-1.399536 l 0.79956,0 0,1.71997 -0.79956,0 c -2.69369,2e-5 -4.90052,0.846576 -6.62048,2.539673 -1.71998,1.69313 -2.57996,3.912977 -2.57996,6.659546 l 0,9.880371 -1.99951,0 0,-20.79956 z"
         style="fill:#ffffff;font-family:'M+ 1c light';-inkscape-font-specification:'M+ 1c light'"
         id="path3043" />
      <path
         d="m 275.26172,21.801523 1.91894,0 0,30 -1.8396,0 -0.0403,-3.360595 -0.0793,0 c -1.73342,2.507325 -4.10687,3.760986 -7.12037,3.760986 -2.58627,0 -4.63277,-0.953369 -6.13952,-2.860107 -1.50676,-1.906734 -2.26014,-4.553623 -2.26013,-7.940674 -10e-6,-3.466783 0.73323,-6.133407 2.1997,-7.999878 1.46647,-1.866435 3.53312,-2.799662 6.19995,-2.799683 1.46646,2.1e-5 2.81982,0.320049 4.06006,0.960083 1.24022,0.640075 2.24689,1.519998 3.02002,2.639771 l 0.0806,0 z m -13.60108,19.59961 c 0,3.013516 0.58675,5.300298 1.76026,6.860351 1.17349,1.560061 2.85359,2.340089 5.04028,2.340088 1.70653,1e-6 3.26659,-0.619912 4.68018,-1.859741 1.41355,-1.239823 2.12034,-2.646682 2.12036,-4.220581 l 0,-6.240235 c -2e-5,-1.546208 -0.69338,-2.945947 -2.08008,-4.199218 -1.38673,-1.253237 -2.96022,-1.879863 -4.72046,-1.879883 -4.5337,2e-5 -6.80054,3.066423 -6.80054,9.199219 z"
         style="fill:#ffffff;font-family:'M+ 1c light';-inkscape-font-specification:'M+ 1c light'"
         id="path3045" />
      <path
         d="m 285.7561,21.801523 0,12.399903 0.0793,0 c 0.77311,-1.119773 1.77978,-1.999696 3.02002,-2.639771 1.24022,-0.640034 2.59358,-0.960062 4.06006,-0.960083 2.66681,2.1e-5 4.73346,0.933248 6.19995,2.799683 1.46645,1.866471 2.19968,4.533095 2.19971,7.999878 -3e-5,3.387051 -0.7532,6.03394 -2.25953,7.940674 -1.50636,1.906738 -3.55307,2.860107 -6.14013,2.860107 -3.01352,0 -5.38697,-1.253661 -7.12036,-3.760986 l -0.0793,0 -0.0403,3.360595 -1.8396,0 0,-30 z m 13.59986,19.59961 c -2e-5,-6.132796 -2.26687,-9.199199 -6.80054,-9.199219 -1.76026,2e-5 -3.33355,0.626646 -4.71985,1.879883 -1.38632,1.253271 -2.07947,2.65301 -2.07947,4.199218 l 0,6.240235 c 0,1.573899 0.70658,2.980758 2.11975,4.220581 1.41316,1.239829 2.97302,1.859742 4.67957,1.859741 2.18667,1e-6 3.86676,-0.780027 5.04028,-2.340088 1.17349,-1.560053 1.76024,-3.846835 1.76026,-6.860351 z"
         style="fill:#ffffff;font-family:'M+ 1c light';-inkscape-font-specification:'M+ 1c light'"
         id="path3047" />
      <path
         d="m 307.41016,33.421396 c 1.62678,-1.879862 3.90685,-2.819803 6.84021,-2.819824 2.93333,2.1e-5 5.2132,0.939962 6.8396,2.819824 1.62636,1.8799 2.43955,4.539809 2.43957,7.979737 -2e-5,3.439948 -0.81321,6.100061 -2.43957,7.980346 -1.6264,1.880291 -3.90627,2.820435 -6.8396,2.820435 -2.93336,0 -5.21343,-0.940144 -6.84021,-2.820435 -1.6268,-1.880285 -2.44019,-4.540398 -2.44019,-7.980346 0,-3.439928 0.81339,-6.099837 2.44019,-7.979737 z m 1.41967,14.840088 c 1.24023,1.560061 3.04707,2.340089 5.42054,2.340088 2.37344,1e-6 4.18008,-0.780027 5.41992,-2.340088 1.23981,-1.560053 1.85972,-3.846631 1.85974,-6.859741 -2e-5,-3.013089 -0.61993,-5.299667 -1.85974,-6.859741 -1.23984,-1.56004 -3.04648,-2.340068 -5.41992,-2.340088 -2.37347,2e-5 -4.18031,0.780048 -5.42054,2.340088 -1.24023,1.560074 -1.86035,3.846652 -1.86035,6.859741 0,3.01311 0.62012,5.299688 1.86035,6.859741 z"
         style="fill:#ffffff;font-family:'M+ 1c light';-inkscape-font-specification:'M+ 1c light'"
         id="path3049" />
      <path
         d="m 341.32129,38.801035 0,-1.519775 c -2e-5,-1.839991 -0.40671,-3.133324 -1.22009,-3.880005 -0.81341,-0.746645 -2.24672,-1.119976 -4.29993,-1.119995 -2.50652,1.9e-5 -4.95972,0.49359 -7.35962,1.480713 l 0,-1.840821 c 2.31933,-0.879699 4.77253,-1.319559 7.35962,-1.31958 2.74657,2.1e-5 4.67324,0.526754 5.78003,1.5802 1.10675,1.053486 1.66014,2.886776 1.66016,5.499878 l 0,14.119873 -1.8396,0 0,-4.07959 -0.0806,0 c -0.72023,1.412764 -1.7737,2.512616 -3.1604,3.299561 -1.38673,0.786947 -2.95981,1.18042 -4.71924,1.18042 -1.84001,0 -3.30669,-0.553385 -4.40002,-1.660156 -1.09335,-1.106769 -1.64002,-2.593584 -1.64002,-4.46045 0,-0.986321 0.17985,-1.886182 0.53955,-2.699585 0.3597,-0.813385 0.94625,-1.58019 1.75965,-2.300415 0.81339,-0.720203 1.98689,-1.280302 3.5205,-1.680297 1.5336,-0.399971 3.36689,-0.599963 5.49988,-0.599976 z m 0,1.480713 -2.6001,0 c -6.26628,1.1e-5 -9.39942,1.879892 -9.39941,5.639648 -10e-6,1.413579 0.40649,2.533573 1.21948,3.359986 0.81298,0.826417 1.89981,1.239625 3.2605,1.239624 2.07925,10e-7 3.85232,-0.72652 5.31921,-2.179566 1.46686,-1.453038 2.2003,-3.326205 2.20032,-5.619507 z"
         style="fill:#ffffff;font-family:'M+ 1c light';-inkscape-font-specification:'M+ 1c light'"
         id="path3051" />
      <path
         d="m 351.22119,31.001963 0,5.239258 0.0794,0 c 0.79996,-1.626774 1.99991,-2.90668 3.59985,-3.839722 1.59993,-0.933004 3.45336,-1.399515 5.5603,-1.399536 l 0.79956,0 0,1.71997 -0.79956,0 c -2.69369,2e-5 -4.90052,0.846576 -6.62048,2.539673 -1.71998,1.69313 -2.57996,3.912977 -2.57996,6.659546 l 0,9.880371 -1.99951,0 0,-20.79956 z"
         style="fill:#ffffff;font-family:'M+ 1c light';-inkscape-font-specification:'M+ 1c light'"
         id="path3053" />
      <path
         d="m 381.04297,21.801523 1.91894,0 0,30 -1.8396,0 -0.0403,-3.360595 -0.0793,0 c -1.73342,2.507325 -4.10687,3.760986 -7.12037,3.760986 -2.58627,0 -4.63277,-0.953369 -6.13952,-2.860107 -1.50676,-1.906734 -2.26014,-4.553623 -2.26013,-7.940674 -10e-6,-3.466783 0.73323,-6.133407 2.1997,-7.999878 1.46647,-1.866435 3.53312,-2.799662 6.19995,-2.799683 1.46646,2.1e-5 2.81982,0.320049 4.06006,0.960083 1.24022,0.640075 2.24689,1.519998 3.02002,2.639771 l 0.0806,0 z m -13.60108,19.59961 c 0,3.013516 0.58675,5.300298 1.76026,6.860351 1.17349,1.560061 2.85359,2.340089 5.04028,2.340088 1.70653,1e-6 3.26659,-0.619912 4.68018,-1.859741 1.41355,-1.239823 2.12034,-2.646682 2.12036,-4.220581 l 0,-6.240235 c -2e-5,-1.546208 -0.69338,-2.945947 -2.08008,-4.199218 -1.38673,-1.253237 -2.96022,-1.879863 -4.72046,-1.879883 -4.5337,2e-5 -6.80054,3.066423 -6.80054,9.199219 z"
         style="fill:#ffffff;font-family:'M+ 1c light';-inkscape-font-specification:'M+ 1c light'"
         id="path3055" />
      <path
         d="m 397.97656,22.601084 -8.15918,0 0,-1.599121 10,0 0,35.79956 -10,0 0,-1.600341 8.15918,0 z"
         style="fill:#ffffff;font-family:'M+ 1c light';-inkscape-font-specification:'M+ 1c light'"
         id="path3057" />
    </g>
  </g>
</svg>
