<?xml version="1.0" encoding="UTF-8" standalone="no"?>
<!-- Created with Inkscape (http://www.inkscape.org/) -->

<svg
   xmlns:dc="http://purl.org/dc/elements/1.1/"
   xmlns:cc="http://creativecommons.org/ns#"
   xmlns:rdf="http://www.w3.org/1999/02/22-rdf-syntax-ns#"
   xmlns:svg="http://www.w3.org/2000/svg"
   xmlns="http://www.w3.org/2000/svg"
   xmlns:sodipodi="http://sodipodi.sourceforge.net/DTD/sodipodi-0.dtd"
   xmlns:inkscape="http://www.inkscape.org/namespaces/inkscape"
   width="183"
   height="24"
   id="svg2"
   version="1.1"
   docname="New document 1"
   inkscape:version="0.48.4 r9939"
   sodipodi:docname="cloth_mozi.svg">
  <metadata
     id="metadata3842">
    <rdf:RDF>
      <cc:Work
         rdf:about="">
        <dc:format>image/svg+xml</dc:format>
        <dc:type
           rdf:resource="http://purl.org/dc/dcmitype/StillImage" />
        <dc:title></dc:title>
      </cc:Work>
    </rdf:RDF>
  </metadata>
  <defs
     id="defs3840" />
  <sodipodi:namedview
     pagecolor="#ffffff"
     bordercolor="#666666"
     borderopacity="1"
     objecttolerance="10"
     gridtolerance="10"
     guidetolerance="10"
     inkscape:pageopacity="0"
     inkscape:pageshadow="2"
     inkscape:window-width="723"
     inkscape:window-height="480"
     id="namedview3838"
     showgrid="false"
     inkscape:zoom="2.5371828"
     inkscape:cx="88.167087"
     inkscape:cy="-14.273581"
     inkscape:window-x="185"
     inkscape:window-y="58"
     inkscape:window-maximized="0"
     inkscape:current-layer="svg2" />
  <g
     label="Layer 1"
     groupmode="layer"
     id="layer1"
     transform="translate(-2.6132465,-1.0580801)"
     style="fill:#ffffff;fill-opacity:1">
    <g
       transform="matrix(0.55030869,0,0,0.55030869,-7.0828413,-7.2002919)"
       style="font-size:40px;font-style:normal;font-weight:normal;line-height:125%;letter-spacing:0px;word-spacing:0px;fill:#ffffff;stroke:none;font-family:Sans"
       id="flowRoot2985">
      <path
         d="m 25.516846,50.361094 23.278808,0 0,-12.279053 -23.278808,0 z m 29.359131,-23.079834 -16.719971,0 0,9.000244 12.600098,0 0,18.480224 -1.96045,0 0,-2.64038 -23.278808,0 0,2.64038 -1.96045,0 0,-18.480224 12.600098,0 0,-9.000244 -16.719971,0 0,-1.760254 16.719971,0 0,-6.239014 1.999512,0 0,6.239014 16.719971,0 z"
         style="fill:#ffffff;font-family:'M+ 1c light';-inkscape-font-specification:'M+ 1c light'"
         id="path3006" />
      <path
         d="m 69.196045,46.720957 19.959717,0 0,-3.239746 -19.959717,0 z m 0,4.840088 19.959717,0 0,-3.239746 -19.959717,0 z m 0,1.600342 0,1.879882 -1.959229,0 0,-13.879394 c -1.707365,3.839525 -4.30746,7.199303 -7.800293,10.079346 l -1.080322,-1.599122 c 5.146478,-4.293613 8.333324,-9.413644 9.560547,-15.360107 l -8.560791,0 0,-1.600342 17.199707,0 0,-3.320312 -13.999023,0 0,-1.600342 13.999023,0 0,-3.239746 -15.999756,0 0,-1.639404 10.080567,0 C 70.183174,22.16166 69.409656,21.054891 68.315918,19.561533 l 1.719971,-0.720215 c 1.093736,1.493359 2.013738,2.8402 2.760009,4.040528 l 8.840332,0 c 0.986303,-1.359833 1.853001,-2.693247 2.600098,-4.000245 l 1.799317,0.599366 c -0.506214,0.90742 -1.226021,2.041046 -2.159424,3.400879 l 9.880371,0 0,1.639404 -15.200196,0 0,3.239746 13.199463,0 0,1.600342 -13.199463,0 0,3.320312 16.400147,0 0,1.600342 -25.159912,0 c -0.213229,1.0132 -0.4533,1.946223 -0.720215,2.799072 l 22.080078,0 0,17.960205 -2.000732,0 0,-1.879882 z m 19.959717,-11.279297 0,-3.200684 -19.959717,0 0,3.200684 z"
         style="fill:#ffffff;font-family:'M+ 1c light';-inkscape-font-specification:'M+ 1c light'"
         id="path3008" />
      <path
         d="m 115.87573,40.000986 0,-5.198974 2.56104,0 0,5.198974 z"
         style="fill:#ffffff;font-family:'M+ 1c light';-inkscape-font-specification:'M+ 1c light'"
         id="path3010" />
      <path
         d="m 145.51685,50.361094 23.2788,0 0,-12.279053 -23.2788,0 z m 29.35913,-23.079834 -16.71997,0 0,9.000244 12.60009,0 0,18.480224 -1.96045,0 0,-2.64038 -23.2788,0 0,2.64038 -1.96045,0 0,-18.480224 12.60009,0 0,-9.000244 -16.71997,0 0,-1.760254 16.71997,0 0,-6.239014 1.99952,0 0,6.239014 16.71997,0 z"
         style="fill:#ffffff;font-family:'M+ 1c light';-inkscape-font-specification:'M+ 1c light'"
         id="path3012" />
      <path
         d="m 188.43677,36.481699 0,16.560059 -1.92017,0 0,-15.360108 c -2.05323,2.773449 -4.35995,5.200204 -6.92016,7.280274 l -1.08033,-1.600342 c 5.76009,-4.693184 9.96012,-10.613181 12.6001,-17.76001 l -11.44043,0 0,-1.760254 12.08008,0 c 0.45327,-1.359834 0.91999,-3.09323 1.40015,-5.200195 l 1.96045,0.240478 c -0.3467,1.679719 -0.78697,3.332956 -1.32081,4.959717 l 20.84107,0 0,1.760254 -21.44043,0 c -1.22642,3.333356 -2.71974,6.373311 -4.47998,9.119873 l 9.72046,0 0,-6.199951 1.95923,0 0,6.199951 12.44018,0 0,14.720459 c -3e-5,1.412762 -0.20003,2.272543 -0.59997,2.579346 -0.40002,0.306803 -1.46671,0.460204 -3.20008,0.460205 -0.96031,-10e-7 -2.57368,-0.06673 -4.84009,-0.200195 l 0,-1.760254 c 1.70652,0.106609 3.23972,0.159913 4.59961,0.159912 1.06687,1e-6 1.68698,-0.0533 1.86036,-0.159912 0.1733,-0.106607 0.25997,-0.479735 0.26001,-1.119385 l 0,-12.919922 -10.52002,0 0,19.039307 -1.95923,0 0,-19.039307 z"
         style="fill:#ffffff;font-family:'M+ 1c light';-inkscape-font-specification:'M+ 1c light'"
         id="path3014" />
      <path
         d="m 223.71631,22.601084 0,32.600098 8.1604,0 0,1.600341 -10,0 0,-35.79956 10,0 0,1.599121 z"
         style="fill:#ffffff;font-family:'M+ 1c light';-inkscape-font-specification:'M+ 1c light'"
         id="path3016" />
      <path
         d="m 249.27905,50.481943 c 2.29328,2e-6 4.58657,-0.453286 6.87989,-1.359863 l 0,1.879883 c -2.21275,0.799967 -4.54592,1.199951 -6.99952,1.199951 -3.62631,0 -6.54623,-1.313476 -8.75976,-3.94043 -2.21355,-2.626947 -3.32032,-6.313466 -3.32031,-11.05957 -1e-5,-4.720033 1.05997,-8.400042 3.17993,-11.040039 2.11994,-2.639946 5.0065,-3.959931 8.65967,-3.959961 2.48045,3e-5 4.82745,0.400013 7.04101,1.199951 l 0,1.8396 c -2.32017,-0.879693 -4.62689,-1.319552 -6.92017,-1.31958 -3.09327,2.8e-5 -5.52002,1.173325 -7.28027,3.519897 -1.76026,2.34662 -2.64038,5.599994 -2.64038,9.760132 0,4.133311 0.91329,7.379971 2.73987,9.73999 1.82657,2.360029 4.29991,3.540041 7.42004,3.540039 z"
         style="fill:#ffffff;font-family:'M+ 1c light';-inkscape-font-specification:'M+ 1c light'"
         id="path3018" />
      <path
         d="m 264.41943,51.801523 0,-30 2.00074,0 0,30 z"
         style="fill:#ffffff;font-family:'M+ 1c light';-inkscape-font-specification:'M+ 1c light'"
         id="path3020" />
      <path
         d="m 275.53516,33.421396 c 1.62678,-1.879862 3.90685,-2.819803 6.84021,-2.819824 2.93333,2.1e-5 5.2132,0.939962 6.8396,2.819824 1.62636,1.8799 2.43955,4.539809 2.43957,7.979737 -2e-5,3.439948 -0.81321,6.100061 -2.43957,7.980346 -1.6264,1.880291 -3.90627,2.820435 -6.8396,2.820435 -2.93336,0 -5.21343,-0.940144 -6.84021,-2.820435 -1.6268,-1.880285 -2.44019,-4.540398 -2.44019,-7.980346 0,-3.439928 0.81339,-6.099837 2.44019,-7.979737 z m 1.41967,14.840088 c 1.24023,1.560061 3.04707,2.340089 5.42054,2.340088 2.37344,1e-6 4.18008,-0.780027 5.41992,-2.340088 1.23981,-1.560053 1.85972,-3.846631 1.85974,-6.859741 -2e-5,-3.013089 -0.61993,-5.299667 -1.85974,-6.859741 -1.23984,-1.56004 -3.04648,-2.340068 -5.41992,-2.340088 -2.37347,2e-5 -4.18031,0.780048 -5.42054,2.340088 -1.24023,1.560074 -1.86035,3.846652 -1.86035,6.859741 0,3.01311 0.62012,5.299688 1.86035,6.859741 z"
         style="fill:#ffffff;font-family:'M+ 1c light';-inkscape-font-specification:'M+ 1c light'"
         id="path3022" />
      <path
         d="m 302.2063,24.201426 0,7.600097 7.83935,0 0,1.600342 -7.83935,0 0,12.279053 c -10e-6,2.027185 0.28665,3.354088 0.85998,3.980713 0.57332,0.626629 1.65995,0.939942 3.25989,0.939941 1.14663,1e-6 2.23998,-0.200194 3.28003,-0.600586 l 0,1.680908 c -1.06691,0.34668 -2.25343,0.52002 -3.55957,0.52002 -2.21355,0 -3.73373,-0.460002 -4.56055,-1.380005 -0.82683,-0.920001 -1.24024,-2.59338 -1.24023,-5.020142 l 0,-12.399902 -4.71924,0 0,-1.600342 4.71924,0 0,-7.600097 z"
         style="fill:#ffffff;font-family:'M+ 1c light';-inkscape-font-specification:'M+ 1c light'"
         id="path3024" />
      <path
         d="m 318.41235,21.801523 0,12.960205 0.0793,0 c 1.91975,-2.773417 4.2932,-4.160135 7.12036,-4.160156 2.39989,2.1e-5 4.14651,0.673442 5.23987,2.020264 1.09332,1.34686 1.63999,3.606786 1.64001,6.779785 l 0,12.399902 -1.92016,0 0,-12.120361 c -2e-5,-2.932928 -0.41343,-4.899478 -1.24024,-5.899658 -0.82684,-1.000144 -2.20012,-1.500225 -4.11987,-1.500244 -1.52019,1.9e-5 -3.03346,0.733458 -4.5398,2.200317 -1.50635,1.466894 -2.25952,2.946995 -2.25952,4.440308 l 0,12.879638 -1.92016,0 0,-30 z"
         style="fill:#ffffff;font-family:'M+ 1c light';-inkscape-font-specification:'M+ 1c light'"
         id="path3026" />
      <path
         d="m 347.11719,22.601084 -8.15918,0 0,-1.599121 10,0 0,35.79956 -10,0 0,-1.600341 8.15918,0 z"
         style="fill:#ffffff;font-family:'M+ 1c light';-inkscape-font-specification:'M+ 1c light'"
         id="path3028" />
    </g>
  </g>
</svg>
