<?xml version="1.0" encoding="UTF-8" standalone="no"?>
<!-- Created with Inkscape (http://www.inkscape.org/) -->

<svg
   xmlns:dc="http://purl.org/dc/elements/1.1/"
   xmlns:cc="http://creativecommons.org/ns#"
   xmlns:rdf="http://www.w3.org/1999/02/22-rdf-syntax-ns#"
   xmlns:svg="http://www.w3.org/2000/svg"
   xmlns="http://www.w3.org/2000/svg"
   xmlns:sodipodi="http://sodipodi.sourceforge.net/DTD/sodipodi-0.dtd"
   xmlns:inkscape="http://www.inkscape.org/namespaces/inkscape"
   width="254"
   height="24"
   id="svg2"
   version="1.1"
   docname="New document 1"
   inkscape:version="0.48.4 r9939"
   sodipodi:docname="Combustibles_mozi.svg">
  <metadata
     id="metadata3842">
    <rdf:RDF>
      <cc:Work
         rdf:about="">
        <dc:format>image/svg+xml</dc:format>
        <dc:type
           rdf:resource="http://purl.org/dc/dcmitype/StillImage" />
        <dc:title></dc:title>
      </cc:Work>
    </rdf:RDF>
  </metadata>
  <defs
     id="defs3840" />
  <sodipodi:namedview
     pagecolor="#ffffff"
     bordercolor="#666666"
     borderopacity="1"
     objecttolerance="10"
     gridtolerance="10"
     guidetolerance="10"
     inkscape:pageopacity="0"
     inkscape:pageshadow="2"
     inkscape:window-width="1003"
     inkscape:window-height="557"
     id="namedview3838"
     showgrid="false"
     inkscape:zoom="2.5371828"
     inkscape:cx="133.78417"
     inkscape:cy="-14.273581"
     inkscape:window-x="185"
     inkscape:window-y="58"
     inkscape:window-maximized="0"
     inkscape:current-layer="layer1" />
  <g
     label="Layer 1"
     groupmode="layer"
     id="layer1"
     transform="translate(-2.6132465,-1.0580801)"
     style="fill:#ffffff;fill-opacity:1">
    <g
       transform="matrix(0.57531763,0,0,0.57531763,-8.2824568,-8.6208377)"
       style="font-size:40px;font-style:normal;font-weight:normal;line-height:125%;letter-spacing:0px;word-spacing:0px;fill:#ffffff;stroke:none;font-family:Sans"
       id="flowRoot2985">
      <path
         d="m 26.075928,44.12208 0,3.199463 -1.959229,0 0,-18.239746 17.039795,0 0,15.040283 z m 0,-1.600342 13.1604,0 0,-11.800537 -13.1604,0 z m 22.559814,7.319336 0,-26.759033 -29.039306,0 0,-1.760254 35.119628,0 0,1.760254 -4.119873,0 0,26.679687 c -3.3e-5,1.946615 -0.240104,3.153279 -0.720214,3.619995 -0.480176,0.466714 -1.680126,0.700071 -3.599854,0.700074 -0.533069,-3e-6 -2.599717,-0.06673 -6.199951,-0.200196 l -0.04028,-1.679687 c 3.546523,0.133463 5.546439,0.200195 5.999756,0.200195 1.254038,0 2.000905,-0.120036 2.2406,-0.360107 0.239633,-0.240072 0.359466,-0.973714 0.359497,-2.200928 z"
         style="fill:#ffffff;font-family:'M+ 1c light';-inkscape-font-specification:'M+ 1c light'"
         id="path3006" />
      <path
         d="m 58.716309,38.60206 c 0.960284,-3.894025 1.440426,-8.320697 1.440429,-13.280029 l 1.8396,0.07935 c -5e-6,5.227072 -0.493169,9.787207 -1.479492,13.68042 z m 27.480468,-18.320312 1.879883,0 0,5.720215 c -3.1e-5,0.07978 0.0065,0.226262 0.01953,0.439453 0.01299,0.213241 0.0195,0.360132 0.01953,0.440674 l 7.000732,0 0,1.71997 -6.879883,0 c 0.639617,5.359719 3.159553,10.079359 7.559815,14.158936 l -1.199951,1.480713 c -3.706903,-3.466786 -6.20039,-7.453598 -7.480469,-11.960449 -1.546253,4.907241 -4.30626,8.907481 -8.28003,12.000732 l -1.31958,-1.400146 c 4.986954,-3.867175 7.826714,-8.627099 8.519288,-14.279786 l -3.719483,0 c -1.253279,3.225932 -2.966534,6.272397 -5.13977,9.139405 -2.173277,2.867036 -4.606746,5.273853 -7.300415,7.220459 l -0.999756,-1.560059 c 2.159817,-1.547028 4.200016,-3.48062 6.120605,-5.800781 -1.493343,-1.386703 -2.906916,-2.639957 -4.240722,-3.759766 l 1.159667,-1.279297 c 0.907374,0.746275 2.294092,1.972674 4.160157,3.6792 0.799947,-1.066065 1.62677,-2.345767 2.480468,-3.839112 -1.653665,-1.493306 -3.120542,-2.746967 -4.400634,-3.760986 l 1.120605,-1.31958 c 0.879701,0.693383 2.252991,1.866884 4.119873,3.520508 0.906553,-1.839984 1.62636,-3.760148 2.159424,-5.760498 l -6.279297,0 c -1.280127,2.613142 -2.880061,5.039898 -4.799805,7.280273 l -1.160888,-1.040039 c -0.666516,2.053241 -1.453054,4.013281 -2.359619,5.880127 l -1.479493,-0.640869 c -0.05372,0.693374 -0.160327,1.706963 -0.319824,3.040771 1.813142,3.146168 3.413075,6.399339 4.799805,9.759522 l -1.44043,0.960693 c -1.146657,-2.747391 -2.413339,-5.414218 -3.800049,-8.000488 -1.01319,5.200199 -2.626551,9.21346 -4.840087,12.039795 L 58.59668,53.001474 c 3.546544,-4.640296 5.319817,-12.067046 5.319824,-22.280273 l 0,-10.639648 1.799316,0 0,10.639648 c -8e-6,1.653665 -0.06633,3.413917 -0.198974,5.280762 1.652822,-3.439922 2.865793,-7.360003 3.638916,-11.760254 l 1.760254,0.360107 c -0.426446,2.373072 -0.91961,4.479597 -1.479493,6.31958 2.799465,-3.519669 4.866113,-7.306287 6.199952,-11.359863 l 1.71997,0.360107 c -0.346699,1.119823 -0.786966,2.306345 -1.3208,3.559571 l 7.401123,0 0,1.600342 c -0.02688,0.13349 -0.07368,0.320257 -0.140381,0.560302 -0.06676,0.240098 -0.126776,0.460028 -0.180054,0.65979 -0.05333,0.199814 -0.106837,0.393295 -0.160522,0.580445 l 3.200683,0 c -2.9e-5,-0.08054 0.0067,-0.207495 0.02014,-0.38086 0.0134,-0.173314 0.02011,-0.29986 0.02014,-0.379638 z m 3.239746,0.439453 1.400147,-0.999756 c 1.493292,1.919789 2.759973,3.666614 3.800049,5.240479 l -1.44043,1.040039 C 91.702928,23.761594 90.449674,22.001342 89.436523,20.721201 z M 68.556396,53.960947 c 1.626778,-2.746581 3.080227,-5.773108 4.360352,-9.07959 l 1.719971,0.760498 c -1.280127,3.386234 -2.733576,6.479492 -4.360352,9.279785 z m 9.959717,0.92041 c -0.240092,-3.093261 -0.626648,-6.18652 -1.159668,-9.279785 l 1.799317,-0.360107 c 0.560687,3.360192 0.96067,6.480306 1.199951,9.360351 z m 7.559815,-0.07935 c -0.746285,-3.093262 -1.65286,-6.186928 -2.719727,-9.281006 l 1.760254,-0.559082 c 1.04001,3.012699 1.960012,6.119385 2.76001,9.320068 z m 7.559814,-0.12085 c -1.306187,-3.359375 -2.746209,-6.492509 -4.320068,-9.399414 l 1.719971,-0.720215 c 1.547002,2.959803 2.987023,6.066489 4.320068,9.320068 z"
         style="fill:#ffffff;font-family:'M+ 1c light';-inkscape-font-specification:'M+ 1c light'"
         id="path3008" />
      <path
         d="m 123.63574,29.841074 1.521,-0.839844 c 1.25322,1.973491 2.54635,4.173603 3.87939,6.600342 l -1.56006,0.799561 c -1.35989,-2.55939 -2.64,-4.746074 -3.84033,-6.560059 z m 5.28076,-1.599121 1.56006,-0.839844 c 1.35983,2.106142 2.67982,4.359151 3.95996,6.759033 l -1.56006,0.800782 c -1.68053,-3.01349 -3.00052,-5.253478 -3.95996,-6.719971 z m -23.1604,-3.720703 0,-1.799317 22.39991,0 0,1.799317 z m 24.88037,26.679687 c -1.57311,0.480144 -3.66641,0.88033 -6.2799,1.200562 -2.61355,0.32023 -5.04051,0.480345 -7.28089,0.480347 -4.55974,-2e-6 -8.18625,-0.746664 -10.87951,-2.239991 -2.69329,-1.493324 -4.03992,-3.480016 -4.03992,-5.960083 0,-2.480052 1.85343,-5.52021 5.5603,-9.120483 l 1.35987,1.199951 c -3.30649,3.17384 -4.95973,5.760711 -4.95972,7.76062 -10e-6,1.999924 1.16658,3.593144 3.49976,4.779663 2.33315,1.186525 5.48623,1.779786 9.45922,1.779785 2.10692,10e-7 4.43378,-0.166625 6.98059,-0.499877 2.54677,-0.333251 4.6067,-0.72652 6.17981,-1.17981 z"
         style="fill:#ffffff;font-family:'M+ 1c light';-inkscape-font-specification:'M+ 1c light'"
         id="path3010" />
      <path
         d="m 148.11572,52.481455 c -1.75945,-10e-7 -3.5258,-1.026611 -5.29907,-3.079834 -1.77328,-2.053218 -2.65991,-4.213047 -2.65991,-6.479492 0,-2.133778 1.28662,-4.02729 3.85986,-5.680542 2.57323,-1.653223 5.95295,-2.533146 10.13916,-2.639771 0.26691,-1.78709 0.68032,-5.280332 1.24024,-10.479736 l -12.39991,0 0,-1.719971 14.32007,0 0,1.719971 c -0.50702,4.639509 -0.93386,8.146178 -1.28052,10.520019 3.49363,0.132667 6.92055,0.732439 10.28077,1.799317 0.10658,-1.946597 0.15988,-5.559875 0.15991,-10.839844 l 1.87988,0 c -3e-5,4.559755 -0.0802,8.399676 -0.24048,11.519776 2.48044,0.933444 4.81401,2.093518 7.00074,3.480224 l -0.88013,1.560059 c -2.10697,-1.306955 -4.18705,-2.360421 -6.24024,-3.160401 -0.18639,2.506521 -0.46634,4.566456 -0.83984,6.17981 -0.37356,1.613368 -0.92695,2.973433 -1.66016,4.0802 -0.73326,1.106772 -1.53323,1.980185 -2.3999,2.620239 -0.86672,0.640055 -2.06016,1.33321 -3.58032,2.079468 l -0.95947,-1.599121 c 1.83998,-0.906575 3.21327,-1.779987 4.11987,-2.620239 0.90655,-0.840248 1.66644,-2.153723 2.27966,-3.94043 0.61317,-1.786695 1.02679,-4.279978 1.24085,-7.479858 -3.38707,-1.146633 -6.85387,-1.786688 -10.40039,-1.920166 -0.66653,4.373383 -1.39976,7.760221 -2.19971,10.160522 -0.79998,2.400312 -1.61338,3.987021 -2.44019,4.760132 -0.82683,0.773112 -1.84042,1.159667 -3.04077,1.159668 z m 5.7605,-16.119385 c -3.54656,0.106624 -6.39995,0.813207 -8.56018,2.119751 -2.16024,1.306571 -3.24036,2.786672 -3.24036,4.440308 0,1.732592 0.69336,3.445643 2.08008,5.13916 1.38671,1.693524 2.7067,2.540284 3.95996,2.540283 1.17349,1e-6 2.21353,-1.026609 3.12012,-3.079834 0.90656,-2.053216 1.78669,-5.773102 2.64038,-11.159668 z"
         style="fill:#ffffff;font-family:'M+ 1c light';-inkscape-font-specification:'M+ 1c light'"
         id="path3012" />
      <path
         d="m 183.71631,22.601084 0,32.600098 8.1604,0 0,1.600341 -10,0 0,-35.79956 10,0 0,1.599121 z"
         style="fill:#ffffff;font-family:'M+ 1c light';-inkscape-font-specification:'M+ 1c light'"
         id="path3014" />
      <path
         d="m 209.27905,50.481943 c 2.29328,2e-6 4.58657,-0.453286 6.87989,-1.359863 l 0,1.879883 c -2.21275,0.799967 -4.54592,1.199951 -6.99952,1.199951 -3.62631,0 -6.54623,-1.313476 -8.75976,-3.94043 -2.21355,-2.626947 -3.32032,-6.313466 -3.32031,-11.05957 -1e-5,-4.720033 1.05997,-8.400042 3.17993,-11.040039 2.11994,-2.639946 5.0065,-3.959931 8.65967,-3.959961 2.48045,3e-5 4.82745,0.400013 7.04101,1.199951 l 0,1.8396 c -2.32017,-0.879693 -4.62689,-1.319552 -6.92017,-1.31958 -3.09327,2.8e-5 -5.52002,1.173325 -7.28027,3.519897 -1.76026,2.34662 -2.64038,5.599994 -2.64038,9.760132 0,4.133311 0.91329,7.379971 2.73987,9.73999 1.82657,2.360029 4.29991,3.540041 7.42004,3.540039 z"
         style="fill:#ffffff;font-family:'M+ 1c light';-inkscape-font-specification:'M+ 1c light'"
         id="path3016" />
      <path
         d="m 223.66016,33.421396 c 1.62678,-1.879862 3.90685,-2.819803 6.84021,-2.819824 2.93333,2.1e-5 5.2132,0.939962 6.8396,2.819824 1.62636,1.8799 2.43955,4.539809 2.43957,7.979737 -2e-5,3.439948 -0.81321,6.100061 -2.43957,7.980346 -1.6264,1.880291 -3.90627,2.820435 -6.8396,2.820435 -2.93336,0 -5.21343,-0.940144 -6.84021,-2.820435 -1.6268,-1.880285 -2.44019,-4.540398 -2.44019,-7.980346 0,-3.439928 0.81339,-6.099837 2.44019,-7.979737 z m 1.41967,14.840088 c 1.24023,1.560061 3.04707,2.340089 5.42054,2.340088 2.37344,1e-6 4.18008,-0.780027 5.41992,-2.340088 1.23981,-1.560053 1.85972,-3.846631 1.85974,-6.859741 -2e-5,-3.013089 -0.61993,-5.299667 -1.85974,-6.859741 -1.23984,-1.56004 -3.04648,-2.340068 -5.41992,-2.340088 -2.37347,2e-5 -4.18031,0.780048 -5.42054,2.340088 -1.24023,1.560074 -1.86035,3.846652 -1.86035,6.859741 0,3.01311 0.62012,5.299688 1.86035,6.859741 z"
         style="fill:#ffffff;font-family:'M+ 1c light';-inkscape-font-specification:'M+ 1c light'"
         id="path3018" />
      <path
         d="m 263.41113,32.201914 c -1.17352,2e-5 -2.33359,0.646585 -3.48022,1.939697 -1.14667,1.293148 -1.71999,2.672948 -1.71997,4.139404 l 0,13.520508 -1.92017,0 0,-12.800293 c -1e-5,-2.53335 -0.3532,-4.299909 -1.05957,-5.299682 -0.70639,-0.999737 -1.85955,-1.499614 -3.45947,-1.499634 -1.17351,2e-5 -2.33359,0.646585 -3.48023,1.939697 -1.14665,1.293148 -1.71997,2.672948 -1.71997,4.139404 l 0,13.520508 -1.92016,0 0,-20.79956 1.8396,0 0.0403,3.239746 0.0806,0 c 1.49332,-2.426738 3.38663,-3.640116 5.67993,-3.640137 1.41275,2.1e-5 2.55247,0.333273 3.41919,0.999756 0.86668,0.666523 1.51365,1.733417 1.94092,3.200684 l 0.0793,0 c 1.41356,-2.800274 3.44033,-4.200419 6.08032,-4.20044 2.08006,2.1e-5 3.60675,0.633362 4.58008,1.900025 0.97328,1.266701 1.45993,3.300186 1.45996,6.100463 l 0,13.199463 -1.92016,0 0,-12.800293 c -3e-5,-2.506495 -0.34671,-4.26634 -1.04004,-5.279541 -0.69339,-1.013164 -1.85346,-1.519755 -3.48023,-1.519775 z"
         style="fill:#ffffff;font-family:'M+ 1c light';-inkscape-font-specification:'M+ 1c light'"
         id="path3020" />
      <path
         d="m 278.02173,21.801523 0,12.399903 0.0793,0 c 0.77311,-1.119773 1.77978,-1.999696 3.02002,-2.639771 1.24023,-0.640034 2.59358,-0.960062 4.06006,-0.960083 2.66682,2.1e-5 4.73347,0.933248 6.19995,2.799683 1.46645,1.866471 2.19969,4.533095 2.19971,7.999878 -2e-5,3.387051 -0.75319,6.03394 -2.25952,7.940674 -1.50637,1.906738 -3.55308,2.860107 -6.14014,2.860107 -3.01352,0 -5.38697,-1.253661 -7.12036,-3.760986 l -0.0793,0 -0.0403,3.360595 -1.8396,0 0,-30 z m 13.59985,19.59961 c -2e-5,-6.132796 -2.26686,-9.199199 -6.80054,-9.199219 -1.76026,2e-5 -3.33354,0.626646 -4.71984,1.879883 -1.38632,1.253271 -2.07948,2.65301 -2.07947,4.199218 l 0,6.240235 c -10e-6,1.573899 0.70658,2.980758 2.11975,4.220581 1.41316,1.239829 2.97301,1.859742 4.67956,1.859741 2.18668,1e-6 3.86677,-0.780027 5.04029,-2.340088 1.17348,-1.560053 1.76023,-3.846835 1.76025,-6.860351 z"
         style="fill:#ffffff;font-family:'M+ 1c light';-inkscape-font-specification:'M+ 1c light'"
         id="path3022" />
      <path
         d="m 312.31616,31.001963 1.91895,0 0,20.79956 -1.8396,0 -0.0403,-3.68042 -0.0793,0 c -0.82684,1.306969 -1.86688,2.313845 -3.12012,3.02063 -1.25327,0.706787 -2.60011,1.060181 -4.04053,1.060181 -2.2933,0 -3.9799,-0.626831 -5.05981,-1.880493 -1.07992,-1.25366 -1.61988,-3.333532 -1.61987,-6.239624 l 0,-13.079834 1.87988,0 0,12.879638 c -10e-6,2.586269 0.42663,4.352828 1.27991,5.299683 0.85326,0.94686 2.16002,1.420289 3.92028,1.420288 1.62678,1e-6 3.1669,-0.686643 4.62037,-2.059936 1.45343,-1.373287 2.18016,-2.886754 2.18017,-4.540406 z"
         style="fill:#ffffff;font-family:'M+ 1c light';-inkscape-font-specification:'M+ 1c light'"
         id="path3024" />
      <path
         d="m 327.23071,32.201914 c -1.7334,2e-5 -3.06682,0.326557 -4.00024,0.979614 -0.93344,0.653094 -1.40015,1.566383 -1.40015,2.739868 0,1.06691 0.37333,1.940322 1.12,2.62024 0.74665,0.679944 2.12015,1.233125 4.12048,1.659546 2.69286,0.586762 4.59268,1.360076 5.69946,2.319946 1.10676,0.959888 1.66014,2.293504 1.66016,4.000854 -2e-5,1.759444 -0.66001,3.145958 -1.97998,4.159546 -1.32,1.013591 -3.16672,1.520386 -5.54016,1.520386 -2.37346,0 -4.6401,-0.493571 -6.79993,-1.480713 l 0,-1.719971 c 2.15983,1.066897 4.37337,1.600343 6.64063,1.600342 1.83999,1e-6 3.25987,-0.360106 4.25964,-1.080322 0.99974,-0.720212 1.49962,-1.719967 1.49963,-2.999268 -10e-6,-1.066888 -0.39328,-1.98038 -1.17981,-2.740478 -0.78655,-0.760083 -2.28659,-1.380199 -4.50012,-1.860352 -2.47966,-0.53303 -4.25293,-1.259551 -5.31982,-2.179565 -1.0669,-0.919991 -1.60035,-2.140082 -1.60034,-3.660279 -1e-5,-1.67967 0.63333,-3.01288 1.90002,-3.999633 1.26668,-0.986715 3.03364,-1.480082 5.3009,-1.480103 2.29329,2.1e-5 4.50642,0.373149 6.63941,1.119385 l 0,1.719971 c -2.2396,-0.82599 -4.41286,-1.238994 -6.51978,-1.239014 z"
         style="fill:#ffffff;font-family:'M+ 1c light';-inkscape-font-specification:'M+ 1c light'"
         id="path3026" />
      <path
         d="m 345.72192,24.201426 0,7.600097 7.83936,0 0,1.600342 -7.83936,0 0,12.279053 c 0,2.027185 0.28666,3.354088 0.85999,3.980713 0.57331,0.626629 1.65994,0.939942 3.25989,0.939941 1.14663,1e-6 2.23997,-0.200194 3.28003,-0.600586 l 0,1.680908 c -1.06691,0.34668 -2.25344,0.52002 -3.55957,0.52002 -2.21356,0 -3.73374,-0.460002 -4.56055,-1.380005 -0.82683,-0.920001 -1.24024,-2.59338 -1.24024,-5.020142 l 0,-12.399902 -4.71923,0 0,-1.600342 4.71923,0 0,-7.600097 z"
         style="fill:#ffffff;font-family:'M+ 1c light';-inkscape-font-specification:'M+ 1c light'"
         id="path3028" />
      <path
         d="m 361.60693,51.801523 0,-20.79956 2.00074,0 0,20.79956 z m 0,-25.880127 0,-4.119873 2.00074,0 0,4.119873 z"
         style="fill:#ffffff;font-family:'M+ 1c light';-inkscape-font-specification:'M+ 1c light'"
         id="path3030" />
      <path
         d="m 373.80298,21.801523 0,12.399903 0.0793,0 c 0.77311,-1.119773 1.77978,-1.999696 3.02002,-2.639771 1.24023,-0.640034 2.59358,-0.960062 4.06006,-0.960083 2.66682,2.1e-5 4.73347,0.933248 6.19995,2.799683 1.46645,1.866471 2.19969,4.533095 2.19971,7.999878 -2e-5,3.387051 -0.75319,6.03394 -2.25952,7.940674 -1.50637,1.906738 -3.55308,2.860107 -6.14014,2.860107 -3.01352,0 -5.38697,-1.253661 -7.12036,-3.760986 l -0.0793,0 -0.0403,3.360595 -1.8396,0 0,-30 z m 13.59985,19.59961 c -2e-5,-6.132796 -2.26686,-9.199199 -6.80054,-9.199219 -1.76026,2e-5 -3.33354,0.626646 -4.71984,1.879883 -1.38632,1.253271 -2.07948,2.65301 -2.07947,4.199218 l 0,6.240235 c -10e-6,1.573899 0.70658,2.980758 2.11975,4.220581 1.41316,1.239829 2.97301,1.859742 4.67956,1.859741 2.18668,1e-6 3.86677,-0.780027 5.04029,-2.340088 1.17348,-1.560053 1.76023,-3.846835 1.76025,-6.860351 z"
         style="fill:#ffffff;font-family:'M+ 1c light';-inkscape-font-specification:'M+ 1c light'"
         id="path3032" />
      <path
         d="m 396.21631,51.801523 0,-30 2.00073,0 0,30 z"
         style="fill:#ffffff;font-family:'M+ 1c light';-inkscape-font-specification:'M+ 1c light'"
         id="path3034" />
      <path
         d="m 406.85229,41.801523 c 0.0797,5.893559 2.71973,8.840333 7.91993,8.840332 2.05321,10e-7 4.07957,-0.426837 6.0791,-1.280517 l 0,1.71997 c -2.15985,0.747071 -4.2265,1.120606 -6.19995,1.120606 -3.19988,0 -5.62643,-0.906779 -7.27967,-2.720337 -1.65324,-1.813554 -2.47986,-4.507033 -2.47985,-8.080444 -10e-6,-3.86636 0.84004,-6.632877 2.52014,-8.299561 1.68009,-1.666646 3.84012,-2.499979 6.4801,-2.5 5.46629,2.1e-5 8.19944,3.493263 8.19946,10.479736 l 0,0.720215 z m 0,-1.560058 13.35938,0 c -0.0798,-5.386539 -2.18629,-8.079815 -6.31958,-8.079834 -4.42709,1.9e-5 -6.77369,2.693295 -7.0398,8.079834 z"
         style="fill:#ffffff;font-family:'M+ 1c light';-inkscape-font-specification:'M+ 1c light'"
         id="path3036" />
      <path
         d="m 433.87134,32.201914 c -1.73341,2e-5 -3.06682,0.326557 -4.00025,0.979614 -0.93343,0.653094 -1.40015,1.566383 -1.40014,2.739868 -1e-5,1.06691 0.37332,1.940322 1.11999,2.62024 0.74666,0.679944 2.12015,1.233125 4.12049,1.659546 2.69285,0.586762 4.59267,1.360076 5.69946,2.319946 1.10675,0.959888 1.66014,2.293504 1.66015,4.000854 -10e-6,1.759444 -0.66,3.145958 -1.97998,4.159546 -1.32,1.013591 -3.16671,1.520386 -5.54016,1.520386 -2.37346,0 -4.6401,-0.493571 -6.79992,-1.480713 l 0,-1.719971 c 2.15982,1.066897 4.37336,1.600343 6.64062,1.600342 1.84,1e-6 3.25988,-0.360106 4.25965,-1.080322 0.99974,-0.720212 1.49961,-1.719967 1.49963,-2.999268 -2e-5,-1.066888 -0.39329,-1.98038 -1.17981,-2.740478 -0.78655,-0.760083 -2.28659,-1.380199 -4.50012,-1.860352 -2.47966,-0.53303 -4.25294,-1.259551 -5.31983,-2.179565 -1.06689,-0.919991 -1.60034,-2.140082 -1.60034,-3.660279 0,-1.67967 0.63334,-3.01288 1.90003,-3.999633 1.26667,-0.986715 3.03364,-1.480082 5.3009,-1.480103 2.29328,2.1e-5 4.50641,0.373149 6.6394,1.119385 l 0,1.719971 c -2.23959,-0.82599 -4.41285,-1.238994 -6.51977,-1.239014 z"
         style="fill:#ffffff;font-family:'M+ 1c light';-inkscape-font-specification:'M+ 1c light'"
         id="path3038" />
      <path
         d="m 455.24219,22.601084 -8.15918,0 0,-1.599121 10,0 0,35.79956 -10,0 0,-1.600341 8.15918,0 z"
         style="fill:#ffffff;font-family:'M+ 1c light';-inkscape-font-specification:'M+ 1c light'"
         id="path3040" />
    </g>
  </g>
</svg>
