<?xml version="1.0" encoding="UTF-8" standalone="no"?>
<!-- Created with Inkscape (http://www.inkscape.org/) -->

<svg
   xmlns:dc="http://purl.org/dc/elements/1.1/"
   xmlns:cc="http://creativecommons.org/ns#"
   xmlns:rdf="http://www.w3.org/1999/02/22-rdf-syntax-ns#"
   xmlns:svg="http://www.w3.org/2000/svg"
   xmlns="http://www.w3.org/2000/svg"
   xmlns:sodipodi="http://sodipodi.sourceforge.net/DTD/sodipodi-0.dtd"
   xmlns:inkscape="http://www.inkscape.org/namespaces/inkscape"
   width="212"
   height="24"
   id="svg2"
   version="1.1"
   docname="New document 1"
   inkscape:version="0.48.4 r9939"
   sodipodi:docname="kamipack_mozi.svg">
  <metadata
     id="metadata3842">
    <rdf:RDF>
      <cc:Work
         rdf:about="">
        <dc:format>image/svg+xml</dc:format>
        <dc:type
           rdf:resource="http://purl.org/dc/dcmitype/StillImage" />
        <dc:title></dc:title>
      </cc:Work>
    </rdf:RDF>
  </metadata>
  <defs
     id="defs3840" />
  <sodipodi:namedview
     pagecolor="#ffffff"
     bordercolor="#666666"
     borderopacity="1"
     objecttolerance="10"
     gridtolerance="10"
     guidetolerance="10"
     inkscape:pageopacity="0"
     inkscape:pageshadow="2"
     inkscape:window-width="723"
     inkscape:window-height="480"
     id="namedview3838"
     showgrid="false"
     inkscape:zoom="2.5371828"
     inkscape:cx="138.33362"
     inkscape:cy="-14.273581"
     inkscape:window-x="185"
     inkscape:window-y="58"
     inkscape:window-maximized="0"
     inkscape:current-layer="layer1" />
  <g
     label="Layer 1"
     groupmode="layer"
     id="layer1"
     transform="translate(-2.6132465,-1.0580801)"
     style="fill:#ffffff;fill-opacity:1">
    <g
       transform="matrix(0.57531763,0,0,0.57531763,-7.2697517,-8.6208377)"
       style="font-size:40px;font-style:normal;font-weight:normal;line-height:125%;letter-spacing:0px;word-spacing:0px;fill:#ffffff;stroke:none;font-family:Sans"
       id="flowRoot2985">
      <path
         d="m 45.875732,33.921885 c -0.292997,-3.093241 -0.466336,-6.68007 -0.520019,-10.760498 -1.999538,0.29381 -4.305851,0.54731 -6.918945,0.760498 l 0,10 z m 9.000245,0 0,1.799316 -6.879883,0 c 0.400359,3.280449 0.927092,6.22051 1.5802,8.82019 0.653043,2.599696 1.286384,4.519657 1.900024,5.759888 0.613572,1.240235 1.133591,1.860351 1.560059,1.860352 0.506148,-10e-7 0.946008,-2.600096 1.31958,-7.800293 l 1.800537,0.440674 c -0.187213,2.53337 -0.440712,4.533287 -0.760498,5.999755 -0.319862,1.466471 -0.666541,2.446288 -1.040039,2.939454 -0.373572,0.493161 -0.826859,0.739743 -1.359863,0.739746 -1.333043,-3e-6 -2.653028,-1.679892 -3.959961,-5.039673 -1.306997,-3.359776 -2.293731,-7.933136 -2.960205,-13.720093 l -7.63916,0 0,15.159912 c 2.346167,-0.799966 4.839248,-1.853024 7.479248,-3.15918 l 0.479736,1.560059 c -4.906437,2.399903 -9.613057,4.119871 -14.119873,5.159912 l -0.360108,-1.680908 c 1.573877,-0.372722 3.094058,-0.785726 4.560547,-1.239014 l 0,-28.959961 0,-0.240478 c 6.266251,-0.453258 12.066212,-1.239797 17.399903,-2.359619 l 0.40039,1.679687 c -2.34704,0.507029 -4.693636,0.933867 -7.039795,1.280518 0.05287,4.319686 0.239228,7.986267 0.559082,10.999756 z M 30.71582,30.881113 32.435791,30.401377 c 1.146631,2.986672 2.080061,6.240249 2.800293,9.760742 l -1.719971,0.358887 c -0.240087,-1.11978 -0.413427,-1.866442 -0.520019,-2.239991 l -5.119629,0.280762 0,16.560059 -1.879883,0 0,-16.44043 -7.000732,0.400391 -0.07935,-1.719971 3.15918,-0.159912 c 0.454096,-0.559881 1.214186,-1.533187 2.280273,-2.919922 -1.786301,-3.093241 -3.492842,-5.91998 -5.119629,-8.480225 l 1.280518,-1.440429 c 0.07975,0.133491 0.319617,0.526964 0.719604,1.18042 0.399979,0.653508 0.720007,1.16661 0.960083,1.539306 1.49332,-2.319309 2.973218,-4.87912 4.439697,-7.679443 l 1.679688,0.760498 c -1.573089,2.959827 -3.266203,5.826442 -5.079346,8.599854 0.480137,0.773134 1.240227,2.079692 2.280274,3.919677 2.212717,-3.066384 4.265938,-6.212946 6.159668,-9.439697 l 1.600341,0.839844 c -2.507337,4.373395 -5.454112,8.70648 -8.840332,12.999267 0.906568,-0.05288 2.259919,-0.126124 4.060059,-0.219726 1.800117,-0.09357 3.153469,-0.166815 4.060059,-0.219727 -0.613622,-2.186669 -1.227228,-4.106833 -1.840821,-5.760498 z M 19.076416,52.441172 c 1.119789,-3.546547 1.853024,-7.293288 2.199707,-11.240235 l 1.800537,0.161133 c -0.320643,3.786628 -1.080734,7.613121 -2.280273,11.479492 z m 14.719238,-2.600098 -1.759033,0.159912 c -0.266942,-2.959793 -0.733657,-5.906161 -1.400146,-8.839111 l 1.71997,-0.319824 c 0.693344,3.093269 1.17308,6.092941 1.439209,8.999023 z"
         style="fill:#ffffff;font-family:'M+ 1c light';-inkscape-font-specification:'M+ 1c light'"
         id="path3196" />
      <path
         d="m 84.675781,32.321543 1.879883,-0.600586 c 2.400684,5.840672 4.600796,12.640795 6.600342,20.400391 l -2.039795,0.440673 C 89.115853,44.828467 86.969046,38.081648 84.675781,32.321543 z m -15.79956,-8.360596 1.999511,0.161133 c -1.33302,9.919451 -4.466155,19.305835 -9.399414,28.15918 l -1.800537,-0.880127 c 4.800611,-8.640128 7.867422,-17.786847 9.20044,-27.440186 z m 19.799804,2.680664 c 0.64043,-0.640436 0.960661,-1.413954 0.960694,-2.320556 -3.3e-5,-0.906548 -0.32006,-1.673148 -0.960083,-2.299805 -0.640086,-0.626597 -1.413401,-0.939911 -2.319947,-0.939942 -0.906603,3.1e-5 -1.679918,0.313345 -2.319946,0.939942 -0.640081,0.626657 -0.960109,1.393257 -0.960083,2.299805 -2.6e-5,0.906602 0.320002,1.679916 0.960083,2.319946 0.640028,0.64008 1.413343,0.960107 2.319946,0.960083 0.906546,2.4e-5 1.679657,-0.3198 2.319336,-0.959473 z m 1.080323,-5.699463 c 0.933397,0.946482 1.400112,2.072986 1.400146,3.379517 -3.4e-5,1.306585 -0.466749,2.433293 -1.400146,3.380127 -0.933463,0.946882 -2.066885,1.420311 -3.400269,1.420288 -1.333442,2.3e-5 -2.466864,-0.473406 -3.400268,-1.420288 -0.933456,-0.946834 -1.400171,-2.073542 -1.400147,-3.380127 -2.4e-5,-1.306531 0.466691,-2.433238 1.400147,-3.380127 0.933404,-0.946827 2.066826,-1.420256 3.400268,-1.420288 1.333384,3.2e-5 2.466806,0.473664 3.400269,1.420898 z"
         style="fill:#ffffff;font-family:'M+ 1c light';-inkscape-font-specification:'M+ 1c light'"
         id="path3198" />
      <path
         d="m 129.63672,29.241709 c -0.32067,7.679865 -1.96089,13.286549 -4.92066,16.820068 -2.95982,3.533531 -7.93296,5.846761 -14.91943,6.939697 l -0.36011,-1.760253 c 3.36018,-0.559895 6.14012,-1.326496 8.33985,-2.299805 2.19968,-0.973304 4.03297,-2.339879 5.49988,-4.099732 1.46685,-1.759838 2.54025,-3.886504 3.22021,-6.380004 0.6799,-2.493474 1.10003,-5.59365 1.26038,-9.300538 z m -24.80103,1.479492 1.80054,-0.439453 c 0.74706,2.479674 1.70694,6.012792 2.87964,10.599365 l -1.8396,0.400391 c -0.9603,-3.92007 -1.90715,-7.440168 -2.84058,-10.560303 z m 8.88062,-1.240234 1.80054,-0.439453 c 0.9863,3.466816 1.94618,7.186701 2.87963,11.159668 l -1.80053,0.40039 c -0.95949,-4.026677 -1.91937,-7.733542 -2.87964,-11.120605 z"
         style="fill:#ffffff;font-family:'M+ 1c light';-inkscape-font-specification:'M+ 1c light'"
         id="path3200" />
      <path
         d="m 168.3562,26.601328 -16.96045,0 c -1.49334,4.773783 -4.15976,8.90708 -7.99927,12.399902 l -1.3208,-1.240234 c 4.96012,-4.559715 7.82714,-10.319393 8.60108,-17.279053 l 1.91894,0.159912 c -0.15952,1.386749 -0.39918,2.773466 -0.71899,4.160157 l 18.479,0 0,0.520019 c -3e-5,8.693052 -2.09333,15.20631 -6.2799,19.539795 -4.18663,4.333499 -10.81321,6.8868 -19.87977,7.659912 l -0.27954,-1.800537 c 8.45295,-0.77311 14.59288,-3.033036 18.4198,-6.779785 3.82688,-3.746733 5.83351,-9.526757 6.0199,-17.340088 z"
         style="fill:#ffffff;font-family:'M+ 1c light';-inkscape-font-specification:'M+ 1c light'"
         id="path3202" />
      <path
         d="m 183.71631,22.601084 0,32.600098 8.1604,0 0,1.600341 -10,0 0,-35.79956 10,0 0,1.599121 z"
         style="fill:#ffffff;font-family:'M+ 1c light';-inkscape-font-specification:'M+ 1c light'"
         id="path3204" />
      <path
         d="m 217.59937,36.801523 c -3e-5,-4.400208 -0.99327,-7.646868 -2.97974,-9.73999 -1.98651,-2.093072 -5.05983,-3.13962 -9.21997,-3.139648 -1.41358,2.8e-5 -2.92034,0.159939 -4.52027,0.479736 l 0,25.599365 c 1.59993,0.32064 3.10669,0.480959 4.52027,0.480957 4.18618,2e-6 7.26601,-1.100054 9.2395,-3.300171 1.97345,-2.200107 2.96018,-5.660186 2.96021,-10.380249 z m 1.96044,0 c -2e-5,10.266932 -4.72007,15.400391 -14.16015,15.400391 -2.37387,0 -4.54713,-0.213623 -6.51978,-0.640869 l 0,-28.719483 c 2.02636,-0.426403 4.19962,-0.639618 6.51978,-0.639648 9.44008,3e-5 14.16013,4.866561 14.16015,14.599609 z"
         style="fill:#ffffff;font-family:'M+ 1c light';-inkscape-font-specification:'M+ 1c light'"
         id="path3206" />
      <path
         d="m 226.37744,31.001963 0,5.239258 0.0794,0 c 0.79996,-1.626774 1.99991,-2.90668 3.59985,-3.839722 1.59993,-0.933004 3.45336,-1.399515 5.5603,-1.399536 l 0.79956,0 0,1.71997 -0.79956,0 c -2.69369,2e-5 -4.90052,0.846576 -6.62048,2.539673 -1.71998,1.69313 -2.57996,3.912977 -2.57996,6.659546 l 0,9.880371 -1.99951,0 0,-20.79956 z"
         style="fill:#ffffff;font-family:'M+ 1c light';-inkscape-font-specification:'M+ 1c light'"
         id="path3208" />
      <path
         d="m 243.63818,51.801523 0,-20.79956 2.00074,0 0,20.79956 z m 0,-25.880127 0,-4.119873 2.00074,0 0,4.119873 z"
         style="fill:#ffffff;font-family:'M+ 1c light';-inkscape-font-specification:'M+ 1c light'"
         id="path3210" />
      <path
         d="m 255.55347,31.001963 0.0403,3.679199 0.0806,0 c 1.91975,-2.719707 4.30622,-4.079569 7.15942,-4.07959 2.42674,2.1e-5 4.18008,0.666728 5.26001,2.000122 1.0799,1.333433 1.61985,3.600073 1.61987,6.799927 l 0,12.399902 -1.87988,0 0,-12.199707 c -2e-5,-2.88003 -0.42665,-4.833357 -1.27991,-5.859985 -0.85328,-1.026592 -2.22678,-1.539897 -4.12048,-1.539917 -1.51938,2e-5 -3.03244,0.733254 -4.53918,2.199707 -1.50677,1.466487 -2.26014,2.932957 -2.26014,4.399414 l 0,13.000488 -1.92016,0 0,-20.79956 z"
         style="fill:#ffffff;font-family:'M+ 1c light';-inkscape-font-specification:'M+ 1c light'"
         id="path3212" />
      <path
         d="m 277.90454,21.801523 0,18.559571 0.0806,0 11.40014,-9.359131 2.55982,0 -12.23999,10 12.3999,10.79956 -2.51953,0 -11.60034,-10.159912 -0.0806,0 0,10.159912 -1.95923,0 0,-30 z"
         style="fill:#ffffff;font-family:'M+ 1c light';-inkscape-font-specification:'M+ 1c light'"
         id="path3214" />
      <path
         d="m 326.37866,43.401865 c -2e-5,2.586269 -0.86672,4.699507 -2.6001,6.339722 -1.73341,1.640218 -4.64031,2.460327 -8.7207,2.460327 -2.58627,0 -4.90601,-0.213623 -6.95923,-0.640869 l 0,-28.719483 c 2.13297,-0.426403 4.31966,-0.639618 6.56006,-0.639648 6.82616,3e-5 10.23924,2.306749 10.23926,6.920166 -2e-5,1.679708 -0.53326,3.099588 -1.59973,4.259643 -1.06651,1.160093 -2.54661,1.966773 -4.44031,2.420044 l 0,0.07935 c 2.37384,0.400406 4.22077,1.287246 5.54077,2.660523 1.31997,1.373303 1.97996,2.993377 1.97998,4.860229 z m -1.96045,-0.12085 c -2e-5,-1.999501 -0.87343,-3.579292 -2.62024,-4.739379 -1.74684,-1.160061 -4.39352,-1.740098 -7.94006,-1.740113 l -3.75977,0 0,13.239746 c 1.62679,0.293784 3.28003,0.440676 4.95972,0.440674 6.24022,2e-6 9.36033,-2.400305 9.36035,-7.200928 z m -14.32007,-8.159179 3.75977,0 c 3.0135,1.6e-5 5.29356,-0.500064 6.84021,-1.500244 1.54661,-1.000144 2.31993,-2.433655 2.31995,-4.300537 -2e-5,-3.599421 -2.78648,-5.399142 -8.35938,-5.39917 -1.52019,2.8e-5 -3.04037,0.146512 -4.56055,0.439453 z"
         style="fill:#ffffff;font-family:'M+ 1c light';-inkscape-font-specification:'M+ 1c light'"
         id="path3216" />
      <path
         d="m 332.25391,33.421396 c 1.62678,-1.879862 3.90685,-2.819803 6.84021,-2.819824 2.93333,2.1e-5 5.2132,0.939962 6.8396,2.819824 1.62636,1.8799 2.43955,4.539809 2.43957,7.979737 -2e-5,3.439948 -0.81321,6.100061 -2.43957,7.980346 -1.6264,1.880291 -3.90627,2.820435 -6.8396,2.820435 -2.93336,0 -5.21343,-0.940144 -6.84021,-2.820435 -1.6268,-1.880285 -2.44019,-4.540398 -2.44019,-7.980346 0,-3.439928 0.81339,-6.099837 2.44019,-7.979737 z m 1.41967,14.840088 c 1.24023,1.560061 3.04707,2.340089 5.42054,2.340088 2.37344,1e-6 4.18008,-0.780027 5.41992,-2.340088 1.23981,-1.560053 1.85972,-3.846631 1.85974,-6.859741 -2e-5,-3.013089 -0.61993,-5.299667 -1.85974,-6.859741 -1.23984,-1.56004 -3.04648,-2.340068 -5.41992,-2.340088 -2.37347,2e-5 -4.18031,0.780048 -5.42054,2.340088 -1.24023,1.560074 -1.86035,3.846652 -1.86035,6.859741 0,3.01311 0.62012,5.299688 1.86035,6.859741 z"
         style="fill:#ffffff;font-family:'M+ 1c light';-inkscape-font-specification:'M+ 1c light'"
         id="path3218" />
      <path
         d="m 354.64526,31.001963 6.11939,8.919677 0.0806,0 6.08033,-8.919677 2.15942,0 -7.19971,10.239258 7.39991,10.560302 -2.19971,0 -6.3208,-9.239502 -0.0794,0 -6.28051,9.239502 -2.15943,0 7.3999,-10.560302 -7.1997,-10.239258 z"
         style="fill:#ffffff;font-family:'M+ 1c light';-inkscape-font-specification:'M+ 1c light'"
         id="path3220" />
      <path
         d="m 383.05469,22.601084 -8.15918,0 0,-1.599121 10,0 0,35.79956 -10,0 0,-1.600341 8.15918,0 z"
         style="fill:#ffffff;font-family:'M+ 1c light';-inkscape-font-specification:'M+ 1c light'"
         id="path3222" />
    </g>
  </g>
</svg>
