<?xml version="1.0" encoding="UTF-8" standalone="no"?>
<!-- Created with Inkscape (http://www.inkscape.org/) -->

<svg
   xmlns:dc="http://purl.org/dc/elements/1.1/"
   xmlns:cc="http://creativecommons.org/ns#"
   xmlns:rdf="http://www.w3.org/1999/02/22-rdf-syntax-ns#"
   xmlns:svg="http://www.w3.org/2000/svg"
   xmlns="http://www.w3.org/2000/svg"
   xmlns:sodipodi="http://sodipodi.sourceforge.net/DTD/sodipodi-0.dtd"
   xmlns:inkscape="http://www.inkscape.org/namespaces/inkscape"
   width="175"
   height="24"
   id="svg2"
   version="1.1"
   docname="New document 1"
   inkscape:version="0.48.4 r9939"
   sodipodi:docname="newspaper_mozi.svg">
  <metadata
     id="metadata3842">
    <rdf:RDF>
      <cc:Work
         rdf:about="">
        <dc:format>image/svg+xml</dc:format>
        <dc:type
           rdf:resource="http://purl.org/dc/dcmitype/StillImage" />
        <dc:title></dc:title>
      </cc:Work>
    </rdf:RDF>
  </metadata>
  <defs
     id="defs3840" />
  <sodipodi:namedview
     pagecolor="#ffffff"
     bordercolor="#666666"
     borderopacity="1"
     objecttolerance="10"
     gridtolerance="10"
     guidetolerance="10"
     inkscape:pageopacity="0"
     inkscape:pageshadow="2"
     inkscape:window-width="723"
     inkscape:window-height="480"
     id="namedview3838"
     showgrid="false"
     inkscape:zoom="2.5371828"
     inkscape:cx="88.167087"
     inkscape:cy="-14.273581"
     inkscape:window-x="185"
     inkscape:window-y="58"
     inkscape:window-maximized="0"
     inkscape:current-layer="layer1" />
  <g
     label="Layer 1"
     groupmode="layer"
     id="layer1"
     transform="translate(-2.6132465,-1.0580801)"
     style="fill:#ffffff;fill-opacity:1">
    <g
       transform="matrix(0.52986799,0,0,0.52986799,-6.3039263,-8.0527535)"
       style="font-size:40px;font-style:normal;font-weight:normal;line-height:125%;letter-spacing:0px;word-spacing:0px;fill:#ffffff;stroke:none;font-family:Sans"
       id="flowRoot2985">
      <path
         d="m 26.035645,32.961191 4.320068,0 c 1.120591,-2.34617 2.027573,-4.986141 2.720947,-7.919922 l -9.08081,0 c 0.693351,2.293319 1.373282,4.93329 2.039795,7.919922 z m 15.520019,-0.999756 14.080811,0 0,1.800538 -4.840088,0 0,20.718994 -1.920166,0 0,-20.718994 -7.399903,0 c -0.266951,5.092786 -0.800398,9.152637 -1.600341,12.179565 -0.79999,3.02694 -1.99994,5.780233 -3.599854,8.259888 l -1.519775,-1.199952 c 1.919739,-2.986651 3.252949,-6.513259 3.999633,-10.579834 0.746642,-4.066555 1.119973,-10.620097 1.119996,-19.660644 5.600557,-0.426403 10.320605,-1.359426 14.160156,-2.799072 l 0.520019,1.759033 c -3.573438,1.306995 -7.853219,2.200549 -12.839355,2.680664 -2.5e-5,2.000351 -0.05374,4.520287 -0.161133,7.559814 z m -3.798828,2.680664 -8.520508,0 0,4.039307 8.120117,0 0,1.679688 -7.680664,0 c 2.346991,2.213551 4.507226,4.466966 6.480713,6.760254 l -1.199951,1.199951 c -1.599951,-1.999507 -3.506688,-4.066155 -5.720215,-6.199951 l 0,12.760009 -1.960449,0 0,-12.559814 c -1.840015,3.253587 -4.320074,6.22681 -7.440186,8.919678 l -1.119384,-1.439209 c 3.519689,-2.960607 6.132804,-6.107577 7.839355,-9.440918 l -7.119141,0 0,-1.679688 7.839356,0 0,-4.039307 -7.839356,0 0,-1.680908 4.799805,0 C 23.676426,30.427847 22.983067,27.787875 22.15625,25.041269 l -2.399902,0 0,-1.71997 7.519531,0 0,-4.239502 1.960449,0 0,4.239502 8.55957,0 0,1.71997 -2.919921,0 c -0.612811,2.746606 -1.49253,5.386578 -2.639161,7.919922 l 5.52002,0 z"
         style="fill:#ffffff;font-family:'M+ 1c light';-inkscape-font-specification:'M+ 1c light'"
         id="path3380" />
      <path
         d="m 62.396729,26.521982 11.079101,0 0,-4.160156 -11.079101,0 z m 0,7.679444 0,20.440673 -1.96045,0 0,-33.920898 14.959717,0 0,13.480225 z m 29.519042,-6.119385 -11.479492,0 0,4.519043 11.479492,0 z m 0,-1.560059 0,-4.160156 -11.479492,0 0,4.160156 z m -9.320068,23.6792 c -6.053079,0.666504 -11.599542,1.079915 -16.639404,1.240234 l -0.04028,-1.519776 c 1.653635,-0.05371 2.920317,-0.107013 3.800048,-0.159912 l 0,-11.560058 -3.439941,0 0,-1.519776 21.760254,0 0,1.519776 -3.599854,0 0,15.639648 -1.84082,0 z m 0,-3.640137 -10.999756,0 0,3.081054 c 3.360171,-0.187172 7.026753,-0.493975 10.999756,-0.92041 z m 0,-4.199219 -10.999756,0 0,2.800293 10.999756,0 z m 0,-1.400146 0,-2.76001 -10.999756,0 0,2.76001 z m -9.119873,-8.360596 0,-4.519043 -11.079101,0 0,4.519043 z m 16.480713,21.680908 c -0.586784,-2e-6 -2.05366,-0.06673 -4.400635,-0.200195 l -0.03906,-1.719971 c 2.212697,0.133463 3.612435,0.200195 4.199218,0.200195 1.093717,0 1.733771,-0.113322 1.920166,-0.339965 0.186326,-0.226645 0.279507,-0.967 0.279541,-2.22107 l 0,-15.79956 -13.399658,0 0,-13.480225 15.360108,0 0,29.240723 c -3.7e-5,1.919759 -0.219967,3.119709 -0.65979,3.599853 -0.439896,0.480141 -1.526524,0.720213 -3.259888,0.720215 z"
         style="fill:#ffffff;font-family:'M+ 1c light';-inkscape-font-specification:'M+ 1c light'"
         id="path3382" />
      <path
         d="m 103.71631,22.601084 0,32.600098 8.1604,0 0,1.600341 -10,0 0,-35.79956 10,0 0,1.599121 z"
         style="fill:#ffffff;font-family:'M+ 1c light';-inkscape-font-specification:'M+ 1c light'"
         id="path3384" />
      <path
         d="m 118.87988,51.801523 0,-29.200439 2.31934,0 15.7605,26.160889 0.0793,0 0,-26.160889 2.00073,0 0,29.200439 -2.32055,0 -15.75928,-26.159668 -0.0806,0 0,26.159668 z"
         style="fill:#ffffff;font-family:'M+ 1c light';-inkscape-font-specification:'M+ 1c light'"
         id="path3386" />
      <path
         d="m 146.22729,41.801523 c 0.0797,5.893559 2.71973,8.840333 7.91993,8.840332 2.05321,10e-7 4.07957,-0.426837 6.0791,-1.280517 l 0,1.71997 c -2.15985,0.747071 -4.2265,1.120606 -6.19995,1.120606 -3.19988,0 -5.62643,-0.906779 -7.27967,-2.720337 -1.65324,-1.813554 -2.47986,-4.507033 -2.47985,-8.080444 -1e-5,-3.86636 0.84004,-6.632877 2.52014,-8.299561 1.68009,-1.666646 3.84012,-2.499979 6.4801,-2.5 5.46629,2.1e-5 8.19944,3.493263 8.19946,10.479736 l 0,0.720215 z m 0,-1.560058 13.35938,0 c -0.0798,-5.386539 -2.18629,-8.079815 -6.31958,-8.079834 -4.42709,1.9e-5 -6.77369,2.693295 -7.0398,8.079834 z"
         style="fill:#ffffff;font-family:'M+ 1c light';-inkscape-font-specification:'M+ 1c light'"
         id="path3388" />
      <path
         d="m 167.40649,31.001963 5.23926,19.07959 0.0806,0 5.07934,-19.07959 2.68067,0 5.07934,19.07959 0.0806,0 5.24048,-19.07959 2.03979,0 -6.08032,20.79956 -2.6001,0 -5.07934,-18.959961 -0.0806,0 -5.07934,18.959961 -2.6001,0 -6.08032,-20.79956 z"
         style="fill:#ffffff;font-family:'M+ 1c light';-inkscape-font-specification:'M+ 1c light'"
         id="path3390" />
      <path
         d="m 204.65259,32.201914 c -1.73341,2e-5 -3.06682,0.326557 -4.00025,0.979614 -0.93343,0.653094 -1.40015,1.566383 -1.40014,2.739868 -10e-6,1.06691 0.37332,1.940322 1.11999,2.62024 0.74666,0.679944 2.12015,1.233125 4.12049,1.659546 2.69285,0.586762 4.59267,1.360076 5.69946,2.319946 1.10675,0.959888 1.66014,2.293504 1.66015,4.000854 -1e-5,1.759444 -0.66,3.145958 -1.97998,4.159546 -1.32,1.013591 -3.16671,1.520386 -5.54016,1.520386 -2.37346,0 -4.6401,-0.493571 -6.79992,-1.480713 l 0,-1.719971 c 2.15982,1.066897 4.37336,1.600343 6.64062,1.600342 1.84,1e-6 3.25988,-0.360106 4.25965,-1.080322 0.99974,-0.720212 1.49961,-1.719967 1.49963,-2.999268 -2e-5,-1.066888 -0.39329,-1.98038 -1.17981,-2.740478 -0.78655,-0.760083 -2.28659,-1.380199 -4.50012,-1.860352 -2.47966,-0.53303 -4.25294,-1.259551 -5.31983,-2.179565 -1.06689,-0.919991 -1.60034,-2.140082 -1.60034,-3.660279 0,-1.67967 0.63334,-3.01288 1.90003,-3.999633 1.26667,-0.986715 3.03364,-1.480082 5.3009,-1.480103 2.29328,2.1e-5 4.50641,0.373149 6.6394,1.119385 l 0,1.719971 c -2.23959,-0.82599 -4.41285,-1.238994 -6.51977,-1.239014 z"
         style="fill:#ffffff;font-family:'M+ 1c light';-inkscape-font-specification:'M+ 1c light'"
         id="path3392" />
      <path
         d="m 219.30347,31.001963 0,3.359375 0.0806,0 c 1.62679,-2.506491 3.99983,-3.759745 7.11914,-3.759766 2.66682,2.1e-5 4.73367,0.933248 6.20057,2.799683 1.46685,1.866471 2.20029,4.533095 2.20031,7.999878 -2e-5,3.387051 -0.75339,6.03394 -2.26013,7.940674 -1.50677,1.906738 -3.55368,2.860107 -6.14075,2.860107 -3.11931,0 -5.4659,-1.213378 -7.03979,-3.640137 l -0.0794,0 0,12.039795 -1.92016,0 0,-29.599609 z m 13.68042,10.39917 c -2e-5,-6.132796 -2.26687,-9.199199 -6.80054,-9.199219 -1.81316,2e-5 -3.39967,0.653298 -4.75952,1.959839 -1.35987,1.306575 -2.0398,2.826553 -2.0398,4.559936 l 0,5.360108 c 0,1.786301 0.68664,3.319503 2.05994,4.599609 1.37328,1.280113 2.95307,1.920167 4.73938,1.920166 2.18667,1e-6 3.86676,-0.786741 5.04028,-2.360229 1.17349,-1.573482 1.76024,-3.853549 1.76026,-6.84021 z"
         style="fill:#ffffff;font-family:'M+ 1c light';-inkscape-font-specification:'M+ 1c light'"
         id="path3394" />
      <path
         d="m 252.88379,38.801035 0,-1.519775 c -2e-5,-1.839991 -0.40671,-3.133324 -1.22009,-3.880005 -0.81341,-0.746645 -2.24672,-1.119976 -4.29993,-1.119995 -2.50652,1.9e-5 -4.95972,0.49359 -7.35962,1.480713 l 0,-1.840821 c 2.31933,-0.879699 4.77253,-1.319559 7.35962,-1.31958 2.74657,2.1e-5 4.67324,0.526754 5.78003,1.5802 1.10675,1.053486 1.66014,2.886776 1.66016,5.499878 l 0,14.119873 -1.8396,0 0,-4.07959 -0.0806,0 c -0.72023,1.412764 -1.7737,2.512616 -3.1604,3.299561 -1.38673,0.786947 -2.95981,1.18042 -4.71924,1.18042 -1.84001,0 -3.30669,-0.553385 -4.40002,-1.660156 -1.09335,-1.106769 -1.64002,-2.593584 -1.64002,-4.46045 0,-0.986321 0.17985,-1.886182 0.53955,-2.699585 0.3597,-0.813385 0.94625,-1.58019 1.75965,-2.300415 0.81339,-0.720203 1.98689,-1.280302 3.5205,-1.680297 1.5336,-0.399971 3.36689,-0.599963 5.49988,-0.599976 z m 0,1.480713 -2.6001,0 c -6.26628,1.1e-5 -9.39942,1.879892 -9.39941,5.639648 -1e-5,1.413579 0.40649,2.533573 1.21948,3.359986 0.81298,0.826417 1.89981,1.239625 3.2605,1.239624 2.07925,10e-7 3.85232,-0.72652 5.31921,-2.179566 1.46686,-1.453038 2.2003,-3.326205 2.20032,-5.619507 z"
         style="fill:#ffffff;font-family:'M+ 1c light';-inkscape-font-specification:'M+ 1c light'"
         id="path3396" />
      <path
         d="m 262.66284,31.001963 0,3.359375 0.0806,0 c 1.62678,-2.506491 3.99983,-3.759745 7.11914,-3.759766 2.66681,2.1e-5 4.73367,0.933248 6.20056,2.799683 1.46686,1.866471 2.2003,4.533095 2.20032,7.999878 -2e-5,3.387051 -0.7534,6.03394 -2.26013,7.940674 -1.50678,1.906738 -3.55369,2.860107 -6.14075,2.860107 -3.11931,0 -5.46591,-1.213378 -7.0398,-3.640137 l -0.0793,0 0,12.039795 -1.92017,0 0,-29.599609 z m 13.68042,10.39917 c -2e-5,-6.132796 -2.26686,-9.199199 -6.80054,-9.199219 -1.81316,2e-5 -3.39966,0.653298 -4.75952,1.959839 -1.35987,1.306575 -2.0398,2.826553 -2.03979,4.559936 l 0,5.360108 c -10e-6,1.786301 0.68664,3.319503 2.05993,4.599609 1.37329,1.280113 2.95308,1.920167 4.73938,1.920166 2.18668,1e-6 3.86677,-0.786741 5.04029,-2.360229 1.17348,-1.573482 1.76023,-3.853549 1.76025,-6.84021 z"
         style="fill:#ffffff;font-family:'M+ 1c light';-inkscape-font-specification:'M+ 1c light'"
         id="path3398" />
      <path
         d="m 283.88354,41.801523 c 0.0797,5.893559 2.71973,8.840333 7.91993,8.840332 2.05321,10e-7 4.07957,-0.426837 6.0791,-1.280517 l 0,1.71997 c -2.15985,0.747071 -4.2265,1.120606 -6.19995,1.120606 -3.19988,0 -5.62643,-0.906779 -7.27967,-2.720337 -1.65324,-1.813554 -2.47986,-4.507033 -2.47985,-8.080444 -10e-6,-3.86636 0.84004,-6.632877 2.52014,-8.299561 1.68009,-1.666646 3.84012,-2.499979 6.4801,-2.5 5.46629,2.1e-5 8.19944,3.493263 8.19946,10.479736 l 0,0.720215 z m 0,-1.560058 13.35938,0 c -0.0798,-5.386539 -2.18629,-8.079815 -6.31958,-8.079834 -4.42709,1.9e-5 -6.77369,2.693295 -7.0398,8.079834 z"
         style="fill:#ffffff;font-family:'M+ 1c light';-inkscape-font-specification:'M+ 1c light'"
         id="path3400" />
      <path
         d="m 306.14307,31.001963 0,5.239258 0.0793,0 c 0.79996,-1.626774 1.99991,-2.90668 3.59986,-3.839722 1.59992,-0.933004 3.45335,-1.399515 5.5603,-1.399536 l 0.79956,0 0,1.71997 -0.79956,0 c -2.6937,2e-5 -4.90052,0.846576 -6.62049,2.539673 -1.71997,1.69313 -2.57996,3.912977 -2.57995,6.659546 l 0,9.880371 -1.99951,0 0,-20.79956 z"
         style="fill:#ffffff;font-family:'M+ 1c light';-inkscape-font-specification:'M+ 1c light'"
         id="path3402" />
      <path
         d="m 330.16406,22.601084 -8.15918,0 0,-1.599121 10,0 0,35.79956 -10,0 0,-1.600341 8.15918,0 z"
         style="fill:#ffffff;font-family:'M+ 1c light';-inkscape-font-specification:'M+ 1c light'"
         id="path3404" />
    </g>
  </g>
</svg>
