<?xml version="1.0" encoding="UTF-8" standalone="no"?>
<!-- Created with Inkscape (http://www.inkscape.org/) -->

<svg
   xmlns:dc="http://purl.org/dc/elements/1.1/"
   xmlns:cc="http://creativecommons.org/ns#"
   xmlns:rdf="http://www.w3.org/1999/02/22-rdf-syntax-ns#"
   xmlns:svg="http://www.w3.org/2000/svg"
   xmlns="http://www.w3.org/2000/svg"
   xmlns:sodipodi="http://sodipodi.sourceforge.net/DTD/sodipodi-0.dtd"
   xmlns:inkscape="http://www.inkscape.org/namespaces/inkscape"
   width="277"
   height="24"
   id="svg2"
   version="1.1"
   docname="New document 1"
   inkscape:version="0.48.4 r9939"
   sodipodi:docname="paper_mozi.svg">
  <metadata
     id="metadata3842">
    <rdf:RDF>
      <cc:Work
         rdf:about="">
        <dc:format>image/svg+xml</dc:format>
        <dc:type
           rdf:resource="http://purl.org/dc/dcmitype/StillImage" />
        <dc:title></dc:title>
      </cc:Work>
    </rdf:RDF>
  </metadata>
  <defs
     id="defs3840" />
  <sodipodi:namedview
     pagecolor="#ffffff"
     bordercolor="#666666"
     borderopacity="1"
     objecttolerance="10"
     gridtolerance="10"
     guidetolerance="10"
     inkscape:pageopacity="0"
     inkscape:pageshadow="2"
     inkscape:window-width="723"
     inkscape:window-height="480"
     id="namedview3838"
     showgrid="false"
     inkscape:zoom="2.5371828"
     inkscape:cx="103.18798"
     inkscape:cy="-14.273581"
     inkscape:window-x="185"
     inkscape:window-y="58"
     inkscape:window-maximized="0"
     inkscape:current-layer="layer1" />
  <g
     label="Layer 1"
     groupmode="layer"
     id="layer1"
     transform="translate(-2.6132465,-1.0580801)"
     style="fill:#ffffff;fill-opacity:1">
    <g
       transform="matrix(0.52083345,0,0,0.52083345,-6.0305648,-7.7137834)"
       style="font-size:40px;font-style:normal;font-weight:normal;line-height:125%;letter-spacing:0px;word-spacing:0px;fill:#ffffff;stroke:none;font-family:Sans"
       id="flowRoot2985">
      <path
         d="m 46.436035,33.321299 0,-6.8396 -7.199707,0 0,6.8396 z m 0,8.840332 0,-7.160645 -7.199707,0 0,7.160645 z m 0,1.679687 -7.199707,0 0,7.320557 7.199707,0 z m -21.400146,-24.559326 1.879882,0 c -9e-6,1.759471 -0.02646,3.026153 -0.07935,3.800049 l 5.159912,0 0,9.559326 c -1.5e-5,0.480162 0.05329,0.780251 0.159912,0.900269 0.106593,0.120054 0.426417,0.180071 0.959473,0.180053 0.480126,1.8e-5 0.806868,-0.133242 0.980224,-0.39978 0.173323,-0.266501 0.300276,-0.91978 0.38086,-1.959839 l -1.361084,-1.240234 c 3.120098,-3.120093 5.400369,-6.90671 6.84082,-11.359863 l 1.8396,0.360107 c -0.639673,2.026398 -1.412784,3.892851 -2.319336,5.599365 l 7.279052,0 c 0.906545,-1.813122 1.680063,-3.799611 2.320557,-5.959472 l 1.8396,0.360107 c -0.559929,1.866079 -1.279737,3.732532 -2.159424,5.599365 l 6.400146,0 0,1.760254 -6.879883,0 0,6.8396 6.159668,0 0,1.679687 -6.159668,0 0,7.160645 6.159668,0 0,1.679687 -6.159668,0 0,7.320557 7.399903,0 0,1.719971 -16.44043,0 0,2.319336 -1.960449,0 0,-27.039795 c -0.213236,0.293805 -0.53306,0.707217 -0.959473,1.240234 -0.05373,1.866882 -0.173765,3.21352 -0.360107,4.039917 -0.186379,0.826433 -0.486265,1.366391 -0.899658,1.619873 -0.413429,0.253516 -1.113705,0.380265 -2.10083,0.380249 -1.146662,1.6e-5 -1.899835,-0.160099 -2.259522,-0.480347 -0.359714,-0.320214 -0.539564,-1.053652 -0.539551,-2.200317 l 0,-7.999268 -3.439941,0 c -0.293792,3.360213 -0.98064,5.98696 -2.060547,7.880249 -1.079922,1.893328 -2.740076,3.506486 -4.980469,4.839478 l -0.959472,-1.679688 c 1.919755,-1.14663 3.346349,-2.540061 4.279785,-4.180297 0.933424,-1.640197 1.533602,-3.926775 1.800537,-6.859742 l -5.159912,0 0,-1.679687 5.279541,0 c 0.07974,-1.173473 0.119621,-2.440155 0.119629,-3.800049 z m 1.680908,14.519043 1.959228,0 0,4.880371 6.96045,0 0,1.679688 -6.480713,0 c 2.613917,2.613941 4.840885,5.094 6.680908,7.440185 l -1.199951,1.280518 c -1.680517,-2.240392 -3.680841,-4.56054 -6.000977,-6.960449 l 0,12.760009 -1.879883,0 0,-12.359619 c -1.65284,3.066413 -4.025884,5.972904 -7.11914,8.719483 l -1.120606,-1.439209 c 3.360184,-2.906897 5.893548,-6.053866 7.600098,-9.440918 l -6.879883,0 0,-1.679688 7.480469,0 z"
         style="fill:#ffffff;font-family:'M+ 1c light';-inkscape-font-specification:'M+ 1c light'"
         id="path3133" />
      <path
         d="m 62.316162,53.481211 0,1.84082 -1.799316,0 0,-11.881103 11.239013,0 0,10.040283 z m 0,-1.719971 7.719727,0 0,-6.639404 -7.719727,0 z m 32.280274,-27.440185 0,1.760253 -9.639893,0 0,8.079834 8.839111,0 0,1.719971 -19.279785,0 0,-1.719971 8.480225,0 0,-8.079834 -9.160157,0 0,-1.760253 9.160157,0 0,-5 1.960449,0 0,5 z M 72.075684,51.801523 c 1.440413,-2.98665 2.533755,-6.506748 3.280029,-10.560302 l 1.719971,0.40039 c -0.719421,4.133307 -1.839211,7.77344 -3.359375,10.92041 z m 19.240722,-4.759521 c -0.133497,2.239586 -0.313551,3.826091 -0.540161,4.759521 -0.226677,0.93343 -0.553418,1.566771 -0.980224,1.900025 -0.426872,0.333249 -1.16031,0.539752 -2.200318,0.619507 -0.826039,0.08056 -1.825793,0.120847 -2.999267,0.120849 -1.173529,-2e-6 -2.187119,-0.04029 -3.040772,-0.120849 -1.013207,-0.07975 -1.666486,-0.306196 -1.959839,-0.679322 -0.293398,-0.373129 -0.440085,-1.213176 -0.440063,-2.520141 l 0,-11.040039 1.960449,0 0,10.520019 c -2.4e-5,0.933431 0.05999,1.49353 0.180054,1.680298 0.120011,0.186767 0.473404,0.306599 1.06018,0.359497 0.852839,0.05371 1.639378,0.08057 2.359619,0.08057 0.666476,0 1.453015,-0.02686 2.35962,-0.08057 0.667287,-0.0529 1.127491,-0.179444 1.380615,-0.379639 0.253061,-0.200195 0.459563,-0.673624 0.619507,-1.420288 0.15988,-0.746661 0.306567,-2.066444 0.440063,-3.95935 z m -10.679931,-9.000244 1.040039,-1.320801 c 2.533339,1.84002 4.853079,3.907075 6.959228,6.201172 l -1.199951,1.239013 c -2.212756,-2.373036 -4.479192,-4.412829 -6.799316,-6.119384 z m 9.599609,3.55957 1.679687,-0.639648 c 1.547002,3.519701 2.853967,7.079675 3.920899,10.679931 l -1.719971,0.560303 C 93.076624,48.628512 91.783087,45.094987 90.236084,41.601328 z M 60.516846,22.68165 l 0,-1.679687 11.199951,0 0,1.679687 z m -1.160889,5.560303 0,-1.719971 13.439941,0 0,1.719971 z m 1.400147,5.599365 0,-1.679687 10.79956,0 0,1.679687 z m 0,5.639649 0,-1.679688 10.79956,0 0,1.679688 z"
         style="fill:#ffffff;font-family:'M+ 1c light';-inkscape-font-specification:'M+ 1c light'"
         id="path3135" />
      <path
         d="m 115.87573,40.000986 0,-5.198974 2.56104,0 0,5.198974 z"
         style="fill:#ffffff;font-family:'M+ 1c light';-inkscape-font-specification:'M+ 1c light'"
         id="path3137" />
      <path
         d="m 166.43604,33.321299 0,-6.8396 -7.19971,0 0,6.8396 z m 0,8.840332 0,-7.160645 -7.19971,0 0,7.160645 z m 0,1.679687 -7.19971,0 0,7.320557 7.19971,0 z m -21.40015,-24.559326 1.87988,0 c -1e-5,1.759471 -0.0265,3.026153 -0.0793,3.800049 l 5.15991,0 0,9.559326 c -2e-5,0.480162 0.0533,0.780251 0.15991,0.900269 0.10659,0.120054 0.42642,0.180071 0.95947,0.180053 0.48013,1.8e-5 0.80687,-0.133242 0.98023,-0.39978 0.17332,-0.266501 0.30027,-0.91978 0.38086,-1.959839 l -1.36109,-1.240234 c 3.1201,-3.120093 5.40037,-6.90671 6.84082,-11.359863 l 1.8396,0.360107 c -0.63967,2.026398 -1.41278,3.892851 -2.31933,5.599365 l 7.27905,0 c 0.90654,-1.813122 1.68006,-3.799611 2.32056,-5.959472 l 1.8396,0.360107 c -0.55993,1.866079 -1.27974,3.732532 -2.15943,5.599365 l 6.40015,0 0,1.760254 -6.87988,0 0,6.8396 6.15966,0 0,1.679687 -6.15966,0 0,7.160645 6.15966,0 0,1.679687 -6.15966,0 0,7.320557 7.3999,0 0,1.719971 -16.44043,0 0,2.319336 -1.96045,0 0,-27.039795 c -0.21324,0.293805 -0.53306,0.707217 -0.95947,1.240234 -0.0537,1.866882 -0.17377,3.21352 -0.36011,4.039917 -0.18638,0.826433 -0.48627,1.366391 -0.89966,1.619873 -0.41343,0.253516 -1.1137,0.380265 -2.10083,0.380249 -1.14666,1.6e-5 -1.89983,-0.160099 -2.25952,-0.480347 -0.35971,-0.320214 -0.53956,-1.053652 -0.53955,-2.200317 l 0,-7.999268 -3.43994,0 c -0.29379,3.360213 -0.98064,5.98696 -2.06055,7.880249 -1.07992,1.893328 -2.74008,3.506486 -4.98047,4.839478 l -0.95947,-1.679688 c 1.91975,-1.14663 3.34635,-2.540061 4.27978,-4.180297 0.93343,-1.640197 1.53361,-3.926775 1.80054,-6.859742 l -5.15991,0 0,-1.679687 5.27954,0 c 0.0797,-1.173473 0.11962,-2.440155 0.11963,-3.800049 z m 1.68091,14.519043 1.95923,0 0,4.880371 6.96044,0 0,1.679688 -6.48071,0 c 2.61392,2.613941 4.84089,5.094 6.68091,7.440185 l -1.19995,1.280518 c -1.68052,-2.240392 -3.68084,-4.56054 -6.00098,-6.960449 l 0,12.760009 -1.87988,0 0,-12.359619 c -1.65284,3.066413 -4.02589,5.972904 -7.11914,8.719483 l -1.12061,-1.439209 c 3.36019,-2.906897 5.89355,-6.053866 7.6001,-9.440918 l -6.87988,0 0,-1.679688 7.48047,0 z"
         style="fill:#ffffff;font-family:'M+ 1c light';-inkscape-font-specification:'M+ 1c light'"
         id="path3139" />
      <path
         d="m 205.87573,33.921885 c -0.29299,-3.093241 -0.46633,-6.68007 -0.52002,-10.760498 -1.99954,0.29381 -4.30585,0.54731 -6.91894,0.760498 l 0,10 z m 9.00025,0 0,1.799316 -6.87989,0 c 0.40036,3.280449 0.9271,6.22051 1.5802,8.82019 0.65305,2.599696 1.28639,4.519657 1.90003,5.759888 0.61357,1.240235 1.13359,1.860351 1.56006,1.860352 0.50615,-10e-7 0.94601,-2.600096 1.31958,-7.800293 l 1.80053,0.440674 c -0.18721,2.53337 -0.44071,4.533287 -0.76049,5.999755 -0.31987,1.466471 -0.66655,2.446288 -1.04004,2.939454 -0.37357,0.493161 -0.82686,0.739743 -1.35987,0.739746 -1.33304,-3e-6 -2.65302,-1.679892 -3.95996,-5.039673 -1.30699,-3.359776 -2.29373,-7.933136 -2.9602,-13.720093 l -7.63916,0 0,15.159912 c 2.34617,-0.799966 4.83925,-1.853024 7.47925,-3.15918 l 0.47973,1.560059 c -4.90644,2.399903 -9.61305,4.119871 -14.11987,5.159912 l -0.36011,-1.680908 c 1.57388,-0.372722 3.09406,-0.785726 4.56055,-1.239014 l 0,-28.959961 0,-0.240478 c 6.26625,-0.453258 12.06621,-1.239797 17.3999,-2.359619 l 0.40039,1.679687 c -2.34704,0.507029 -4.69363,0.933867 -7.03979,1.280518 0.0529,4.319686 0.23922,7.986267 0.55908,10.999756 z m -24.16016,-3.040772 1.71997,-0.479736 c 1.14663,2.986672 2.08006,6.240249 2.80029,9.760742 l -1.71997,0.358887 c -0.24008,-1.11978 -0.41342,-1.866442 -0.52002,-2.239991 l -5.11963,0.280762 0,16.560059 -1.87988,0 0,-16.44043 -7.00073,0.400391 -0.0793,-1.719971 3.15918,-0.159912 c 0.4541,-0.559881 1.21419,-1.533187 2.28028,-2.919922 -1.7863,-3.093241 -3.49285,-5.91998 -5.11963,-8.480225 l 1.28052,-1.440429 c 0.0797,0.133491 0.31961,0.526964 0.7196,1.18042 0.39998,0.653508 0.72001,1.16661 0.96008,1.539306 1.49332,-2.319309 2.97322,-4.87912 4.4397,-7.679443 l 1.67969,0.760498 c -1.57309,2.959827 -3.2662,5.826442 -5.07935,8.599854 0.48014,0.773134 1.24023,2.079692 2.28028,3.919677 2.21271,-3.066384 4.26593,-6.212946 6.15966,-9.439697 l 1.60035,0.839844 c -2.50734,4.373395 -5.45412,8.70648 -8.84034,12.999267 0.90657,-0.05288 2.25992,-0.126124 4.06006,-0.219726 1.80012,-0.09357 3.15347,-0.166815 4.06006,-0.219727 -0.61362,-2.186669 -1.22723,-4.106833 -1.84082,-5.760498 z m -11.6394,21.560059 c 1.11978,-3.546547 1.85302,-7.293288 2.1997,-11.240235 l 1.80054,0.161133 c -0.32064,3.786628 -1.08073,7.613121 -2.28027,11.479492 z m 14.71923,-2.600098 -1.75903,0.159912 c -0.26694,-2.959793 -0.73366,-5.906161 -1.40015,-8.839111 l 1.71998,-0.319824 c 0.69334,3.093269 1.17307,6.092941 1.4392,8.999023 z"
         style="fill:#ffffff;font-family:'M+ 1c light';-inkscape-font-specification:'M+ 1c light'"
         id="path3141" />
      <path
         d="m 223.71631,22.601084 0,32.600098 8.1604,0 0,1.600341 -10,0 0,-35.79956 10,0 0,1.599121 z"
         style="fill:#ffffff;font-family:'M+ 1c light';-inkscape-font-specification:'M+ 1c light'"
         id="path3143" />
      <path
         d="m 238.87988,51.801523 0,-29.200439 2.27906,0 10.32104,18.000488 0.0793,0 10.31982,-18.000488 2.35962,0 0,29.200439 -1.99951,0 0,-26.080322 -0.0793,0 -9.64111,16.760254 -1.95923,0 -9.63989,-16.760254 -0.0806,0 0,26.080322 z"
         style="fill:#ffffff;font-family:'M+ 1c light';-inkscape-font-specification:'M+ 1c light'"
         id="path3145" />
      <path
         d="m 283.82129,38.801035 0,-1.519775 c -2e-5,-1.839991 -0.40671,-3.133324 -1.22009,-3.880005 -0.81341,-0.746645 -2.24672,-1.119976 -4.29993,-1.119995 -2.50652,1.9e-5 -4.95972,0.49359 -7.35962,1.480713 l 0,-1.840821 c 2.31933,-0.879699 4.77253,-1.319559 7.35962,-1.31958 2.74657,2.1e-5 4.67324,0.526754 5.78003,1.5802 1.10675,1.053486 1.66014,2.886776 1.66016,5.499878 l 0,14.119873 -1.8396,0 0,-4.07959 -0.0806,0 c -0.72023,1.412764 -1.7737,2.512616 -3.1604,3.299561 -1.38673,0.786947 -2.95981,1.18042 -4.71924,1.18042 -1.84001,0 -3.30669,-0.553385 -4.40002,-1.660156 -1.09335,-1.106769 -1.64002,-2.593584 -1.64002,-4.46045 0,-0.986321 0.17985,-1.886182 0.53955,-2.699585 0.3597,-0.813385 0.94625,-1.58019 1.75965,-2.300415 0.81339,-0.720203 1.98689,-1.280302 3.5205,-1.680297 1.5336,-0.399971 3.36689,-0.599963 5.49988,-0.599976 z m 0,1.480713 -2.6001,0 c -6.26628,1.1e-5 -9.39942,1.879892 -9.39941,5.639648 -10e-6,1.413579 0.40649,2.533573 1.21948,3.359986 0.81298,0.826417 1.89981,1.239625 3.2605,1.239624 2.07925,10e-7 3.85232,-0.72652 5.31921,-2.179566 1.46686,-1.453038 2.2003,-3.326205 2.20032,-5.619507 z"
         style="fill:#ffffff;font-family:'M+ 1c light';-inkscape-font-specification:'M+ 1c light'"
         id="path3147" />
      <path
         d="m 307.64087,31.001963 0,19.799804 c -2e-5,3.546547 -0.73997,6.133215 -2.21985,7.76001 -1.47991,1.626782 -3.80678,2.440177 -6.98059,2.440186 -2.10694,-9e-6 -4.0267,-0.306813 -5.75928,-0.92041 l 0,-1.800538 c 1.75944,0.747064 3.67919,1.120598 5.75928,1.120606 2.56021,-8e-6 4.40693,-0.66 5.54016,-1.979981 1.1332,-1.319991 1.69981,-3.500164 1.69983,-6.540527 l 0,-2.63916 -0.0794,0 c -1.54705,2.373048 -3.85377,3.55957 -6.92016,3.55957 -2.48048,0 -4.45395,-0.926716 -5.92041,-2.780151 -1.46648,-1.85343 -2.19971,-4.433383 -2.19971,-7.739868 0,-3.786607 0.7666,-6.513248 2.29981,-8.179932 1.53319,-1.666646 3.4733,-2.499979 5.82031,-2.5 3.09325,2.1e-5 5.42642,1.239848 6.99951,3.719483 l 0.0806,0 0.0391,-3.319092 z m -15.15991,10.279541 c -10e-6,2.853198 0.58654,5.053106 1.75964,6.599731 1.17309,1.546633 2.78625,2.319948 4.83948,2.319947 1.76024,10e-7 3.30036,-0.653278 4.62036,-1.959839 1.31997,-1.306555 1.97996,-2.879836 1.97998,-4.719849 l 0,-4.520264 c -2e-5,-1.839992 -0.66672,-3.433211 -2.00012,-4.779663 -1.33343,-1.346416 -2.86684,-2.019633 -4.60022,-2.019653 -4.39942,2e-5 -6.59913,3.026546 -6.59912,9.07959 z"
         style="fill:#ffffff;font-family:'M+ 1c light';-inkscape-font-specification:'M+ 1c light'"
         id="path3149" />
      <path
         d="m 326.79004,38.801035 0,-1.519775 c -2e-5,-1.839991 -0.40671,-3.133324 -1.22009,-3.880005 -0.81341,-0.746645 -2.24672,-1.119976 -4.29993,-1.119995 -2.50652,1.9e-5 -4.95972,0.49359 -7.35962,1.480713 l 0,-1.840821 c 2.31933,-0.879699 4.77253,-1.319559 7.35962,-1.31958 2.74657,2.1e-5 4.67324,0.526754 5.78003,1.5802 1.10675,1.053486 1.66014,2.886776 1.66016,5.499878 l 0,14.119873 -1.8396,0 0,-4.07959 -0.0806,0 c -0.72023,1.412764 -1.7737,2.512616 -3.1604,3.299561 -1.38673,0.786947 -2.95981,1.18042 -4.71924,1.18042 -1.84001,0 -3.30669,-0.553385 -4.40002,-1.660156 -1.09335,-1.106769 -1.64002,-2.593584 -1.64002,-4.46045 0,-0.986321 0.17985,-1.886182 0.53955,-2.699585 0.3597,-0.813385 0.94625,-1.58019 1.75965,-2.300415 0.81339,-0.720203 1.98689,-1.280302 3.5205,-1.680297 1.5336,-0.399971 3.36689,-0.599963 5.49988,-0.599976 z m 0,1.480713 -2.6001,0 c -6.26628,1.1e-5 -9.39942,1.879892 -9.39941,5.639648 -10e-6,1.413579 0.40649,2.533573 1.21948,3.359986 0.81298,0.826417 1.89981,1.239625 3.2605,1.239624 2.07925,10e-7 3.85232,-0.72652 5.31921,-2.179566 1.46686,-1.453038 2.2003,-3.326205 2.20032,-5.619507 z"
         style="fill:#ffffff;font-family:'M+ 1c light';-inkscape-font-specification:'M+ 1c light'"
         id="path3151" />
      <path
         d="m 334.72949,31.001963 14.95972,0 0,1.599121 -12.6001,17.520752 0,0.07935 12.6001,0 0,1.600341 -14.95972,0 0,-1.600341 12.6001,-17.519532 0,-0.08057 -12.6001,0 z"
         style="fill:#ffffff;font-family:'M+ 1c light';-inkscape-font-specification:'M+ 1c light'"
         id="path3153" />
      <path
         d="m 357.70068,51.801523 0,-20.79956 2.00074,0 0,20.79956 z m 0,-25.880127 0,-4.119873 2.00074,0 0,4.119873 z"
         style="fill:#ffffff;font-family:'M+ 1c light';-inkscape-font-specification:'M+ 1c light'"
         id="path3155" />
      <path
         d="m 369.61597,31.001963 0.0403,3.679199 0.0806,0 c 1.91975,-2.719707 4.30622,-4.079569 7.15942,-4.07959 2.42674,2.1e-5 4.18008,0.666728 5.26001,2.000122 1.0799,1.333433 1.61985,3.600073 1.61987,6.799927 l 0,12.399902 -1.87988,0 0,-12.199707 c -2e-5,-2.88003 -0.42665,-4.833357 -1.27991,-5.859985 -0.85328,-1.026592 -2.22678,-1.539897 -4.12048,-1.539917 -1.51938,2e-5 -3.03244,0.733254 -4.53918,2.199707 -1.50677,1.466487 -2.26014,2.932957 -2.26014,4.399414 l 0,13.000488 -1.92016,0 0,-20.79956 z"
         style="fill:#ffffff;font-family:'M+ 1c light';-inkscape-font-specification:'M+ 1c light'"
         id="path3157" />
      <path
         d="m 390.36792,41.801523 c 0.0797,5.893559 2.71972,8.840333 7.91992,8.840332 2.05321,10e-7 4.07958,-0.426837 6.0791,-1.280517 l 0,1.71997 c -2.15984,0.747071 -4.22649,1.120606 -6.19995,1.120606 -3.19988,0 -5.62643,-0.906779 -7.27966,-2.720337 -1.65324,-1.813554 -2.47986,-4.507033 -2.47986,-8.080444 0,-3.86636 0.84005,-6.632877 2.52014,-8.299561 1.68009,-1.666646 3.84012,-2.499979 6.4801,-2.5 5.4663,2.1e-5 8.19945,3.493263 8.19947,10.479736 l 0,0.720215 z m 0,-1.560058 13.35937,0 c -0.0798,-5.386539 -2.18629,-8.079815 -6.31958,-8.079834 -4.42708,1.9e-5 -6.77368,2.693295 -7.03979,8.079834 z"
         style="fill:#ffffff;font-family:'M+ 1c light';-inkscape-font-specification:'M+ 1c light'"
         id="path3159" />
      <path
         d="m 424.82715,22.601084 -13.75977,30.800781 -2.00073,0 13.75977,-30.800781 z"
         style="fill:#ffffff;font-family:'M+ 1c light';-inkscape-font-specification:'M+ 1c light'"
         id="path3161" />
      <path
         d="m 430.44238,22.841562 c 2.3999,-0.426403 4.89298,-0.639618 7.47925,-0.639648 3.54654,3e-5 6.25324,0.753203 8.12012,2.259521 1.86684,1.506374 2.80027,3.659692 2.80029,6.459961 -2e-5,2.933775 -0.93996,5.193904 -2.81982,6.780396 -1.8799,1.58652 -4.5801,2.379772 -8.10059,2.379761 -1.81316,1.1e-5 -3.63974,-0.106597 -5.47974,-0.319825 l 0,12.039795 -1.99951,0 z m 1.99951,15.200196 c 1.67968,0.240085 3.45296,0.36012 5.31983,0.360107 2.93374,1.3e-5 5.18716,-0.633327 6.76025,-1.900024 1.57306,-1.266667 2.3596,-3.073306 2.35962,-5.419922 -2e-5,-2.346575 -0.77333,-4.126562 -2.31994,-5.339966 -1.54665,-1.213352 -3.81329,-1.82004 -6.79993,-1.820068 -1.78631,2.8e-5 -3.55958,0.146512 -5.31983,0.439453 z"
         style="fill:#ffffff;font-family:'M+ 1c light';-inkscape-font-specification:'M+ 1c light'"
         id="path3163" />
      <path
         d="m 466.39941,38.801035 0,-1.519775 c -10e-6,-1.839991 -0.40671,-3.133324 -1.22009,-3.880005 -0.81341,-0.746645 -2.24672,-1.119976 -4.29993,-1.119995 -2.50651,1.9e-5 -4.95972,0.49359 -7.35961,1.480713 l 0,-1.840821 c 2.31933,-0.879699 4.77253,-1.319559 7.35961,-1.31958 2.74657,2.1e-5 4.67325,0.526754 5.78003,1.5802 1.10676,1.053486 1.66014,2.886776 1.66016,5.499878 l 0,14.119873 -1.8396,0 0,-4.07959 -0.0806,0 c -0.72023,1.412764 -1.77369,2.512616 -3.1604,3.299561 -1.38673,0.786947 -2.9598,1.18042 -4.71923,1.18042 -1.84002,0 -3.30669,-0.553385 -4.40003,-1.660156 -1.09334,-1.106769 -1.64002,-2.593584 -1.64001,-4.46045 -10e-6,-0.986321 0.17984,-1.886182 0.53955,-2.699585 0.35969,-0.813385 0.94624,-1.58019 1.75964,-2.300415 0.81339,-0.720203 1.98689,-1.280302 3.52051,-1.680297 1.5336,-0.399971 3.36689,-0.599963 5.49988,-0.599976 z m 0,1.480713 -2.60009,0 c -6.26629,1.1e-5 -9.39942,1.879892 -9.39942,5.639648 0,1.413579 0.40649,2.533573 1.21948,3.359986 0.81299,0.826417 1.89982,1.239625 3.2605,1.239624 2.07926,10e-7 3.85233,-0.72652 5.31922,-2.179566 1.46686,-1.453038 2.2003,-3.326205 2.20031,-5.619507 z"
         style="fill:#ffffff;font-family:'M+ 1c light';-inkscape-font-specification:'M+ 1c light'"
         id="path3165" />
      <path
         d="m 476.17847,31.001963 0,3.359375 0.0806,0 c 1.62679,-2.506491 3.99983,-3.759745 7.11914,-3.759766 2.66682,2.1e-5 4.73367,0.933248 6.20057,2.799683 1.46685,1.866471 2.20029,4.533095 2.20031,7.999878 -2e-5,3.387051 -0.75339,6.03394 -2.26013,7.940674 -1.50677,1.906738 -3.55368,2.860107 -6.14075,2.860107 -3.11931,0 -5.4659,-1.213378 -7.03979,-3.640137 l -0.0793,0 0,12.039795 -1.92016,0 0,-29.599609 z m 13.68042,10.39917 c -2e-5,-6.132796 -2.26687,-9.199199 -6.80054,-9.199219 -1.81316,2e-5 -3.39967,0.653298 -4.75952,1.959839 -1.35987,1.306575 -2.0398,2.826553 -2.0398,4.559936 l 0,5.360108 c 0,1.786301 0.68664,3.319503 2.05994,4.599609 1.37328,1.280113 2.95307,1.920167 4.73938,1.920166 2.18667,1e-6 3.86676,-0.786741 5.04028,-2.360229 1.17349,-1.573482 1.76024,-3.853549 1.76026,-6.84021 z"
         style="fill:#ffffff;font-family:'M+ 1c light';-inkscape-font-specification:'M+ 1c light'"
         id="path3167" />
      <path
         d="m 497.39917,41.801523 c 0.0797,5.893559 2.71972,8.840333 7.91992,8.840332 2.05321,10e-7 4.07958,-0.426837 6.0791,-1.280517 l 0,1.71997 c -2.15984,0.747071 -4.22649,1.120606 -6.19995,1.120606 -3.19988,0 -5.62643,-0.906779 -7.27966,-2.720337 -1.65324,-1.813554 -2.47986,-4.507033 -2.47986,-8.080444 0,-3.86636 0.84005,-6.632877 2.52014,-8.299561 1.68009,-1.666646 3.84012,-2.499979 6.4801,-2.5 5.4663,2.1e-5 8.19945,3.493263 8.19947,10.479736 l 0,0.720215 z m 0,-1.560058 13.35937,0 c -0.0798,-5.386539 -2.18629,-8.079815 -6.31958,-8.079834 -4.42708,1.9e-5 -6.77368,2.693295 -7.03979,8.079834 z"
         style="fill:#ffffff;font-family:'M+ 1c light';-inkscape-font-specification:'M+ 1c light'"
         id="path3169" />
      <path
         d="m 519.65869,31.001963 0,5.239258 0.0793,0 c 0.79996,-1.626774 1.99991,-2.90668 3.59985,-3.839722 1.59993,-0.933004 3.45336,-1.399515 5.5603,-1.399536 l 0.79956,0 0,1.71997 -0.79956,0 c -2.69369,2e-5 -4.90052,0.846576 -6.62048,2.539673 -1.71998,1.69313 -2.57996,3.912977 -2.57996,6.659546 l 0,9.880371 -1.99951,0 0,-20.79956 z"
         style="fill:#ffffff;font-family:'M+ 1c light';-inkscape-font-specification:'M+ 1c light'"
         id="path3171" />
      <path
         d="m 543.67969,22.601084 -8.15918,0 0,-1.599121 10,0 0,35.79956 -10,0 0,-1.600341 8.15918,0 z"
         style="fill:#ffffff;font-family:'M+ 1c light';-inkscape-font-specification:'M+ 1c light'"
         id="path3173" />
    </g>
  </g>
</svg>
