<?xml version="1.0" encoding="UTF-8" standalone="no"?>
<!-- Created with Inkscape (http://www.inkscape.org/) -->

<svg
   xmlns:dc="http://purl.org/dc/elements/1.1/"
   xmlns:cc="http://creativecommons.org/ns#"
   xmlns:rdf="http://www.w3.org/1999/02/22-rdf-syntax-ns#"
   xmlns:svg="http://www.w3.org/2000/svg"
   xmlns="http://www.w3.org/2000/svg"
   xmlns:sodipodi="http://sodipodi.sourceforge.net/DTD/sodipodi-0.dtd"
   xmlns:inkscape="http://www.inkscape.org/namespaces/inkscape"
   width="275"
   height="24"
   id="svg2"
   version="1.1"
   docname="New document 1"
   inkscape:version="0.48.4 r9939"
   sodipodi:docname="petbottle_mozi.svg">
  <metadata
     id="metadata3842">
    <rdf:RDF>
      <cc:Work
         rdf:about="">
        <dc:format>image/svg+xml</dc:format>
        <dc:type
           rdf:resource="http://purl.org/dc/dcmitype/StillImage" />
        <dc:title></dc:title>
      </cc:Work>
    </rdf:RDF>
  </metadata>
  <defs
     id="defs3840" />
  <sodipodi:namedview
     pagecolor="#ffffff"
     bordercolor="#666666"
     borderopacity="1"
     objecttolerance="10"
     gridtolerance="10"
     guidetolerance="10"
     inkscape:pageopacity="0"
     inkscape:pageshadow="2"
     inkscape:window-width="723"
     inkscape:window-height="480"
     id="namedview3838"
     showgrid="false"
     inkscape:zoom="2.5371828"
     inkscape:cx="120.50393"
     inkscape:cy="-14.273581"
     inkscape:window-x="185"
     inkscape:window-y="58"
     inkscape:window-maximized="0"
     inkscape:current-layer="layer1" />
  <g
     label="Layer 1"
     groupmode="layer"
     id="layer1"
     transform="translate(-2.6132465,-1.0580801)"
     style="fill:#ffffff;fill-opacity:1">
    <g
       transform="matrix(0.57531763,0,0,0.57531763,-8.2824568,-8.6208377)"
       style="font-size:40px;font-style:normal;font-weight:normal;line-height:125%;letter-spacing:0px;word-spacing:0px;fill:#ffffff;stroke:none;font-family:Sans"
       id="flowRoot2985">
      <path
         d="m 18.956787,44.52125 c 2.106116,-2.506501 5.065911,-6.226386 8.879395,-11.159668 1.919746,-2.5602 3.219794,-4.180275 3.900146,-4.86023 0.680323,-0.679907 1.407048,-1.019873 2.180176,-1.019897 0.852847,2.4e-5 1.679262,0.320052 2.479248,0.960083 0.799947,0.640078 2.360004,2.213359 4.680176,4.719849 5.440237,5.813814 10.18714,10.747078 14.240722,14.799804 l -1.400146,1.44043 C 49.409636,44.867936 44.649712,39.921245 39.636719,34.561533 37.609517,32.401722 36.26939,31.015004 35.616333,30.401377 c -0.653094,-0.613585 -1.219703,-0.920388 -1.699829,-0.92041 -0.319841,2.2e-5 -0.739762,0.300111 -1.259766,0.900268 -0.520034,0.6002 -1.406671,1.713684 -2.659912,3.340454 -0.214042,0.266945 -0.374361,0.480161 -0.480957,0.639649 -3.199879,4.133314 -6.212978,7.919931 -9.039307,11.359863 z m 31.05835,-15.339356 c 0.680305,-0.680315 1.020474,-1.500423 1.020508,-2.460327 -3.4e-5,-0.959853 -0.34,-1.773248 -1.019898,-2.440185 -0.679964,-0.666883 -1.499869,-1.000338 -2.459717,-1.000367 -0.959909,2.9e-5 -1.779814,0.333484 -2.459717,1.000367 -0.679958,0.666937 -1.019924,1.480332 -1.019897,2.440185 -2.7e-5,0.959904 0.339939,1.779809 1.019897,2.459717 0.679903,0.679954 1.499808,1.019919 2.459717,1.019898 0.959848,2.1e-5 1.77955,-0.339741 2.459107,-1.019288 z m 2.620849,-2.460937 c -3.5e-5,1.413598 -0.499913,2.613751 -1.499633,3.600464 -0.999789,0.986755 -2.193025,1.480122 -3.579712,1.480102 -1.386748,2e-5 -2.580188,-0.493347 -3.580323,-1.480102 -1.000188,-0.986713 -1.500269,-2.186866 -1.500244,-3.600464 -2.5e-5,-1.385879 0.493342,-2.572197 1.480103,-3.55896 0.986707,-0.986705 2.186657,-1.480072 3.599853,-1.480103 1.413136,3.1e-5 2.613086,0.493398 3.599854,1.480103 0.9867,0.986763 1.480067,2.173081 1.480102,3.55896 z"
         style="fill:#ffffff;font-family:'M+ 1c light';-inkscape-font-specification:'M+ 1c light'"
         id="path3006" />
      <path
         d="m 89.636719,29.241709 c -0.32067,7.679865 -1.960887,13.286549 -4.920655,16.820068 -2.959822,3.533531 -7.932962,5.846761 -14.919433,6.939697 l -0.360108,-1.760253 c 3.360174,-0.559895 6.140119,-1.326496 8.339844,-2.299805 2.199684,-0.973304 4.032975,-2.339879 5.499878,-4.099732 1.466851,-1.759838 2.540255,-3.886504 3.220215,-6.380004 0.679902,-2.493474 1.100026,-5.59365 1.260376,-9.300538 z m -24.801026,1.479492 1.800537,-0.439453 c 0.747061,2.479674 1.706939,6.012792 2.879639,10.599365 l -1.839599,0.400391 c -0.960296,-3.92007 -1.907154,-7.440168 -2.840577,-10.560303 z m 8.880616,-1.240234 1.800537,-0.439453 c 0.986308,3.466816 1.946187,7.186701 2.879638,11.159668 l -1.800537,0.40039 C 75.636456,36.574895 74.676578,32.86803 73.716309,29.480967 z"
         style="fill:#ffffff;font-family:'M+ 1c light';-inkscape-font-specification:'M+ 1c light'"
         id="path3008" />
      <path
         d="m 109.83569,21.281504 0,11.839599 c 7.17365,1.70656 14.72043,4.053563 22.64038,7.041016 l -0.63964,1.799316 c -7.73359,-2.906888 -15.06716,-5.186752 -22.00074,-6.839599 l 0,18.399658 -1.99951,0 0,-32.23999 z"
         style="fill:#ffffff;font-family:'M+ 1c light';-inkscape-font-specification:'M+ 1c light'"
         id="path3010" />
      <path
         d="m 140.63647,26.88209 15.52002,0 0,-6.400147 1.99952,0 0,6.400147 14.72045,0 0,1.799316 -14.72045,0 0,20.400391 c -3e-5,1.733399 -0.24661,2.866617 -0.73975,3.399658 -0.49318,0.533039 -1.53973,0.799559 -3.13965,0.79956 -1.94663,-10e-7 -4.01328,-0.199789 -6.19995,-0.599365 l 0.27954,-1.760254 c 2.00031,0.346681 3.88019,0.52002 5.63965,0.52002 0.96027,0 1.56045,-0.13326 1.80054,-0.39978 0.24005,-0.26652 0.36009,-0.98653 0.3601,-2.160035 l 0,-20.200195 -15.52002,0 z m 25.63965,-7.440186 1.44043,-0.800781 c 0.90655,1.413606 2.07964,3.413929 3.51929,6.000976 l -1.43921,0.759278 c -1.12064,-2.08005 -2.29414,-4.066539 -3.52051,-5.959473 z m 5.11963,-0.720215 1.44043,-0.79956 c 1.44039,2.319367 2.64034,4.35916 3.59986,6.119385 l -1.43921,0.760498 c -1.17354,-2.13376 -2.3739,-4.160532 -3.60108,-6.080323 z m -31.6394,29.039307 c 2.53336,-4.453117 4.84008,-8.906237 6.92016,-13.359375 l 1.79932,0.679932 c -1.86606,4.106458 -4.19923,8.613289 -6.99951,13.520507 z m 25.27954,-12.679443 1.76025,-0.799561 c 2.1069,3.812677 4.44007,8.439137 6.99951,13.879395 l -1.79931,0.760498 c -2.42679,-5.173332 -4.74694,-9.786772 -6.96045,-13.840332 z"
         style="fill:#ffffff;font-family:'M+ 1c light';-inkscape-font-specification:'M+ 1c light'"
         id="path3012" />
      <path
         d="m 189.83569,21.281504 0,11.839599 c 7.17365,1.70656 14.72043,4.053563 22.64038,7.041016 l -0.63964,1.799316 c -7.73359,-2.906888 -15.06716,-5.186752 -22.00074,-6.839599 l 0,18.399658 -1.99951,0 0,-32.23999 z"
         style="fill:#ffffff;font-family:'M+ 1c light';-inkscape-font-specification:'M+ 1c light'"
         id="path3014" />
      <path
         d="m 228.07666,22.68165 1.99951,0 0,7.719727 c -1e-5,5.1465 -0.29339,9.166475 -0.88013,12.059936 -0.58676,2.89348 -1.48011,5.07345 -2.68005,6.539917 -1.19996,1.466473 -2.97303,2.746582 -5.31921,3.840332 l -1.00098,-1.679687 c 2.13378,-1.013182 3.72721,-2.17997 4.78027,-3.500366 1.05306,-1.320389 1.83308,-3.300571 2.34009,-5.940552 0.50699,-2.639961 0.76049,-6.413151 0.7605,-11.31958 z m 12.19971,28.160401 c 3.60023,-0.373534 6.60031,-1.973671 9.00024,-4.800415 2.39987,-2.826733 3.79961,-6.466663 4.19922,-10.9198 l 1.87988,0.239258 c -0.45332,5.200206 -2.20645,9.400235 -5.2594,12.600097 -3.053,3.199871 -6.80646,4.799804 -11.26037,4.799805 l -0.55908,0 0,-30.079346 1.99951,0 z"
         style="fill:#ffffff;font-family:'M+ 1c light';-inkscape-font-specification:'M+ 1c light'"
         id="path3016" />
      <path
         d="m 263.71631,22.601084 0,32.600098 8.1604,0 0,1.600341 -10,0 0,-35.79956 10,0 0,1.599121 z"
         style="fill:#ffffff;font-family:'M+ 1c light';-inkscape-font-specification:'M+ 1c light'"
         id="path3018" />
      <path
         d="m 278.87988,22.841562 c 2.3999,-0.426403 4.89298,-0.639618 7.47925,-0.639648 3.54654,3e-5 6.25324,0.753203 8.12012,2.259521 1.86684,1.506374 2.80027,3.659692 2.80029,6.459961 -2e-5,2.933775 -0.93996,5.193904 -2.81982,6.780396 -1.8799,1.58652 -4.5801,2.379772 -8.10059,2.379761 -1.81316,1.1e-5 -3.63974,-0.106597 -5.47974,-0.319825 l 0,12.039795 -1.99951,0 z m 1.99951,15.200196 c 1.67968,0.240085 3.45296,0.36012 5.31983,0.360107 2.93374,1.3e-5 5.18716,-0.633327 6.76025,-1.900024 1.57306,-1.266667 2.3596,-3.073306 2.35962,-5.419922 -2e-5,-2.346575 -0.77333,-4.126562 -2.31994,-5.339966 -1.54665,-1.213352 -3.81329,-1.82004 -6.79993,-1.820068 -1.78631,2.8e-5 -3.55958,0.146512 -5.31983,0.439453 z"
         style="fill:#ffffff;font-family:'M+ 1c light';-inkscape-font-specification:'M+ 1c light'"
         id="path3020" />
      <path
         d="m 318.83716,24.321055 -14.52027,0 0,10.800781 13.71949,0 0,1.679687 -13.71949,0 0,13.28003 14.52027,0 0,1.71997 -16.51978,0 0,-29.200439 16.51978,0 z"
         style="fill:#ffffff;font-family:'M+ 1c light';-inkscape-font-specification:'M+ 1c light'"
         id="path3022" />
      <path
         d="m 324.44141,22.601084 20.24047,0 0,1.760254 -9.11987,0 0,27.440185 -2.00073,0 0,-27.440185 -9.11987,0 z"
         style="fill:#ffffff;font-family:'M+ 1c light';-inkscape-font-specification:'M+ 1c light'"
         id="path3024" />
      <path
         d="m 379.58179,43.401865 c -2e-5,2.586269 -0.86672,4.699507 -2.6001,6.339722 -1.73342,1.640218 -4.64031,2.460327 -8.7207,2.460327 -2.58627,0 -4.90602,-0.213623 -6.95923,-0.640869 l 0,-28.719483 c 2.13297,-0.426403 4.31965,-0.639618 6.56006,-0.639648 6.82615,3e-5 10.23923,2.306749 10.23925,6.920166 -2e-5,1.679708 -0.53326,3.099588 -1.59973,4.259643 -1.0665,1.160093 -2.5466,1.966773 -4.4403,2.420044 l 0,0.07935 c 2.37384,0.400406 4.22076,1.287246 5.54077,2.660523 1.31996,1.373303 1.97996,2.993377 1.97998,4.860229 z m -1.96045,-0.12085 c -2e-5,-1.999501 -0.87343,-3.579292 -2.62024,-4.739379 -1.74684,-1.160061 -4.39353,-1.740098 -7.94006,-1.740113 l -3.75977,0 0,13.239746 c 1.62678,0.293784 3.28002,0.440676 4.95972,0.440674 6.24021,2e-6 9.36033,-2.400305 9.36035,-7.200928 z m -14.32007,-8.159179 3.75977,0 c 3.01349,1.6e-5 5.29356,-0.500064 6.84021,-1.500244 1.54661,-1.000144 2.31992,-2.433655 2.31994,-4.300537 -2e-5,-3.599421 -2.78647,-5.399142 -8.35937,-5.39917 -1.52019,2.8e-5 -3.04038,0.146512 -4.56055,0.439453 z"
         style="fill:#ffffff;font-family:'M+ 1c light';-inkscape-font-specification:'M+ 1c light'"
         id="path3026" />
      <path
         d="m 385.45703,33.421396 c 1.62679,-1.879862 3.90685,-2.819803 6.84021,-2.819824 2.93334,2.1e-5 5.2132,0.939962 6.8396,2.819824 1.62636,1.8799 2.43956,4.539809 2.43958,7.979737 -2e-5,3.439948 -0.81322,6.100061 -2.43958,7.980346 -1.6264,1.880291 -3.90626,2.820435 -6.8396,2.820435 -2.93336,0 -5.21342,-0.940144 -6.84021,-2.820435 -1.62679,-1.880285 -2.44019,-4.540398 -2.44018,-7.980346 -10e-6,-3.439928 0.81339,-6.099837 2.44018,-7.979737 z m 1.41968,14.840088 c 1.24023,1.560061 3.04707,2.340089 5.42053,2.340088 2.37344,1e-6 4.18008,-0.780027 5.41992,-2.340088 1.23981,-1.560053 1.85973,-3.846631 1.85974,-6.859741 -1e-5,-3.013089 -0.61993,-5.299667 -1.85974,-6.859741 -1.23984,-1.56004 -3.04648,-2.340068 -5.41992,-2.340088 -2.37346,2e-5 -4.1803,0.780048 -5.42053,2.340088 -1.24024,1.560074 -1.86036,3.846652 -1.86035,6.859741 -1e-5,3.01311 0.62011,5.299688 1.86035,6.859741 z"
         style="fill:#ffffff;font-family:'M+ 1c light';-inkscape-font-specification:'M+ 1c light'"
         id="path3028" />
      <path
         d="m 412.12817,24.201426 0,7.600097 7.83936,0 0,1.600342 -7.83936,0 0,12.279053 c 0,2.027185 0.28666,3.354088 0.85999,3.980713 0.57331,0.626629 1.65994,0.939942 3.25989,0.939941 1.14663,1e-6 2.23997,-0.200194 3.28003,-0.600586 l 0,1.680908 c -1.06691,0.34668 -2.25344,0.52002 -3.55957,0.52002 -2.21356,0 -3.73374,-0.460002 -4.56055,-1.380005 -0.82683,-0.920001 -1.24024,-2.59338 -1.24024,-5.020142 l 0,-12.399902 -4.71923,0 0,-1.600342 4.71923,0 0,-7.600097 z"
         style="fill:#ffffff;font-family:'M+ 1c light';-inkscape-font-specification:'M+ 1c light'"
         id="path3030" />
      <path
         d="m 431.8938,24.201426 0,7.600097 7.83935,0 0,1.600342 -7.83935,0 0,12.279053 c -10e-6,2.027185 0.28665,3.354088 0.85998,3.980713 0.57332,0.626629 1.65995,0.939942 3.25989,0.939941 1.14663,1e-6 2.23998,-0.200194 3.28003,-0.600586 l 0,1.680908 c -1.06691,0.34668 -2.25343,0.52002 -3.55957,0.52002 -2.21355,0 -3.73373,-0.460002 -4.56055,-1.380005 -0.82683,-0.920001 -1.24024,-2.59338 -1.24023,-5.020142 l 0,-12.399902 -4.71924,0 0,-1.600342 4.71924,0 0,-7.600097 z"
         style="fill:#ffffff;font-family:'M+ 1c light';-inkscape-font-specification:'M+ 1c light'"
         id="path3032" />
      <path
         d="m 447.77881,51.801523 0,-30 2.00073,0 0,30 z"
         style="fill:#ffffff;font-family:'M+ 1c light';-inkscape-font-specification:'M+ 1c light'"
         id="path3034" />
      <path
         d="m 458.41479,41.801523 c 0.0797,5.893559 2.71973,8.840333 7.91993,8.840332 2.05321,10e-7 4.07957,-0.426837 6.0791,-1.280517 l 0,1.71997 c -2.15985,0.747071 -4.2265,1.120606 -6.19995,1.120606 -3.19988,0 -5.62643,-0.906779 -7.27967,-2.720337 -1.65324,-1.813554 -2.47986,-4.507033 -2.47985,-8.080444 -10e-6,-3.86636 0.84004,-6.632877 2.52014,-8.299561 1.68009,-1.666646 3.84012,-2.499979 6.4801,-2.5 5.46629,2.1e-5 8.19944,3.493263 8.19946,10.479736 l 0,0.720215 z m 0,-1.560058 13.35938,0 c -0.0798,-5.386539 -2.18629,-8.079815 -6.31958,-8.079834 -4.42709,1.9e-5 -6.77369,2.693295 -7.0398,8.079834 z"
         style="fill:#ffffff;font-family:'M+ 1c light';-inkscape-font-specification:'M+ 1c light'"
         id="path3036" />
      <path
         d="m 487.27344,22.601084 -8.15918,0 0,-1.599121 10,0 0,35.79956 -10,0 0,-1.600341 8.15918,0 z"
         style="fill:#ffffff;font-family:'M+ 1c light';-inkscape-font-specification:'M+ 1c light'"
         id="path3038" />
    </g>
  </g>
</svg>
