<?xml version="1.0" encoding="UTF-8" standalone="no"?>
<!-- Created with Inkscape (http://www.inkscape.org/) -->

<svg
   xmlns:dc="http://purl.org/dc/elements/1.1/"
   xmlns:cc="http://creativecommons.org/ns#"
   xmlns:rdf="http://www.w3.org/1999/02/22-rdf-syntax-ns#"
   xmlns:svg="http://www.w3.org/2000/svg"
   xmlns="http://www.w3.org/2000/svg"
   xmlns:sodipodi="http://sodipodi.sourceforge.net/DTD/sodipodi-0.dtd"
   xmlns:inkscape="http://www.inkscape.org/namespaces/inkscape"
   width="232"
   height="24"
   id="svg2"
   version="1.1"
   docname="New document 1"
   inkscape:version="0.48.4 r9939"
   sodipodi:docname="plastic.svg">
  <metadata
     id="metadata3842">
    <rdf:RDF>
      <cc:Work
         rdf:about="">
        <dc:format>image/svg+xml</dc:format>
        <dc:type
           rdf:resource="http://purl.org/dc/dcmitype/StillImage" />
        <dc:title></dc:title>
      </cc:Work>
    </rdf:RDF>
  </metadata>
  <defs
     id="defs3840" />
  <sodipodi:namedview
     pagecolor="#ffffff"
     bordercolor="#666666"
     borderopacity="1"
     objecttolerance="10"
     gridtolerance="10"
     guidetolerance="10"
     inkscape:pageopacity="0"
     inkscape:pageshadow="2"
     inkscape:window-width="877"
     inkscape:window-height="476"
     id="namedview3838"
     showgrid="false"
     inkscape:zoom="2.5371828"
     inkscape:cx="102.21486"
     inkscape:cy="-14.273581"
     inkscape:window-x="185"
     inkscape:window-y="58"
     inkscape:window-maximized="0"
     inkscape:current-layer="layer1" />
  <g
     label="Layer 1"
     groupmode="layer"
     id="layer1"
     transform="translate(-2.6132465,-1.0580801)"
     style="fill:#ffffff;fill-opacity:1">
    <g
       transform="matrix(0.57531763,0,0,0.57531763,-8.2824568,-8.6208377)"
       style="font-size:40px;font-style:normal;font-weight:normal;line-height:125%;letter-spacing:0px;word-spacing:0px;fill:#ffffff;stroke:none;font-family:Sans"
       id="flowRoot2985">
      <path
         d="m 47.275879,22.601084 c -3e-5,-1.28008 0.459971,-2.379933 1.380005,-3.299561 0.919971,-0.919563 2.020026,-1.37936 3.300171,-1.379394 1.280074,3.4e-5 2.38013,0.459831 3.300171,1.379394 0.919964,0.919628 1.379965,2.019481 1.380004,3.299561 -3.9e-5,1.280138 -0.46004,2.380194 -1.380004,3.300171 -0.920041,0.920028 -2.020097,1.380029 -3.300171,1.380005 -0.346714,2.4e-5 -0.813429,-0.07973 -1.400147,-0.239258 -0.319857,7.893083 -2.526479,13.939627 -6.619873,18.139648 -4.093447,4.200035 -10.246598,6.766764 -18.459473,7.700196 l -0.319824,-1.840821 c 7.866195,-0.932615 13.692606,-3.39233 17.479248,-7.37915 3.786592,-3.986804 5.773488,-9.807111 5.960694,-17.460938 l -27.239991,0 0,-1.879882 26.279297,0 C 47.395884,23.70829 47.275849,23.134967 47.275879,22.601084 z m 6.879883,2.200928 c 0.613569,-0.61358 0.920372,-1.347018 0.92041,-2.200318 -3.8e-5,-0.853241 -0.306638,-1.58668 -0.9198,-2.200317 -0.613236,-0.613575 -1.346471,-0.920378 -2.199707,-0.92041 -0.853305,3.2e-5 -1.586744,0.306835 -2.200317,0.92041 -0.613639,0.613637 -0.920442,1.347076 -0.920411,2.200317 -3.1e-5,0.8533 0.306772,1.586535 0.920411,2.199707 0.613573,0.613226 1.347012,0.919826 2.200317,0.9198 0.853236,2.6e-5 1.586267,-0.30637 2.199097,-0.919189 z"
         style="fill:#ffffff;font-family:'M+ 1c light';-inkscape-font-specification:'M+ 1c light'"
         id="path3198" />
      <path
         d="m 61.755859,33.161387 30.52002,0 0,0.560302 c -3.5e-5,5.786959 -2.053256,10.326953 -6.159668,13.619995 -4.10647,3.293052 -10.18638,5.246378 -18.239746,5.859986 l -0.240479,-1.800537 c 2.320137,-0.18636 4.480169,-0.486246 6.480103,-0.899659 1.9999,-0.413409 3.986592,-1.033322 5.960083,-1.859741 1.973445,-0.826412 3.666762,-1.833084 5.079956,-3.020019 1.413138,-1.186923 2.586436,-2.686962 3.519897,-4.500122 0.933399,-1.813139 1.466846,-3.866359 1.600342,-6.159668 l -28.520508,0 z m 3.120118,-8.28003 0,-1.799316 24.560546,0 0,1.799316 z"
         style="fill:#ffffff;font-family:'M+ 1c light';-inkscape-font-specification:'M+ 1c light'"
         id="path3200" />
      <path
         d="m 104.95654,25.281748 0,-1.800537 24.39942,0 0,1.800537 c -1.81318,4.746929 -4.83971,9.320085 -9.07959,13.719482 4.34649,4.107268 8.43991,8.227544 12.28027,12.36084 l -1.40015,1.31958 c -3.62714,-3.946937 -7.69371,-8.066806 -12.1997,-12.359619 -4.58742,4.506029 -10.09442,8.425703 -16.521,11.759033 l -0.88013,-1.599121 c 6.29394,-3.307287 11.66075,-7.147412 16.10047,-11.520386 4.43967,-4.372948 7.63323,-8.93288 9.58069,-13.679809 z"
         style="fill:#ffffff;font-family:'M+ 1c light';-inkscape-font-specification:'M+ 1c light'"
         id="path3202" />
      <path
         d="m 140.55591,37.68165 0,-1.800537 17.16064,0 0,-1.159668 0,-8.359375 c -3.78664,0.50621 -8.14658,0.759302 -13.07983,0.759278 l 0,-1.799317 c 4.9593,2.7e-5 9.32575,-0.266697 13.09936,-0.800171 3.77358,-0.533419 7.68715,-1.440197 11.74073,-2.720337 l 0.55908,1.760254 c -3.70609,1.17353 -7.15945,2.013373 -10.36011,2.519531 l 0,8.640137 0,1.159668 14.08081,0 0,1.800537 -14.16015,0 c -0.31985,4.640309 -1.48643,8.180345 -3.49976,10.620117 -2.01336,2.43978 -5.08668,4.086507 -9.21997,4.940186 l -0.48096,-1.719971 c 3.68,-0.773924 6.40013,-2.234087 8.1604,-4.380493 1.76024,-2.146396 2.78685,-5.299673 3.07984,-9.459839 z"
         style="fill:#ffffff;font-family:'M+ 1c light';-inkscape-font-specification:'M+ 1c light'"
         id="path3204" />
      <path
         d="m 209.63672,29.241709 c -0.32067,7.679865 -1.96089,13.286549 -4.92066,16.820068 -2.95982,3.533531 -7.93296,5.846761 -14.91943,6.939697 l -0.36011,-1.760253 c 3.36018,-0.559895 6.14012,-1.326496 8.33985,-2.299805 2.19968,-0.973304 4.03297,-2.339879 5.49988,-4.099732 1.46685,-1.759838 2.54025,-3.886504 3.22021,-6.380004 0.6799,-2.493474 1.10003,-5.59365 1.26038,-9.300538 z m -24.80103,1.479492 1.80054,-0.439453 c 0.74706,2.479674 1.70694,6.012792 2.87964,10.599365 l -1.8396,0.400391 c -0.9603,-3.92007 -1.90715,-7.440168 -2.84058,-10.560303 z m 8.88062,-1.240234 1.80054,-0.439453 c 0.9863,3.466816 1.94618,7.186701 2.87963,11.159668 l -1.80053,0.40039 c -0.95949,-4.026677 -1.91937,-7.733542 -2.87964,-11.120605 z"
         style="fill:#ffffff;font-family:'M+ 1c light';-inkscape-font-specification:'M+ 1c light'"
         id="path3206" />
      <path
         d="m 248.3562,26.601328 -16.96045,0 c -1.49334,4.773783 -4.15976,8.90708 -7.99927,12.399902 l -1.3208,-1.240234 c 4.96012,-4.559715 7.82714,-10.319393 8.60108,-17.279053 l 1.91894,0.159912 c -0.15952,1.386749 -0.39918,2.773466 -0.71899,4.160157 l 18.479,0 0,0.520019 c -3e-5,8.693052 -2.09333,15.20631 -6.2799,19.539795 -4.18663,4.333499 -10.81321,6.8868 -19.87977,7.659912 l -0.27954,-1.800537 c 8.45295,-0.77311 14.59288,-3.033036 18.4198,-6.779785 3.82688,-3.746733 5.83351,-9.526757 6.0199,-17.340088 z"
         style="fill:#ffffff;font-family:'M+ 1c light';-inkscape-font-specification:'M+ 1c light'"
         id="path3208" />
      <path
         d="m 263.71631,22.601084 0,32.600098 8.1604,0 0,1.600341 -10,0 0,-35.79956 10,0 0,1.599121 z"
         style="fill:#ffffff;font-family:'M+ 1c light';-inkscape-font-specification:'M+ 1c light'"
         id="path3210" />
      <path
         d="m 278.87988,22.841562 c 2.3999,-0.426403 4.89298,-0.639618 7.47925,-0.639648 3.54654,3e-5 6.25324,0.753203 8.12012,2.259521 1.86684,1.506374 2.80027,3.659692 2.80029,6.459961 -2e-5,2.933775 -0.93996,5.193904 -2.81982,6.780396 -1.8799,1.58652 -4.5801,2.379772 -8.10059,2.379761 -1.81316,1.1e-5 -3.63974,-0.106597 -5.47974,-0.319825 l 0,12.039795 -1.99951,0 z m 1.99951,15.200196 c 1.67968,0.240085 3.45296,0.36012 5.31983,0.360107 2.93374,1.3e-5 5.18716,-0.633327 6.76025,-1.900024 1.57306,-1.266667 2.3596,-3.073306 2.35962,-5.419922 -2e-5,-2.346575 -0.77333,-4.126562 -2.31994,-5.339966 -1.54665,-1.213352 -3.81329,-1.82004 -6.79993,-1.820068 -1.78631,2.8e-5 -3.55958,0.146512 -5.31983,0.439453 z"
         style="fill:#ffffff;font-family:'M+ 1c light';-inkscape-font-specification:'M+ 1c light'"
         id="path3212" />
      <path
         d="m 303.71631,51.801523 0,-30 2.00073,0 0,30 z"
         style="fill:#ffffff;font-family:'M+ 1c light';-inkscape-font-specification:'M+ 1c light'"
         id="path3214" />
      <path
         d="m 326.71191,38.801035 0,-1.519775 c -10e-6,-1.839991 -0.40671,-3.133324 -1.22009,-3.880005 -0.81341,-0.746645 -2.24672,-1.119976 -4.29993,-1.119995 -2.50651,1.9e-5 -4.95972,0.49359 -7.35961,1.480713 l 0,-1.840821 c 2.31933,-0.879699 4.77253,-1.319559 7.35961,-1.31958 2.74657,2.1e-5 4.67325,0.526754 5.78003,1.5802 1.10676,1.053486 1.66014,2.886776 1.66016,5.499878 l 0,14.119873 -1.8396,0 0,-4.07959 -0.0806,0 c -0.72023,1.412764 -1.77369,2.512616 -3.1604,3.299561 -1.38673,0.786947 -2.9598,1.18042 -4.71923,1.18042 -1.84002,0 -3.30669,-0.553385 -4.40003,-1.660156 -1.09334,-1.106769 -1.64002,-2.593584 -1.64001,-4.46045 -10e-6,-0.986321 0.17984,-1.886182 0.53955,-2.699585 0.35969,-0.813385 0.94624,-1.58019 1.75964,-2.300415 0.81339,-0.720203 1.98689,-1.280302 3.52051,-1.680297 1.5336,-0.399971 3.36689,-0.599963 5.49988,-0.599976 z m 0,1.480713 -2.60009,0 c -6.26629,1.1e-5 -9.39942,1.879892 -9.39942,5.639648 0,1.413579 0.40649,2.533573 1.21948,3.359986 0.81299,0.826417 1.89982,1.239625 3.2605,1.239624 2.07926,10e-7 3.85233,-0.72652 5.31922,-2.179566 1.46686,-1.453038 2.2003,-3.326205 2.20031,-5.619507 z"
         style="fill:#ffffff;font-family:'M+ 1c light';-inkscape-font-specification:'M+ 1c light'"
         id="path3216" />
      <path
         d="m 341.37134,32.201914 c -1.73341,2e-5 -3.06682,0.326557 -4.00025,0.979614 -0.93343,0.653094 -1.40015,1.566383 -1.40014,2.739868 -1e-5,1.06691 0.37332,1.940322 1.11999,2.62024 0.74666,0.679944 2.12015,1.233125 4.12049,1.659546 2.69285,0.586762 4.59267,1.360076 5.69946,2.319946 1.10675,0.959888 1.66014,2.293504 1.66015,4.000854 -10e-6,1.759444 -0.66,3.145958 -1.97998,4.159546 -1.32,1.013591 -3.16671,1.520386 -5.54016,1.520386 -2.37346,0 -4.6401,-0.493571 -6.79992,-1.480713 l 0,-1.719971 c 2.15982,1.066897 4.37336,1.600343 6.64062,1.600342 1.84,1e-6 3.25988,-0.360106 4.25965,-1.080322 0.99974,-0.720212 1.49961,-1.719967 1.49963,-2.999268 -2e-5,-1.066888 -0.39329,-1.98038 -1.17981,-2.740478 -0.78655,-0.760083 -2.28659,-1.380199 -4.50012,-1.860352 -2.47966,-0.53303 -4.25294,-1.259551 -5.31983,-2.179565 -1.06689,-0.919991 -1.60034,-2.140082 -1.60034,-3.660279 0,-1.67967 0.63334,-3.01288 1.90003,-3.999633 1.26667,-0.986715 3.03364,-1.480082 5.3009,-1.480103 2.29328,2.1e-5 4.50641,0.373149 6.6394,1.119385 l 0,1.719971 c -2.23959,-0.82599 -4.41285,-1.238994 -6.51977,-1.239014 z"
         style="fill:#ffffff;font-family:'M+ 1c light';-inkscape-font-specification:'M+ 1c light'"
         id="path3218" />
      <path
         d="m 359.86255,24.201426 0,7.600097 7.83935,0 0,1.600342 -7.83935,0 0,12.279053 c -10e-6,2.027185 0.28665,3.354088 0.85998,3.980713 0.57332,0.626629 1.65995,0.939942 3.25989,0.939941 1.14663,1e-6 2.23998,-0.200194 3.28003,-0.600586 l 0,1.680908 c -1.06691,0.34668 -2.25343,0.52002 -3.55957,0.52002 -2.21355,0 -3.73373,-0.460002 -4.56055,-1.380005 -0.82683,-0.920001 -1.24024,-2.59338 -1.24023,-5.020142 l 0,-12.399902 -4.71924,0 0,-1.600342 4.71924,0 0,-7.600097 z"
         style="fill:#ffffff;font-family:'M+ 1c light';-inkscape-font-specification:'M+ 1c light'"
         id="path3220" />
      <path
         d="m 375.74756,51.801523 0,-20.79956 2.00073,0 0,20.79956 z m 0,-25.880127 0,-4.119873 2.00073,0 0,4.119873 z"
         style="fill:#ffffff;font-family:'M+ 1c light';-inkscape-font-specification:'M+ 1c light'"
         id="path3222" />
      <path
         d="m 393.70288,32.240976 c -4.85352,2e-5 -7.28028,3.053402 -7.28027,9.160157 -1e-5,6.106775 2.56021,9.160157 7.68066,9.160156 1.89289,10e-7 3.69302,-0.360106 5.40039,-1.080322 l 0,1.800537 c -1.76027,0.613606 -3.58725,0.92041 -5.48095,0.92041 -3.09327,0 -5.46652,-0.906779 -7.11976,-2.720337 -1.65324,-1.813554 -2.47986,-4.507033 -2.47985,-8.080444 -10e-6,-3.51968 0.79996,-6.199528 2.3999,-8.039551 1.59993,-1.839986 3.86677,-2.759989 6.80054,-2.76001 1.91974,2.1e-5 3.81305,0.293397 5.67993,0.880127 l 0,1.760254 c -1.84002,-0.667298 -3.70688,-1.000957 -5.60059,-1.000977 z"
         style="fill:#ffffff;font-family:'M+ 1c light';-inkscape-font-specification:'M+ 1c light'"
         id="path3224" />
      <path
         d="m 414.07031,22.601084 -8.15918,0 0,-1.599121 10,0 0,35.79956 -10,0 0,-1.600341 8.15918,0 z"
         style="fill:#ffffff;font-family:'M+ 1c light';-inkscape-font-specification:'M+ 1c light'"
         id="path3226" />
    </g>
  </g>
</svg>
