<?xml version="1.0" encoding="UTF-8" standalone="no"?>
<!-- Created with Inkscape (http://www.inkscape.org/) -->

<svg
   xmlns:dc="http://purl.org/dc/elements/1.1/"
   xmlns:cc="http://creativecommons.org/ns#"
   xmlns:rdf="http://www.w3.org/1999/02/22-rdf-syntax-ns#"
   xmlns:svg="http://www.w3.org/2000/svg"
   xmlns="http://www.w3.org/2000/svg"
   xmlns:sodipodi="http://sodipodi.sourceforge.net/DTD/sodipodi-0.dtd"
   xmlns:inkscape="http://www.inkscape.org/namespaces/inkscape"
   width="243"
   height="24"
   id="svg2"
   version="1.1"
   docname="New document 1"
   inkscape:version="0.48.4 r9939"
   sodipodi:docname="toxicwaste.svg">
  <metadata
     id="metadata3842">
    <rdf:RDF>
      <cc:Work
         rdf:about="">
        <dc:format>image/svg+xml</dc:format>
        <dc:type
           rdf:resource="http://purl.org/dc/dcmitype/StillImage" />
        <dc:title></dc:title>
      </cc:Work>
    </rdf:RDF>
  </metadata>
  <defs
     id="defs3840" />
  <sodipodi:namedview
     pagecolor="#ffffff"
     bordercolor="#666666"
     borderopacity="1"
     objecttolerance="10"
     gridtolerance="10"
     guidetolerance="10"
     inkscape:pageopacity="0"
     inkscape:pageshadow="2"
     inkscape:window-width="723"
     inkscape:window-height="480"
     id="namedview3838"
     showgrid="false"
     inkscape:zoom="2.5371828"
     inkscape:cx="149.1775"
     inkscape:cy="-12.617415"
     inkscape:window-x="185"
     inkscape:window-y="58"
     inkscape:window-maximized="0"
     inkscape:current-layer="flowRoot2985" />
  <g
     label="Layer 1"
     groupmode="layer"
     id="layer1"
     transform="translate(-2.6132465,-1.0580801)"
     style="fill:#ffffff;fill-opacity:1">
    <g
       transform="matrix(0.57531763,0,0,0.57531763,-7.0393999,-8.6208377)"
       style="font-size:40px;font-style:normal;font-weight:normal;line-height:125%;letter-spacing:0px;word-spacing:0px;fill:#ffffff;stroke:none;font-family:Sans"
       id="flowRoot2985">
      <path
         d="m 28.835937,37.481455 20.800782,0 0,-5.720215 -20.800782,0 z m 0,1.600342 0,5.839843 20.800782,0 0,-5.839843 z m -9.399414,1.839599 -0.92041,-1.679687 c 2.827145,-2.106919 5.187372,-4.326969 7.080689,-6.660156 1.8933,-2.333149 3.49303,-5.006487 4.799194,-8.02002 l -10.919189,0 0,-1.679687 11.599121,0 c 0.453273,-1.120576 0.933416,-2.507293 1.440429,-4.160157 l 1.96045,0.279541 c -0.48016,1.599966 -0.906999,2.893504 -1.280518,3.880616 l 21.639404,0 0,1.679687 -22.319336,0 c -0.853692,2.000351 -1.80055,3.840355 -2.840576,5.52002 l 21.960449,0 0,20.92041 c -3.4e-5,1.493326 -0.233392,2.413328 -0.700073,2.76001 -0.466749,0.346677 -1.633536,0.520017 -3.500366,0.520019 -1.172718,-2e-6 -3.079047,-0.06673 -5.718994,-0.200195 l 0,-1.679688 c 2.452772,0.132649 4.279349,0.198974 5.479736,0.198975 1.226369,-10e-7 1.939665,-0.05331 2.139893,-0.159912 0.200163,-0.106609 0.30026,-0.493164 0.300293,-1.159668 l 0,-4.759522 -20.800782,0 0,7.958985 -1.999511,0 0,-20.479737 c -2.133797,2.533381 -4.600428,4.840101 -7.399903,6.920166 z"
         style="fill:#ffffff;font-family:'M+ 1c light';-inkscape-font-specification:'M+ 1c light'"
         id="path3049" />
      <path
         d="m 65.956299,52.721933 0,2.199707 -1.999512,0 0,-12.280273 26.398926,0 0,12.280273 -1.999512,0 0,-2.199707 z m 12.199707,-14.680175 16.359863,0 0,1.679687 -34.719238,0 0,-1.679687 16.359863,0 0,-3.959961 -14.000244,0 0,-1.600342 14.000244,0 0,-3.599854 -12.800293,0 0,-1.600341 12.800293,0 0,-3.320313 -13.800049,0 0,5.040283 -1.879883,0 0,-6.71997 15.679932,0 0,-3.559571 1.999512,0 0,3.559571 15.679931,0 0,6.71997 -1.879882,0 0,-5.040283 -13.800049,0 0,3.320313 12.800293,0 0,1.600341 -12.800293,0 0,3.599854 14.000244,0 0,1.600342 -14.000244,0 z m 10.200195,12.999267 0,-6.71997 -22.399902,0 0,6.71997 z"
         style="fill:#ffffff;font-family:'M+ 1c light';-inkscape-font-specification:'M+ 1c light'"
         id="path3051" />
      <path
         d="m 123.63574,29.841074 1.521,-0.839844 c 1.25322,1.973491 2.54635,4.173603 3.87939,6.600342 l -1.56006,0.799561 c -1.35989,-2.55939 -2.64,-4.746074 -3.84033,-6.560059 z m 5.28076,-1.599121 1.56006,-0.839844 c 1.35983,2.106142 2.67982,4.359151 3.95996,6.759033 l -1.56006,0.800782 c -1.68053,-3.01349 -3.00052,-5.253478 -3.95996,-6.719971 z m -23.1604,-3.720703 0,-1.799317 22.39991,0 0,1.799317 z m 24.88037,26.679687 c -1.57311,0.480144 -3.66641,0.88033 -6.2799,1.200562 -2.61355,0.32023 -5.04051,0.480345 -7.28089,0.480347 -4.55974,-2e-6 -8.18625,-0.746664 -10.87951,-2.239991 -2.69329,-1.493324 -4.03992,-3.480016 -4.03992,-5.960083 0,-2.480052 1.85343,-5.52021 5.5603,-9.120483 l 1.35987,1.199951 c -3.30649,3.17384 -4.95973,5.760711 -4.95972,7.76062 -10e-6,1.999924 1.16658,3.593144 3.49976,4.779663 2.33315,1.186525 5.48623,1.779786 9.45922,1.779785 2.10692,10e-7 4.43378,-0.166625 6.98059,-0.499877 2.54677,-0.333251 4.6067,-0.72652 6.17981,-1.17981 z"
         style="fill:#ffffff;font-family:'M+ 1c light';-inkscape-font-specification:'M+ 1c light'"
         id="path3053" />
      <path
         d="m 148.11572,52.481455 c -1.75945,-10e-7 -3.5258,-1.026611 -5.29907,-3.079834 -1.77328,-2.053218 -2.65991,-4.213047 -2.65991,-6.479492 0,-2.133778 1.28662,-4.02729 3.85986,-5.680542 2.57323,-1.653223 5.95295,-2.533146 10.13916,-2.639771 0.26691,-1.78709 0.68032,-5.280332 1.24024,-10.479736 l -12.39991,0 0,-1.719971 14.32007,0 0,1.719971 c -0.50702,4.639509 -0.93386,8.146178 -1.28052,10.520019 3.49363,0.132667 6.92055,0.732439 10.28077,1.799317 0.10658,-1.946597 0.15988,-5.559875 0.15991,-10.839844 l 1.87988,0 c -3e-5,4.559755 -0.0802,8.399676 -0.24048,11.519776 2.48044,0.933444 4.81401,2.093518 7.00074,3.480224 l -0.88013,1.560059 c -2.10697,-1.306955 -4.18705,-2.360421 -6.24024,-3.160401 -0.18639,2.506521 -0.46634,4.566456 -0.83984,6.17981 -0.37356,1.613368 -0.92695,2.973433 -1.66016,4.0802 -0.73326,1.106772 -1.53323,1.980185 -2.3999,2.620239 -0.86672,0.640055 -2.06016,1.33321 -3.58032,2.079468 l -0.95947,-1.599121 c 1.83998,-0.906575 3.21327,-1.779987 4.11987,-2.620239 0.90655,-0.840248 1.66644,-2.153723 2.27966,-3.94043 0.61317,-1.786695 1.02679,-4.279978 1.24085,-7.479858 -3.38707,-1.146633 -6.85387,-1.786688 -10.40039,-1.920166 -0.66653,4.373383 -1.39976,7.760221 -2.19971,10.160522 -0.79998,2.400312 -1.61338,3.987021 -2.44019,4.760132 -0.82683,0.773112 -1.84042,1.159667 -3.04077,1.159668 z m 5.7605,-16.119385 c -3.54656,0.106624 -6.39995,0.813207 -8.56018,2.119751 -2.16024,1.306571 -3.24036,2.786672 -3.24036,4.440308 0,1.732592 0.69336,3.445643 2.08008,5.13916 1.38671,1.693524 2.7067,2.540284 3.95996,2.540283 1.17349,1e-6 2.21353,-1.026609 3.12012,-3.079834 0.90656,-2.053216 1.78669,-5.773102 2.64038,-11.159668 z"
         style="fill:#ffffff;font-family:'M+ 1c light';-inkscape-font-specification:'M+ 1c light'"
         id="path3055" />
      <path
         d="m 183.71631,22.601084 0,32.600098 8.1604,0 0,1.600341 -10,0 0,-35.79956 10,0 0,1.599121 z"
         style="fill:#ffffff;font-family:'M+ 1c light';-inkscape-font-specification:'M+ 1c light'"
         id="path3057" />
      <path
         d="m 197.87891,22.601084 20.24047,0 0,1.760254 -9.11987,0 0,27.440185 -2.00073,0 0,-27.440185 -9.11987,0 z"
         style="fill:#ffffff;font-family:'M+ 1c light';-inkscape-font-specification:'M+ 1c light'"
         id="path3059" />
      <path
         d="m 224.83203,33.421396 c 1.62679,-1.879862 3.90685,-2.819803 6.84021,-2.819824 2.93334,2.1e-5 5.2132,0.939962 6.8396,2.819824 1.62636,1.8799 2.43956,4.539809 2.43958,7.979737 -2e-5,3.439948 -0.81322,6.100061 -2.43958,7.980346 -1.6264,1.880291 -3.90626,2.820435 -6.8396,2.820435 -2.93336,0 -5.21342,-0.940144 -6.84021,-2.820435 -1.62679,-1.880285 -2.44019,-4.540398 -2.44018,-7.980346 -1e-5,-3.439928 0.81339,-6.099837 2.44018,-7.979737 z m 1.41968,14.840088 c 1.24023,1.560061 3.04707,2.340089 5.42053,2.340088 2.37344,1e-6 4.18008,-0.780027 5.41992,-2.340088 1.23981,-1.560053 1.85973,-3.846631 1.85974,-6.859741 -1e-5,-3.013089 -0.61993,-5.299667 -1.85974,-6.859741 -1.23984,-1.56004 -3.04648,-2.340068 -5.41992,-2.340088 -2.37346,2e-5 -4.1803,0.780048 -5.42053,2.340088 -1.24024,1.560074 -1.86036,3.846652 -1.86035,6.859741 -1e-5,3.01311 0.62011,5.299688 1.86035,6.859741 z"
         style="fill:#ffffff;font-family:'M+ 1c light';-inkscape-font-specification:'M+ 1c light'"
         id="path3061" />
      <path
         d="m 247.22339,31.001963 6.11938,8.919677 0.0806,0 6.08032,-8.919677 2.15943,0 -7.19971,10.239258 7.3999,10.560302 -2.19971,0 -6.3208,-9.239502 -0.0793,0 -6.28052,9.239502 -2.15942,0 7.3999,-10.560302 -7.19971,-10.239258 z"
         style="fill:#ffffff;font-family:'M+ 1c light';-inkscape-font-specification:'M+ 1c light'"
         id="path3063" />
      <path
         d="m 268.87256,51.801523 0,-20.79956 2.00073,0 0,20.79956 z m 0,-25.880127 0,-4.119873 2.00073,0 0,4.119873 z"
         style="fill:#ffffff;font-family:'M+ 1c light';-inkscape-font-specification:'M+ 1c light'"
         id="path3065" />
      <path
         d="m 286.82788,32.240976 c -4.85352,2e-5 -7.28028,3.053402 -7.28027,9.160157 -1e-5,6.106775 2.56021,9.160157 7.68066,9.160156 1.89289,10e-7 3.69302,-0.360106 5.40039,-1.080322 l 0,1.800537 c -1.76027,0.613606 -3.58725,0.92041 -5.48095,0.92041 -3.09327,0 -5.46652,-0.906779 -7.11976,-2.720337 -1.65324,-1.813554 -2.47986,-4.507033 -2.47985,-8.080444 -10e-6,-3.51968 0.79996,-6.199528 2.3999,-8.039551 1.59993,-1.839986 3.86677,-2.759989 6.80054,-2.76001 1.91974,2.1e-5 3.81305,0.293397 5.67993,0.880127 l 0,1.760254 c -1.84002,-0.667298 -3.70688,-1.000957 -5.60059,-1.000977 z"
         style="fill:#ffffff;font-family:'M+ 1c light';-inkscape-font-specification:'M+ 1c light'"
         id="path3067" />
      <path
         d="m 310.02246,22.601084 5.79956,27.160644 0.0806,0 6.35986,-27.160644 2.71973,0 6.3208,27.160644 0.0793,0 5.80079,-27.160644 1.99951,0 -6.56006,29.200439 -2.68067,0 -6.31958,-27.159424 -0.0793,0 -6.3208,27.159424 -2.67945,0 -6.56005,-29.200439 z"
         style="fill:#ffffff;font-family:'M+ 1c light';-inkscape-font-specification:'M+ 1c light'"
         id="path3069" />
      <path
         d="m 357.18066,38.801035 0,-1.519775 c -10e-6,-1.839991 -0.40671,-3.133324 -1.22009,-3.880005 -0.81341,-0.746645 -2.24672,-1.119976 -4.29993,-1.119995 -2.50651,1.9e-5 -4.95972,0.49359 -7.35961,1.480713 l 0,-1.840821 c 2.31933,-0.879699 4.77253,-1.319559 7.35961,-1.31958 2.74657,2.1e-5 4.67325,0.526754 5.78003,1.5802 1.10676,1.053486 1.66014,2.886776 1.66016,5.499878 l 0,14.119873 -1.8396,0 0,-4.07959 -0.0806,0 c -0.72023,1.412764 -1.77369,2.512616 -3.1604,3.299561 -1.38673,0.786947 -2.9598,1.18042 -4.71923,1.18042 -1.84002,0 -3.30669,-0.553385 -4.40003,-1.660156 -1.09334,-1.106769 -1.64002,-2.593584 -1.64001,-4.46045 -10e-6,-0.986321 0.17984,-1.886182 0.53955,-2.699585 0.35969,-0.813385 0.94624,-1.58019 1.75964,-2.300415 0.81339,-0.720203 1.98689,-1.280302 3.52051,-1.680297 1.5336,-0.399971 3.36689,-0.599963 5.49988,-0.599976 z m 0,1.480713 -2.60009,0 c -6.26629,1.1e-5 -9.39942,1.879892 -9.39942,5.639648 0,1.413579 0.40649,2.533573 1.21948,3.359986 0.81299,0.826417 1.89982,1.239625 3.2605,1.239624 2.07926,10e-7 3.85233,-0.72652 5.31922,-2.179566 1.46686,-1.453038 2.2003,-3.326205 2.20031,-5.619507 z"
         style="fill:#ffffff;font-family:'M+ 1c light';-inkscape-font-specification:'M+ 1c light'"
         id="path3071" />
      <path
         d="m 371.84009,32.201914 c -1.73341,2e-5 -3.06682,0.326557 -4.00025,0.979614 -0.93343,0.653094 -1.40015,1.566383 -1.40014,2.739868 -1e-5,1.06691 0.37332,1.940322 1.11999,2.62024 0.74666,0.679944 2.12015,1.233125 4.12049,1.659546 2.69285,0.586762 4.59267,1.360076 5.69946,2.319946 1.10675,0.959888 1.66014,2.293504 1.66015,4.000854 -10e-6,1.759444 -0.66,3.145958 -1.97998,4.159546 -1.32,1.013591 -3.16671,1.520386 -5.54016,1.520386 -2.37346,0 -4.6401,-0.493571 -6.79992,-1.480713 l 0,-1.719971 c 2.15982,1.066897 4.37336,1.600343 6.64062,1.600342 1.84,1e-6 3.25988,-0.360106 4.25965,-1.080322 0.99974,-0.720212 1.49961,-1.719967 1.49963,-2.999268 -2e-5,-1.066888 -0.39329,-1.98038 -1.17981,-2.740478 -0.78655,-0.760083 -2.28659,-1.380199 -4.50012,-1.860352 -2.47966,-0.53303 -4.25294,-1.259551 -5.31983,-2.179565 -1.06689,-0.919991 -1.60034,-2.140082 -1.60034,-3.660279 0,-1.67967 0.63334,-3.01288 1.90003,-3.999633 1.26667,-0.986715 3.03364,-1.480082 5.3009,-1.480103 2.29328,2.1e-5 4.50641,0.373149 6.6394,1.119385 l 0,1.719971 c -2.23959,-0.82599 -4.41285,-1.238994 -6.51977,-1.239014 z"
         style="fill:#ffffff;font-family:'M+ 1c light';-inkscape-font-specification:'M+ 1c light'"
         id="path3073" />
      <path
         d="m 390.3313,24.201426 0,7.600097 7.83935,0 0,1.600342 -7.83935,0 0,12.279053 c -10e-6,2.027185 0.28665,3.354088 0.85998,3.980713 0.57332,0.626629 1.65995,0.939942 3.25989,0.939941 1.14663,1e-6 2.23998,-0.200194 3.28003,-0.600586 l 0,1.680908 c -1.06691,0.34668 -2.25343,0.52002 -3.55957,0.52002 -2.21355,0 -3.73373,-0.460002 -4.56055,-1.380005 -0.82683,-0.920001 -1.24024,-2.59338 -1.24023,-5.020142 l 0,-12.399902 -4.71924,0 0,-1.600342 4.71924,0 0,-7.600097 z"
         style="fill:#ffffff;font-family:'M+ 1c light';-inkscape-font-specification:'M+ 1c light'"
         id="path3075" />
      <path
         d="m 404.97729,41.801523 c 0.0797,5.893559 2.71973,8.840333 7.91993,8.840332 2.05321,10e-7 4.07957,-0.426837 6.0791,-1.280517 l 0,1.71997 c -2.15985,0.747071 -4.2265,1.120606 -6.19995,1.120606 -3.19988,0 -5.62643,-0.906779 -7.27967,-2.720337 -1.65324,-1.813554 -2.47986,-4.507033 -2.47985,-8.080444 -10e-6,-3.86636 0.84004,-6.632877 2.52014,-8.299561 1.68009,-1.666646 3.84012,-2.499979 6.4801,-2.5 5.46629,2.1e-5 8.19944,3.493263 8.19946,10.479736 l 0,0.720215 z m 0,-1.560058 13.35938,0 c -0.0798,-5.386539 -2.18629,-8.079815 -6.31958,-8.079834 -4.42709,1.9e-5 -6.77369,2.693295 -7.0398,8.079834 z"
         style="fill:#ffffff;font-family:'M+ 1c light';-inkscape-font-specification:'M+ 1c light'"
         id="path3077" />
      <path
         d="m 433.83594,22.601084 -8.15918,0 0,-1.599121 10,0 0,35.79956 -10,0 0,-1.600341 8.15918,0 z"
         style="fill:#ffffff;font-family:'M+ 1c light';-inkscape-font-specification:'M+ 1c light'"
         id="path3079" />
    </g>
    <text
       xml:space="preserve"
       style="font-size:40px;font-style:normal;font-weight:normal;line-height:125%;letter-spacing:0px;word-spacing:0px;fill:#000000;fill-opacity:1;stroke:none;font-family:Sans"
       x="124.54759"
       y="12.964138"
       id="text3044"
       sodipodi:linespacing="125%"
       transform="translate(2.6132465,1.0580801)"><tspan
         sodipodi:role="line"
         id="tspan3046"
         x="124.54759"
         y="12.964138" /></text>
  </g>
</svg>
